<svg width="504" height="304" viewBox="0 0 504 304" fill="none" xmlns="http://www.w3.org/2000/svg">
<path d="M267.884 66.4642C245.518 63.2373 224.277 54.5976 206.004 41.295C178.672 21.4739 121.476 -12.2538 66.9138 4.54566C-8.34049 27.7233 -8.68364 94.7494 10.9192 131.155C30.522 167.561 169.535 274.195 349.787 257.233C511.071 242.047 542.487 68.2669 456.474 36.8226C381.846 9.53313 356.393 79.0144 267.884 66.4642Z" fill="#FFDECD"/>
<path d="M238.535 63.8401C242.841 61.6346 244.544 56.3558 242.339 52.0496C240.133 47.7434 234.855 46.0404 230.548 48.2459C226.242 50.4514 224.539 55.7302 226.745 60.0364C228.95 64.3426 234.229 66.0456 238.535 63.8401Z" fill="#E95A5C"/>
<path d="M482.783 82.7956C482.783 83.8411 482.473 84.863 481.892 85.7322C481.311 86.6013 480.485 87.2786 479.519 87.6784C478.553 88.0781 477.49 88.1823 476.465 87.9778C475.44 87.7733 474.498 87.2693 473.759 86.5296C473.021 85.7898 472.518 84.8475 472.315 83.822C472.112 82.7964 472.217 81.7337 472.619 80.7682C473.02 79.8028 473.698 78.978 474.568 78.3983C475.438 77.8185 476.46 77.5098 477.506 77.5113C478.199 77.5113 478.886 77.648 479.527 77.9137C480.168 78.1793 480.75 78.5687 481.24 79.0595C481.73 79.5503 482.118 80.1329 482.383 80.774C482.648 81.415 482.784 82.102 482.783 82.7956Z" fill="#E95A5C"/>
<path d="M99.5406 25.528C99.2132 26.5207 99.1877 27.5882 99.4671 28.5954C99.7465 29.6026 100.318 30.5044 101.11 31.1865C101.902 31.8687 102.879 32.3007 103.916 32.4278C104.954 32.555 106.006 32.3715 106.939 31.9008C107.872 31.43 108.645 30.693 109.159 29.783C109.674 28.8731 109.907 27.831 109.829 26.7886C109.751 25.7463 109.365 24.7504 108.721 23.9271C108.077 23.1038 107.204 22.4899 106.211 22.1632C104.88 21.7253 103.43 21.8338 102.179 22.4647C100.928 23.0957 99.9793 24.1975 99.5406 25.528Z" fill="#FD8970"/>
<path d="M33.9574 157.584C33.9574 158.628 33.6479 159.648 33.068 160.516C32.4882 161.383 31.6641 162.06 30.6998 162.459C29.7356 162.858 28.6746 162.963 27.651 162.759C26.6274 162.556 25.6871 162.053 24.9491 161.315C24.2111 160.577 23.7086 159.637 23.505 158.613C23.3014 157.59 23.4059 156.529 23.8052 155.564C24.2046 154.6 24.881 153.776 25.7488 153.196C26.6166 152.616 27.6368 152.307 28.6805 152.307C29.3734 152.307 30.0596 152.443 30.6998 152.709C31.3401 152.974 31.9218 153.362 32.4118 153.853C32.9018 154.343 33.2905 154.924 33.5557 155.564C33.8209 156.205 33.9574 156.891 33.9574 157.584Z" fill="#FD8970"/>
<path d="M470.754 91.6448C470.754 92.3429 470.547 93.0252 470.159 93.6055C469.771 94.1858 469.22 94.638 468.575 94.9048C467.93 95.1716 467.22 95.241 466.535 95.1043C465.851 94.9676 465.222 94.6308 464.729 94.1367C464.236 93.6426 463.901 93.0133 463.765 92.3285C463.63 91.6437 463.701 90.9341 463.969 90.2896C464.237 89.6452 464.691 89.0947 465.272 88.7079C465.853 88.3212 466.536 88.1155 467.234 88.117C467.697 88.117 468.155 88.2083 468.583 88.3857C469.01 88.5631 469.399 88.823 469.726 89.1507C470.053 89.4784 470.312 89.8674 470.488 90.2953C470.665 90.7233 470.755 91.1819 470.754 91.6448Z" fill="#E95A5C"/>
<path d="M271.773 258.875C271.773 261.388 234.717 263.418 189.055 263.418C143.394 263.418 106.337 261.388 106.337 258.875C106.337 256.363 143.394 254.339 189.055 254.339C234.717 254.339 271.773 256.363 271.773 258.875Z" fill="#FFCDB3" fill-opacity="0.3"/>
<path d="M274.449 211.042C273.682 213.717 272.691 216.323 271.484 218.831C271.262 219.298 271.025 219.765 270.78 220.225C269.231 223.173 267.267 225.883 264.948 228.273C263.633 229.624 262.062 230.697 260.325 231.429C258.589 232.161 256.723 232.537 254.839 232.535H121.197C119.313 232.535 117.448 232.158 115.711 231.426C113.975 230.694 112.403 229.622 111.088 228.273C108.768 225.883 106.804 223.173 105.255 220.225C105.01 219.765 104.773 219.298 104.514 218.831C103.307 216.323 102.316 213.718 101.549 211.042H274.449Z" fill="#C4C8E0"/>
<path d="M271.485 218.831C271.262 219.298 271.025 219.765 270.78 220.225H105.255L104.514 218.831H271.485Z" fill="#303683"/>
<path d="M256.773 232.394L253.63 239.62H122.368L119.233 232.394L188.003 232.468L256.773 232.394Z" fill="#303683"/>
<path d="M150.071 239.62C150.071 239.62 148.508 244.63 144.365 244.63H128.06C123.917 244.63 122.353 239.62 122.353 239.62H150.071Z" fill="#C4C8E0"/>
<path d="M134.122 259.112L141.452 244.63H129.438L125.228 259.112H134.122Z" fill="#303683"/>
<path d="M225.927 239.62C225.927 239.62 227.491 244.63 231.634 244.63H247.939C252.082 244.63 253.645 239.62 253.645 239.62H225.927Z" fill="#C4C8E0"/>
<path d="M241.876 259.112L234.546 244.63H246.56L250.777 259.112H241.876Z" fill="#303683"/>
<path d="M240.824 248.143H134.285V250.567H240.824V248.143Z" fill="#303683"/>
<path d="M180.51 204.068H181.421V202.704L146.899 202.749C146.34 202.725 145.782 202.815 145.258 203.013C144.734 203.21 144.256 203.512 143.852 203.899C143.448 204.287 143.126 204.752 142.906 205.267C142.687 205.782 142.573 206.336 142.573 206.895C142.573 207.455 142.687 208.009 142.906 208.524C143.126 209.039 143.448 209.504 143.852 209.892C144.256 210.279 144.734 210.581 145.258 210.778C145.782 210.976 146.34 211.066 146.899 211.042L181.429 210.998V209.819H180.517L180.51 204.068Z" fill="#C4CAF1"/>
<path d="M180.747 204.068V209.819L149.071 209.856C148.698 209.852 148.33 209.775 147.988 209.629C147.645 209.482 147.335 209.27 147.075 209.004C146.815 208.737 146.609 208.422 146.471 208.076C146.333 207.73 146.264 207.36 146.269 206.988C146.263 206.23 146.556 205.5 147.085 204.957C147.341 204.691 147.648 204.478 147.988 204.333C148.328 204.188 148.694 204.113 149.063 204.112L180.747 204.068Z" fill="white"/>
<path d="M180.747 205.528V206.403L149.886 206.447C149.77 206.445 149.659 206.399 149.576 206.317C149.493 206.236 149.445 206.126 149.441 206.01C149.443 205.893 149.491 205.782 149.574 205.7C149.657 205.618 149.769 205.572 149.886 205.572L180.747 205.528Z" fill="#000033"/>
<path d="M180.754 207.692V208.567L149.893 208.604C149.836 208.605 149.778 208.594 149.725 208.572C149.671 208.551 149.623 208.519 149.582 208.478C149.541 208.437 149.509 208.388 149.487 208.335C149.466 208.281 149.455 208.224 149.456 208.166C149.456 208.05 149.502 207.939 149.584 207.857C149.666 207.775 149.777 207.729 149.893 207.729L180.754 207.692Z" fill="#000033"/>
<path d="M177.427 195.782H178.338V194.418L143.816 194.463C143.257 194.439 142.698 194.529 142.175 194.727C141.651 194.924 141.173 195.226 140.769 195.613C140.365 196.001 140.043 196.466 139.823 196.981C139.604 197.496 139.49 198.05 139.49 198.61C139.49 199.169 139.604 199.723 139.823 200.238C140.043 200.753 140.365 201.218 140.769 201.606C141.173 201.993 141.651 202.295 142.175 202.492C142.698 202.69 143.257 202.78 143.816 202.756L178.338 202.712V201.518H177.434L177.427 195.782Z" fill="#C4C8E0"/>
<path d="M177.664 195.782V201.519L145.98 201.556C145.229 201.544 144.514 201.236 143.989 200.699C143.464 200.161 143.173 199.438 143.179 198.687C143.175 197.93 143.468 197.201 143.994 196.657C144.251 196.391 144.558 196.179 144.898 196.034C145.238 195.889 145.603 195.814 145.973 195.812L177.664 195.782Z" fill="white"/>
<path d="M177.664 197.242V198.117L146.803 198.161C146.688 198.159 146.577 198.112 146.496 198.031C146.414 197.949 146.368 197.839 146.366 197.724C146.368 197.608 146.414 197.498 146.496 197.417C146.577 197.335 146.688 197.288 146.803 197.287L177.664 197.242Z" fill="#000033"/>
<path d="M177.671 199.399V200.281L146.81 200.318C146.753 200.319 146.695 200.308 146.642 200.287C146.588 200.265 146.54 200.233 146.499 200.192C146.458 200.151 146.426 200.102 146.404 200.049C146.383 199.995 146.372 199.938 146.373 199.88C146.373 199.765 146.419 199.653 146.501 199.571C146.583 199.489 146.694 199.443 146.81 199.443L177.671 199.399Z" fill="#000033"/>
<path d="M183.445 187.489H184.356V186.125L149.834 186.17C148.735 186.17 147.682 186.606 146.905 187.383C146.128 188.16 145.691 189.214 145.691 190.312C145.691 191.411 146.128 192.465 146.905 193.242C147.682 194.019 148.735 194.455 149.834 194.455L184.356 194.411V193.233H183.445V187.489Z" fill="#434F97"/>
<path d="M183.682 187.489V193.232L152.006 193.27C151.633 193.266 151.265 193.188 150.922 193.042C150.579 192.896 150.268 192.684 150.007 192.417C149.746 192.151 149.541 191.836 149.402 191.49C149.262 191.144 149.193 190.774 149.197 190.401C149.193 189.643 149.489 188.913 150.019 188.371C150.276 188.104 150.583 187.892 150.923 187.747C151.263 187.601 151.629 187.526 151.998 187.526L183.682 187.489Z" fill="white"/>
<path d="M183.682 188.919V189.794L152.821 189.838C152.706 189.836 152.595 189.789 152.514 189.708C152.432 189.626 152.386 189.516 152.384 189.401C152.386 189.285 152.432 189.175 152.514 189.094C152.595 189.012 152.706 188.965 152.821 188.964L183.682 188.919Z" fill="#000033"/>
<path d="M183.689 191.142V192.017L152.828 192.061C152.771 192.061 152.714 192.05 152.661 192.028C152.608 192.006 152.56 191.974 152.519 191.933C152.479 191.893 152.446 191.845 152.424 191.792C152.402 191.738 152.391 191.682 152.391 191.624C152.391 191.567 152.402 191.51 152.424 191.457C152.446 191.404 152.479 191.356 152.519 191.315C152.56 191.274 152.608 191.242 152.661 191.22C152.714 191.198 152.771 191.187 152.828 191.187L183.689 191.142Z" fill="#000033"/>
<path d="M366.365 276.566C404.313 276.566 435.076 273.852 435.076 270.504C435.076 267.155 404.313 264.441 366.365 264.441C328.417 264.441 297.654 267.155 297.654 270.504C297.654 273.852 328.417 276.566 366.365 276.566Z" fill="#FFCDB3" fill-opacity="0.3"/>
<path d="M340.284 249.099V270.504H331.398L326.329 252.309L324.446 245.572L340.284 249.099Z" fill="#46539E"/>
<g style="mix-blend-mode:multiply" opacity="0.5">
<g style="mix-blend-mode:multiply" opacity="0.5">
<path d="M340.284 249.099V254.562C336.252 254.117 330.509 253.079 326.321 252.338L324.446 245.601L340.284 249.099Z" fill="#46539E"/>
</g>
</g>
<path d="M390.311 249.099V270.504H399.197L404.274 252.309L406.149 245.572L390.311 249.099Z" fill="#46539E"/>
<g style="mix-blend-mode:multiply" opacity="0.5">
<g style="mix-blend-mode:multiply" opacity="0.5">
<path d="M390.311 249.099V254.562C394.343 254.117 400.087 253.079 404.274 252.338L406.149 245.601L390.311 249.099Z" fill="#46539E"/>
</g>
</g>
<path d="M431.459 122.839C430.592 131.874 423.01 164.765 419.193 180.974C418.815 182.59 418.452 184.042 418.17 185.288C417.429 188.326 417.014 190.135 417.014 190.135L335.289 188.415C335.289 188.415 335.059 187.37 334.666 185.517C331.739 171.873 319.658 114.146 322.867 108.521C323.129 108.081 323.463 107.688 323.853 107.357C324.184 107.062 324.536 106.792 324.906 106.549C325.306 106.282 325.75 106.023 326.232 105.763C332.161 102.643 344.486 100.042 358.487 98.5077C375.006 96.692 393.846 96.3659 407.224 98.404L408.35 98.5893C409.329 98.7449 410.262 98.9154 411.159 99.0858C428.687 102.406 432.081 107.172 432.193 113.909C432.23 116.591 431.77 119.549 431.459 122.839Z" fill="#C4CAF1"/>
<path d="M405.838 113.79C405.836 114.242 405.969 114.684 406.219 115.06C406.469 115.437 406.825 115.73 407.242 115.904C407.659 116.078 408.118 116.124 408.561 116.037C409.005 115.95 409.412 115.733 409.732 115.414C410.052 115.095 410.27 114.688 410.359 114.245C410.448 113.802 410.403 113.343 410.23 112.926C410.058 112.508 409.765 112.151 409.39 111.9C409.014 111.649 408.572 111.515 408.121 111.515C407.516 111.515 406.937 111.754 406.509 112.181C406.081 112.607 405.84 113.186 405.838 113.79Z" fill="#46539E"/>
<path d="M332.999 115.272C332.999 115.724 333.133 116.165 333.384 116.54C333.634 116.916 333.991 117.208 334.408 117.381C334.825 117.554 335.284 117.599 335.727 117.511C336.17 117.423 336.577 117.206 336.896 116.886C337.215 116.567 337.432 116.16 337.52 115.718C337.609 115.275 337.563 114.816 337.391 114.399C337.218 113.982 336.925 113.625 336.55 113.374C336.174 113.123 335.733 112.99 335.282 112.99C334.982 112.989 334.684 113.047 334.407 113.161C334.13 113.276 333.877 113.444 333.665 113.656C333.453 113.868 333.285 114.12 333.171 114.398C333.056 114.675 332.998 114.972 332.999 115.272Z" fill="#46539E"/>
<path d="M335.8 170.917C335.717 170.918 335.637 170.89 335.573 170.837C335.509 170.784 335.466 170.71 335.452 170.628C335.452 170.487 332.836 156.25 330.746 141.775C329.515 133.267 328.7 126.345 328.315 121.194C327.655 112.36 328.404 110.596 329.056 110.04C332.643 106.823 351.216 104.355 361.97 103.169C367.137 102.6 372.34 102.422 377.534 102.636C389.963 103.147 411.359 104.511 414.983 107.824C415.591 108.387 416.317 110.158 415.539 118.985C415.08 124.129 414.168 131.044 412.819 139.53C410.529 153.974 407.735 168.175 407.705 168.315C407.698 168.361 407.68 168.405 407.655 168.444C407.629 168.483 407.596 168.517 407.557 168.542C407.518 168.568 407.475 168.586 407.429 168.594C407.383 168.602 407.336 168.6 407.29 168.59C407.198 168.572 407.117 168.518 407.064 168.44C407.011 168.362 406.991 168.267 407.009 168.175C407.009 168.034 409.825 153.848 412.115 139.418C416.125 114.168 415.332 109.113 414.502 108.343C411.974 106.015 398.493 104.177 377.504 103.318C372.335 103.104 367.157 103.279 362.014 103.844C351.349 105.022 332.94 107.453 329.501 110.514C328.656 111.255 327.796 116.31 331.45 141.642C333.532 156.101 336.126 170.331 336.149 170.472C336.166 170.564 336.146 170.66 336.093 170.738C336.041 170.816 335.959 170.869 335.867 170.887L335.8 170.917Z" fill="#46539E"/>
<path d="M432.193 113.931C432.156 116.406 431.741 119.119 431.452 122.15C430.584 131.185 423.003 164.076 419.186 180.285H405.845C405.845 180.285 420.572 126.575 421.409 113.36C421.972 104.741 415.621 100.761 411.137 99.0784C428.687 102.406 432.082 107.172 432.193 113.931Z" fill="#46539E"/>
<path d="M335.341 186.866C335.341 186.866 322.742 185.651 321.741 190.194C320.941 193.744 322.015 225.517 322.527 239.317C322.586 241.055 321.963 242.748 320.792 244.034C319.621 245.321 317.993 246.098 316.257 246.202C315.456 246.246 314.619 246.283 313.752 246.313C309.586 246.469 304.858 246.409 301.627 245.676C294.578 244.082 294.349 234.077 291.851 217.512C289.353 200.948 287.078 171.354 302.538 165.633C303.064 165.44 303.598 165.262 304.132 165.099C319.028 160.593 333.229 169.501 333.229 169.501C335.29 175.043 336.014 180.992 335.341 186.866Z" fill="#46539E"/>
<path d="M313.729 246.313C309.564 246.468 304.836 246.409 301.604 245.675C294.556 244.082 294.326 234.077 291.829 217.512C289.331 200.948 287.056 171.354 302.516 165.633C303.042 165.44 303.576 165.262 304.109 165.099C306.748 165.729 309.164 167.478 310.468 171.317C314.033 181.745 308.415 217.942 313.729 246.313Z" fill="#C4CAF1"/>
<path d="M305.518 243.83C302.301 243.83 299.803 242.503 298.284 239.976C295.89 236.033 292.451 202.178 292.303 200.755C292.299 200.713 292.303 200.671 292.315 200.631C292.326 200.59 292.346 200.553 292.373 200.52C292.399 200.487 292.432 200.46 292.469 200.44C292.506 200.42 292.547 200.407 292.588 200.403C292.63 200.399 292.673 200.403 292.713 200.415C292.753 200.427 292.791 200.446 292.823 200.473C292.856 200.499 292.883 200.532 292.903 200.569C292.923 200.606 292.936 200.647 292.94 200.688C292.977 201.037 296.52 235.826 298.832 239.65C302.338 245.446 310.083 242.355 310.157 242.318C310.197 242.296 310.242 242.283 310.287 242.28C310.333 242.276 310.379 242.282 310.422 242.298C310.466 242.313 310.505 242.337 310.538 242.369C310.571 242.401 310.597 242.439 310.615 242.482C310.632 242.524 310.64 242.57 310.638 242.616C310.637 242.661 310.626 242.706 310.606 242.748C310.586 242.789 310.557 242.825 310.522 242.855C310.487 242.884 310.446 242.906 310.402 242.918C308.93 243.47 307.377 243.775 305.807 243.823L305.518 243.83Z" fill="#46539E"/>
<path d="M306.666 177.187C306.666 177.187 306.414 171.502 302.13 171.954C297.847 172.407 297.632 181.775 301.471 182.99C307.059 184.761 306.666 177.187 306.666 177.187Z" fill="#46539E"/>
<path d="M296.794 175.49H296.728C296.686 175.481 296.647 175.464 296.612 175.44C296.577 175.415 296.547 175.384 296.524 175.348C296.501 175.313 296.486 175.272 296.479 175.231C296.472 175.189 296.473 175.146 296.483 175.104C296.528 174.897 297.676 169.916 301.827 168.923C302.586 168.709 303.385 168.679 304.158 168.835C304.932 168.991 305.657 169.329 306.274 169.82C307.05 170.493 307.687 171.313 308.146 172.232C308.605 173.152 308.878 174.153 308.949 175.178C308.949 175.263 308.915 175.344 308.856 175.404C308.796 175.463 308.715 175.497 308.63 175.497C308.546 175.497 308.465 175.463 308.405 175.404C308.345 175.344 308.312 175.263 308.312 175.178C308.163 173.304 307.288 171.562 305.873 170.324C305.329 169.903 304.692 169.617 304.016 169.488C303.34 169.36 302.644 169.392 301.982 169.583C298.217 170.487 297.128 175.23 297.113 175.282C297.089 175.346 297.045 175.401 296.988 175.439C296.931 175.476 296.863 175.494 296.794 175.49Z" fill="#46539E"/>
<path d="M422.743 184.747C421.943 188.119 421.461 190.135 421.461 190.135L330.597 188.222C330.597 188.222 330.345 187.066 329.908 185.006C346.006 182.249 401.265 183.19 422.743 184.747Z" fill="#46539E"/>
<path d="M422.017 201.911C422.017 203.623 421.958 205.432 421.906 207.314C421.394 224.249 419.327 246.594 411.982 248.536C400.02 251.723 325.825 253.339 321.949 246.253C320.792 244.141 320.073 240.576 319.599 236.218C319.51 235.366 319.429 234.477 319.355 233.565C318.717 225.68 318.71 215.867 318.45 207.314C318.376 205.017 318.287 202.815 318.161 200.762C317.242 185.688 329.508 185.48 329.508 185.48C346.843 185.073 372.316 185.88 392.134 186.718C402.458 187.155 411.256 187.6 416.592 187.874L421.958 188.171C421.958 188.171 422.128 193.937 422.017 201.911Z" fill="#C4CAF1"/>
<path d="M363.912 236.441C362.429 236.441 360.885 236.424 359.28 236.389C335.333 235.9 321.548 230.512 321.415 230.46C321.367 230.441 321.322 230.413 321.285 230.377C321.248 230.341 321.218 230.298 321.197 230.25C321.177 230.203 321.166 230.152 321.165 230.1C321.164 230.048 321.173 229.997 321.193 229.948C321.211 229.9 321.24 229.856 321.276 229.819C321.311 229.781 321.354 229.751 321.402 229.731C321.449 229.71 321.501 229.699 321.552 229.698C321.604 229.697 321.656 229.707 321.704 229.726C321.845 229.778 335.511 235.114 359.294 235.603C383.078 236.092 396.203 232.698 396.351 232.639C396.401 232.625 396.454 232.622 396.505 232.629C396.557 232.636 396.606 232.653 396.651 232.679C396.696 232.705 396.735 232.74 396.766 232.782C396.797 232.823 396.82 232.87 396.833 232.92C396.847 232.971 396.852 233.023 396.845 233.075C396.839 233.127 396.822 233.177 396.795 233.222C396.769 233.267 396.734 233.306 396.692 233.337C396.65 233.368 396.602 233.39 396.551 233.402C396.411 233.454 384.879 236.441 363.912 236.441Z" fill="#46539E"/>
<path d="M422.017 201.911C422.017 203.623 421.958 205.432 421.906 207.314C421.394 224.249 419.327 246.594 411.982 248.536C400.02 251.723 325.825 253.339 321.948 246.253C320.792 244.141 320.073 240.576 319.599 236.218C319.51 235.366 319.429 234.477 319.354 233.565C322.875 235.915 333.436 238.99 340.699 239.739C370.96 242.837 394.506 238.612 394.506 238.612C390.533 222.233 391.586 196.071 392.134 186.733C402.458 187.17 411.256 187.615 416.592 187.889L422.017 201.911Z" fill="#46539E"/>
<path d="M439.96 190.142C440.265 187.827 440.309 185.485 440.093 183.161C439.833 179.862 438.58 176.72 436.499 174.148C434.418 171.576 431.607 169.695 428.435 168.753C423.077 167.167 415.999 166.188 408.758 168.382C408.224 168.535 407.691 168.713 407.157 168.916C391.697 174.6 393.972 204.157 396.477 220.751C398.982 237.345 399.205 247.358 406.253 248.914C409.492 249.655 414.213 249.707 418.371 249.559C419.238 249.559 420.083 249.485 420.883 249.44C420.883 249.44 429.643 250.182 434.142 246.35C438.641 242.518 439.96 190.142 439.96 190.142Z" fill="#46539E"/>
<path d="M418.37 249.589C414.213 249.737 409.477 249.678 406.253 248.944C399.205 247.358 398.975 237.353 396.477 220.781C393.98 204.209 391.697 174.6 407.157 168.908C407.691 168.711 408.224 168.533 408.758 168.375C411.389 168.997 413.812 170.747 415.117 174.593C418.659 185.013 413.042 221.211 418.37 249.589Z" fill="#C4CAF1"/>
<path d="M409.647 246.832C406.431 246.832 403.941 245.505 402.414 242.985C400.02 239.042 396.581 205.187 396.433 203.757C396.429 203.715 396.433 203.673 396.445 203.632C396.458 203.592 396.478 203.555 396.505 203.522C396.532 203.49 396.565 203.463 396.602 203.444C396.639 203.424 396.68 203.412 396.722 203.408C396.763 203.403 396.806 203.407 396.846 203.418C396.886 203.429 396.923 203.449 396.956 203.475C396.988 203.502 397.015 203.534 397.035 203.571C397.055 203.608 397.067 203.648 397.07 203.69C397.07 204.046 400.65 238.835 402.962 242.652C404.445 245.075 406.764 246.261 409.907 246.187C411.404 246.142 412.884 245.851 414.287 245.327C414.367 245.295 414.456 245.296 414.535 245.329C414.614 245.363 414.676 245.426 414.709 245.505C414.725 245.544 414.733 245.586 414.732 245.627C414.732 245.669 414.723 245.711 414.707 245.749C414.69 245.788 414.666 245.823 414.636 245.852C414.606 245.881 414.57 245.905 414.531 245.92C413.063 246.475 411.513 246.783 409.944 246.832H409.647Z" fill="#46539E"/>
<path d="M412.753 178.262C412.667 178.26 412.586 178.224 412.527 178.163C412.467 178.102 412.434 178.021 412.434 177.935C412.285 176.063 411.41 174.324 409.996 173.088C409.456 172.658 408.821 172.362 408.145 172.227C407.468 172.092 406.768 172.12 406.105 172.31C402.354 173.207 401.25 177.958 401.243 178.01C401.215 178.083 401.162 178.144 401.092 178.181C401.023 178.218 400.943 178.229 400.867 178.212C400.79 178.195 400.722 178.151 400.676 178.088C400.629 178.025 400.607 177.947 400.613 177.869C400.657 177.654 401.806 172.681 405.956 171.688C406.715 171.472 407.515 171.441 408.289 171.597C409.062 171.753 409.787 172.091 410.403 172.584C411.18 173.256 411.816 174.074 412.275 174.993C412.734 175.911 413.007 176.911 413.079 177.935C413.079 177.978 413.07 178.021 413.054 178.06C413.037 178.1 413.013 178.136 412.983 178.166C412.953 178.196 412.917 178.22 412.877 178.237C412.838 178.253 412.795 178.262 412.753 178.262Z" fill="#46539E"/>
<path d="M411.07 180.24C411.07 180.24 410.818 174.563 406.527 175.015C402.236 175.467 402.036 184.835 405.867 186.044C411.478 187.822 411.07 180.24 411.07 180.24Z" fill="#46539E"/>
<path d="M220.68 23.8308H119.492V170.028H220.68V23.8308Z" fill="white"/>
<path d="M215.358 29.1522H124.813V164.714H215.358V29.1522Z" fill="#C4C8E0"/>
<g opacity="0.1">
<path opacity="0.1" d="M185.261 29.1522L124.813 89.5993V74.0577L169.719 29.1522H185.261Z" fill="white"/>
</g>
<g opacity="0.1">
<path opacity="0.1" d="M215.366 31.8943V52.8685L124.813 143.413V122.439L215.366 31.8943Z" fill="white"/>
</g>
<g opacity="0.1">
<path opacity="0.1" d="M215.366 127.471V138.655L189.307 164.714H178.123L215.366 127.471Z" fill="white"/>
</g>
<g opacity="0.1">
<path opacity="0.1" d="M215.366 81.2986V92.1414L142.793 164.714H131.951L215.366 81.2986Z" fill="white"/>
</g>
<path d="M215.366 90.207H124.813V96.5882H215.366V90.207Z" fill="white"/>
<path d="M220.68 170.028H119.492V175.838H220.68V170.028Z" fill="#FFCDB3"/>
<path d="M435.995 59.598H408.921L404.252 32.5243H431.326L435.995 59.598Z" fill="#303683"/>
<path d="M404.252 32.5243L401.117 59.598H408.921L404.252 32.5243Z" fill="#46539E"/>
<path d="M431.326 32.5243L408.921 59.598H435.995L431.326 32.5243Z" fill="#46539E"/>
<path d="M410.522 57.6711L406.512 34.4512H429.732L433.734 57.6711H410.522Z" fill="#E8EBFB"/>
<path d="M410.84 57.2857L406.964 34.8366H429.413L433.282 57.2857H410.84Z" fill="white"/>
<path d="M427.464 37.5862L430.392 54.5361H412.767L409.847 37.5862H427.464Z" fill="#E8EBFB"/>
<path d="M423.025 48.6292C423.161 49.2336 423.157 49.8613 423.013 50.4639C422.869 51.0666 422.588 51.6282 422.193 52.1055C421.798 52.5829 421.299 52.9634 420.734 53.2177C420.169 53.472 419.553 53.5934 418.934 53.5725C417.552 53.5242 416.228 53.0092 415.177 52.1114C414.125 51.2136 413.409 49.9861 413.145 48.6292C413.008 48.0255 413.01 47.3983 413.153 46.7959C413.297 46.1935 413.576 45.632 413.971 45.155C414.366 44.6779 414.865 44.2979 415.43 44.0445C415.995 43.791 416.61 43.6708 417.229 43.6932C418.611 43.7408 419.935 44.2545 420.988 45.1507C422.04 46.047 422.758 47.2729 423.025 48.6292Z" fill="#FFA476"/>
<path d="M414.309 41.7514H411.344L412.515 41.455C412.377 41.3234 412.279 41.1556 412.232 40.9708C412.185 40.786 412.19 40.5916 412.249 40.41C412.493 39.7726 413.22 40.158 413.22 40.158C413.22 40.158 413.182 39.1574 413.961 39.0389C415.021 38.8758 415.502 40.158 415.502 40.158C415.642 40.1435 415.784 40.1628 415.915 40.2142C416.046 40.2657 416.163 40.3479 416.256 40.4538C416.349 40.5598 416.415 40.6865 416.449 40.8233C416.483 40.9601 416.484 41.103 416.451 41.24L417.533 41.7144L414.309 41.7514Z" fill="white"/>
<path d="M425.73 46.8801H422.765L423.936 46.5836C423.798 46.4519 423.7 46.2845 423.651 46.1C423.603 45.9155 423.607 45.7211 423.662 45.5386C423.907 44.9013 424.633 45.2866 424.633 45.2866C424.633 45.2866 424.633 44.2861 425.374 44.1675C426.441 44.0045 426.916 45.2866 426.916 45.2866C427.056 45.2721 427.198 45.2914 427.329 45.3429C427.46 45.3944 427.577 45.4765 427.67 45.5825C427.763 45.6885 427.829 45.8151 427.863 45.9519C427.897 46.0887 427.897 46.2316 427.864 46.3687L428.954 46.843L425.73 46.8801Z" fill="white"/>
<path d="M430.088 52.5498L427.39 54.5731H417.303C417.764 53.3219 418.382 52.134 419.141 51.0379C419.747 49.9671 420.751 49.1787 421.935 48.8441C422.032 48.8362 422.128 48.8362 422.224 48.8441C423.418 48.8441 428.45 51.4159 430.088 52.5498Z" fill="#C4CAF1"/>
<path d="M430.088 52.5499L430.429 54.5732H419.312C419.312 54.5732 424.967 53.2613 424.9 51.4381C424.833 49.6149 422.336 48.896 422.321 48.8886C423.418 48.8442 428.45 51.4159 430.088 52.5499Z" fill="#000033"/>
<path d="M424.9 54.5361H412.768L412.212 51.3196C412.894 49.2815 413.976 46.9691 415.428 46.6578C416.881 46.3466 419.252 48.4366 421.313 50.5266C423.017 52.2534 424.455 53.9951 424.811 54.4324L424.885 54.5213L424.9 54.5361Z" fill="#C4CAF1"/>
<path d="M417.489 49.8669C417.889 47.6435 415.458 46.6578 415.458 46.6578C416.829 46.3539 419.282 48.4365 421.342 50.5265C423.047 52.2534 424.485 53.995 424.841 54.4323L424.915 54.5212H412.797C412.797 54.5212 417.066 52.1051 417.489 49.8669Z" fill="#C4C8E0"/>
<path d="M474.304 70.0926H385.886L384.5 65.1937H475.883L474.304 70.0926Z" fill="#FFDECD"/>
<path d="M475.979 59.3757H384.493V65.2011H475.979V59.3757Z" fill="#303683"/>
<path d="M390.63 65.1937L392.994 70.137H398.553L400.131 65.1937H390.63Z" fill="#46539E"/>
<path d="M468.76 65.1937L466.396 70.137H460.845L459.259 65.1937H468.76Z" fill="#46539E"/>
<path d="M459.133 24.861C459.133 24.861 458.392 17.1383 452.833 18.3167C447.275 19.4951 453.048 27.6328 457.243 28.0479C461.438 28.4629 459.133 24.861 459.133 24.861Z" fill="#46539E"/>
<path d="M462.031 32.5392C462.031 32.5392 471.258 32.3909 470.339 36.2004C469.101 41.3068 461.527 34.1845 461.527 34.1845L462.031 32.5392Z" fill="#46539E"/>
<path d="M444.911 34.4513C444.911 34.4513 438.033 34.8367 439.471 37.8235C441.405 41.8404 445.852 36.1337 445.852 36.1337L444.911 34.4513Z" fill="#46539E"/>
<path d="M459.815 43.2411H445.852V59.3757H459.815V43.2411Z" fill="#8E97CC"/>
<path d="M459.815 46.5244H445.852V47.5991H459.815V46.5244Z" fill="#000033"/>
<path d="M459.815 49.4149H445.852V50.4895H459.815V49.4149Z" fill="#000033"/>
<path d="M447.008 43.2412C447.314 42.0289 448.017 40.9542 449.006 40.1896C449.995 39.4249 451.213 39.0145 452.463 39.0241C457.08 38.8685 459.133 43.2412 459.133 43.2412H447.008Z" fill="#C4CAF1"/>
<path d="M451.277 39.1575C451.277 39.1575 452.885 30.0637 447.43 29.8932C441.976 29.7228 444.785 39.0018 448.646 40.9288L451.277 39.1575Z" fill="#C4CAF1"/>
<path d="M455.613 39.6986C455.613 39.6986 453.893 20.8292 462.698 23.2675C471.503 25.7059 458.844 40.4545 456.991 41.1289C455.138 41.8034 455.613 39.6986 455.613 39.6986Z" fill="#C4CAF1"/>
<path d="M68.0793 62.0512C79.049 62.0512 87.9418 53.1585 87.9418 42.1887C87.9418 31.219 79.049 22.3262 68.0793 22.3262C57.1095 22.3262 48.2168 31.219 48.2168 42.1887C48.2168 53.1585 57.1095 62.0512 68.0793 62.0512Z" fill="#FFDECD"/>
<path d="M68.0793 59.4646C79.049 59.4646 87.9418 50.5719 87.9418 39.6022C87.9418 28.6324 79.049 19.7397 68.0793 19.7397C57.1095 19.7397 48.2168 28.6324 48.2168 39.6022C48.2168 50.5719 57.1095 59.4646 68.0793 59.4646Z" fill="#FD8970"/>
<path d="M70.0557 55.62C78.9038 54.5304 85.1934 46.4743 84.1038 37.6262C83.0143 28.7781 74.9582 22.4885 66.1101 23.578C57.2619 24.6676 50.9724 32.7237 52.0619 41.5718C53.1515 50.4199 61.2076 56.7095 70.0557 55.62Z" fill="white"/>
<path d="M51.9299 39.6021C51.9299 40.032 51.9299 40.4619 51.9818 40.8769C52.2957 36.8236 54.1274 33.0381 57.1109 30.2766C60.0945 27.5151 64.0102 25.9811 68.0756 25.9811C72.141 25.9811 76.0567 27.5151 79.0403 30.2766C82.0238 33.0381 83.8556 36.8236 84.1694 40.8769C84.2065 40.4619 84.2213 40.032 84.2213 39.6021C84.1308 35.3799 82.39 31.3612 79.372 28.4071C76.3539 25.453 72.2988 23.7987 68.0756 23.7987C63.8524 23.7987 59.7973 25.453 56.7792 28.4071C53.7612 31.3612 52.0204 35.3799 51.9299 39.6021Z" fill="#FFDECB"/>
<path d="M66.9305 40.3804C66.9536 40.4387 66.9896 40.4909 67.0358 40.5333C67.082 40.5757 67.1372 40.607 67.1973 40.625L79.9226 44.4344C80.0258 44.4644 80.1366 44.4523 80.231 44.401C80.3254 44.3496 80.3957 44.2631 80.4266 44.1602C80.4565 44.057 80.4445 43.9462 80.3932 43.8518C80.3418 43.7574 80.2553 43.6871 80.1524 43.6562L67.7383 39.9505L68.4127 30.375C68.4073 30.2754 68.3655 30.1813 68.2953 30.1104C68.2251 30.0396 68.1314 29.9969 68.0319 29.9905C67.9323 29.9841 67.8339 30.0145 67.7552 30.0758C67.6765 30.1371 67.6231 30.2251 67.6049 30.3232L66.9305 40.2099C66.9228 40.2665 66.9228 40.3238 66.9305 40.3804Z" fill="#000033"/>
<path d="M69.1909 280.19C91.7976 280.19 110.124 278.919 110.124 277.352C110.124 275.784 91.7976 274.513 69.1909 274.513C46.5843 274.513 28.2579 275.784 28.2579 277.352C28.2579 278.919 46.5843 280.19 69.1909 280.19Z" fill="#FFCDB3" fill-opacity="0.3"/>
<path d="M56.6287 134.816C56.6287 134.816 35.5433 130.651 29.6587 115.939C23.774 101.228 45.2893 90.1922 56.6287 98.0927C68.7611 106.556 56.6287 134.816 56.6287 134.816Z" fill="#C4CAF1"/>
<path d="M69.1539 173.474C69.0616 173.476 68.9717 173.444 68.9018 173.384C68.8318 173.324 68.787 173.239 68.7759 173.148C66.7526 159.489 58.6149 139.797 52.1374 125.715C45.1188 110.44 38.4931 98.2928 38.4264 98.1298C38.4025 98.086 38.3875 98.0379 38.3823 97.9883C38.377 97.9388 38.3815 97.8886 38.3956 97.8408C38.4097 97.793 38.4331 97.7484 38.4645 97.7096C38.4958 97.6708 38.5345 97.6385 38.5783 97.6147C38.6221 97.5909 38.6701 97.5759 38.7197 97.5706C38.7693 97.5653 38.8195 97.5699 38.8673 97.584C38.9151 97.5981 38.9597 97.6215 38.9985 97.6528C39.0373 97.6842 39.0695 97.7228 39.0934 97.7666C39.1601 97.8852 45.8007 110.099 52.8341 125.396C59.3264 139.53 67.4938 159.259 69.5319 173.007C69.5447 173.108 69.5179 173.21 69.4571 173.291C69.3963 173.373 69.3062 173.428 69.2058 173.444L69.1539 173.474Z" fill="#000033"/>
<path d="M55.8134 133.408C55.7449 133.408 55.6776 133.389 55.6189 133.354C55.5602 133.319 55.5121 133.268 55.4799 133.208C46.3046 116.125 31.4151 103.733 31.2669 103.607C31.1893 103.543 31.1402 103.451 31.1304 103.351C31.1207 103.251 31.1511 103.151 31.215 103.073C31.2789 102.996 31.371 102.946 31.4711 102.937C31.5712 102.927 31.671 102.957 31.7486 103.021C31.9043 103.147 46.9049 115.621 56.1469 132.845C56.1944 132.934 56.2047 133.039 56.1756 133.136C56.1464 133.233 56.0802 133.315 55.9912 133.363C55.9366 133.393 55.8754 133.408 55.8134 133.408Z" fill="#000033"/>
<path d="M56.2507 134.631C56.1957 134.631 56.1414 134.619 56.0914 134.596C56.0415 134.573 55.9972 134.539 55.9617 134.497C50.8132 128.38 44.6968 123.147 37.8557 119.008C35.2026 117.373 32.3888 116.014 29.4586 114.954C29.3626 114.921 29.2827 114.853 29.2358 114.763C29.1888 114.674 29.1784 114.569 29.2066 114.472C29.2388 114.376 29.3073 114.297 29.3974 114.251C29.4875 114.205 29.592 114.197 29.6883 114.227C32.6686 115.294 35.5279 116.673 38.2188 118.341C45.1453 122.524 51.3393 127.814 56.5546 134.001C56.6182 134.079 56.6491 134.179 56.6408 134.28C56.6325 134.381 56.5857 134.475 56.5101 134.542C56.4368 134.601 56.3449 134.633 56.2507 134.631Z" fill="#000033"/>
<path d="M54.3978 130.154C54.3184 130.152 54.2414 130.126 54.1767 130.08C54.1121 130.034 54.0626 129.969 54.0347 129.895C48.8986 114.805 50.7885 96.4696 50.8033 96.2769C50.8338 96.1974 50.8898 96.1302 50.9625 96.0858C51.0353 96.0414 51.1207 96.0224 51.2054 96.0317C51.29 96.041 51.3693 96.0782 51.4306 96.1373C51.492 96.1964 51.532 96.2742 51.5445 96.3585C51.5445 96.5438 49.6546 114.716 54.7388 129.643C54.7697 129.738 54.7622 129.842 54.7179 129.932C54.6736 130.022 54.596 130.091 54.5016 130.125L54.3978 130.154Z" fill="#000033"/>
<path d="M55.6874 133.141C55.5979 133.14 55.5115 133.108 55.4437 133.05C55.3758 132.991 55.3309 132.911 55.3168 132.822C54.0558 125.441 54.3715 117.876 56.2433 110.625C56.9568 107.712 58.0403 104.903 59.4672 102.265C59.4924 102.221 59.5262 102.183 59.5666 102.152C59.6069 102.122 59.653 102.1 59.7021 102.087C59.7511 102.075 59.8022 102.072 59.8523 102.08C59.9023 102.088 59.9503 102.105 59.9934 102.132C60.0786 102.184 60.1401 102.267 60.165 102.364C60.1899 102.461 60.1762 102.564 60.1268 102.651C58.7321 105.241 57.6713 107.998 56.9696 110.855C55.1335 117.991 54.8254 125.433 56.0654 132.696C56.0739 132.746 56.0725 132.796 56.0615 132.845C56.0504 132.893 56.0298 132.939 56.0008 132.98C55.9719 133.02 55.9352 133.055 55.8928 133.081C55.8505 133.108 55.8033 133.126 55.7541 133.134L55.6874 133.141Z" fill="#000033"/>
<path d="M78.8702 138.677C78.8702 138.677 100.163 135.765 106.907 121.424C113.652 107.083 92.8702 94.7946 81.012 102.013C68.4127 109.736 78.8702 138.677 78.8702 138.677Z" fill="#C4CAF1"/>
<path d="M70.7918 172.229C70.7421 172.228 70.6932 172.217 70.6477 172.197C70.6022 172.177 70.5611 172.149 70.5267 172.113C70.4922 172.077 70.4652 172.035 70.4471 171.988C70.429 171.942 70.4202 171.893 70.4212 171.843C70.5027 164.802 72.0369 156.791 74.9792 148.016C77.6107 140.345 80.8319 132.889 84.614 125.715C88.7523 117.761 93.4067 110.086 98.5474 102.74C98.5736 102.691 98.6099 102.649 98.6538 102.616C98.6977 102.582 98.7483 102.559 98.802 102.547C98.8558 102.535 98.9115 102.534 98.9655 102.546C99.0194 102.557 99.0703 102.58 99.1147 102.612C99.1591 102.645 99.196 102.687 99.2229 102.735C99.2497 102.783 99.266 102.836 99.2705 102.891C99.2751 102.946 99.2678 103.001 99.2491 103.053C99.2305 103.105 99.201 103.152 99.1625 103.192C94.0408 110.516 89.4061 118.168 85.2884 126.1C78.9591 138.255 71.3773 156.087 71.1772 171.873C71.1681 171.969 71.1237 172.059 71.0526 172.125C70.9814 172.19 70.8886 172.227 70.7918 172.229Z" fill="#000033"/>
<path d="M79.767 137.299C79.6991 137.3 79.6322 137.282 79.5733 137.249C79.5144 137.215 79.4657 137.166 79.4323 137.107C79.3989 137.047 79.3821 136.98 79.3836 136.913C79.3851 136.845 79.4049 136.778 79.4409 136.721C89.6908 120.082 105.381 108.506 105.566 108.394C105.606 108.364 105.652 108.342 105.701 108.33C105.75 108.318 105.8 108.316 105.85 108.323C105.9 108.331 105.947 108.348 105.99 108.374C106.033 108.401 106.07 108.435 106.1 108.476C106.158 108.559 106.181 108.661 106.164 108.761C106.148 108.861 106.093 108.95 106.011 109.01C105.855 109.121 90.2541 120.608 80.0708 137.121C80.0384 137.173 79.9938 137.216 79.9409 137.247C79.888 137.278 79.8283 137.296 79.767 137.299Z" fill="#000033"/>
<path d="M79.2778 138.522C79.204 138.52 79.1324 138.497 79.0714 138.455C79.0105 138.413 78.9627 138.355 78.9338 138.287C78.9049 138.219 78.8962 138.145 78.9085 138.072C78.9209 137.999 78.9539 137.932 79.0036 137.877C84.5713 132.008 91.0632 127.091 98.2213 123.321C100.997 121.812 103.923 120.598 106.952 119.697C107.001 119.685 107.052 119.682 107.102 119.69C107.152 119.697 107.2 119.715 107.244 119.741C107.287 119.767 107.325 119.802 107.355 119.842C107.385 119.883 107.407 119.929 107.419 119.979C107.431 120.027 107.433 120.078 107.426 120.127C107.418 120.177 107.4 120.225 107.374 120.267C107.348 120.31 107.314 120.347 107.273 120.376C107.232 120.406 107.186 120.427 107.137 120.438C104.149 121.324 101.261 122.517 98.5177 123.995C91.4445 127.72 85.0301 132.58 79.5298 138.381C79.4672 138.459 79.3769 138.509 79.2778 138.522Z" fill="#000033"/>
<path d="M81.3975 134.134C81.3483 134.141 81.2984 134.141 81.2493 134.134C81.2025 134.115 81.1601 134.086 81.1244 134.05C81.0887 134.015 81.0604 133.972 81.0411 133.925C81.0218 133.878 81.012 133.828 81.0121 133.778C81.0122 133.727 81.0223 133.677 81.0417 133.63C86.9708 119.037 86.2297 100.783 86.2297 100.598C86.2527 100.517 86.3013 100.446 86.3682 100.396C86.435 100.345 86.5165 100.318 86.6003 100.318C86.684 100.318 86.7655 100.345 86.8323 100.396C86.8992 100.446 86.9478 100.517 86.9708 100.598C86.9708 100.776 87.7787 119.193 81.7829 133.949C81.7448 134.015 81.6877 134.068 81.6189 134.101C81.5501 134.134 81.4729 134.146 81.3975 134.134Z" fill="#000033"/>
<path d="M79.93 137.039H79.8411C79.743 137.015 79.6582 136.953 79.6044 136.868C79.5506 136.782 79.5318 136.679 79.552 136.58C81.2227 129.404 81.3566 121.955 79.9448 114.724C79.4089 111.833 78.5152 109.019 77.2841 106.349C77.2379 106.26 77.2292 106.155 77.2598 106.06C77.2903 105.964 77.3578 105.884 77.4472 105.838C77.5366 105.791 77.6407 105.783 77.7367 105.813C77.8326 105.844 77.9124 105.911 77.9586 106.001C79.2268 108.719 80.1433 111.588 80.686 114.539C82.1268 121.894 81.9955 129.471 80.3006 136.773C80.2753 136.851 80.2257 136.919 80.1591 136.967C80.0924 137.015 80.0121 137.04 79.93 137.039Z" fill="#000033"/>
<path d="M70.6732 110.937C70.6732 110.937 52.6265 99.2415 52.6117 83.4108C52.5969 67.5801 76.6616 65.2826 84.2657 76.8221C92.4108 89.162 70.6732 110.937 70.6732 110.937Z" fill="#C4CAF1"/>
<path d="M68.1459 151.499H68.057C67.9593 151.474 67.8751 151.413 67.8225 151.327C67.7698 151.241 67.7529 151.138 67.7753 151.04C70.9622 137.603 70.6732 116.325 69.8802 100.842C69.013 84.0555 67.3677 70.2778 67.3529 70.1444C67.3422 70.0435 67.371 69.9425 67.4332 69.8624C67.4953 69.7822 67.5861 69.7293 67.6864 69.7145C67.7864 69.704 67.8866 69.733 67.9655 69.7953C68.0444 69.8576 68.0959 69.9483 68.1088 70.048C68.1088 70.1888 69.7764 83.9888 70.6435 100.805C71.444 116.369 71.7256 137.692 68.5165 151.203C68.4978 151.287 68.4509 151.362 68.3835 151.416C68.3161 151.47 68.2322 151.499 68.1459 151.499Z" fill="#000033"/>
<path d="M70.6362 109.343C70.5436 109.342 70.4545 109.308 70.3851 109.247C70.3157 109.186 70.2706 109.101 70.2582 109.01C68.0348 89.7401 58.8224 72.694 58.7261 72.5457C58.6907 72.4578 58.689 72.3599 58.7212 72.2708C58.7535 72.1817 58.8175 72.1075 58.9009 72.0626C58.9844 72.0177 59.0815 72.0051 59.1736 72.0272C59.2658 72.0493 59.3466 72.1047 59.4005 72.1826C59.4894 72.3531 68.8055 89.503 71.0215 108.921C71.0319 109.022 71.0019 109.123 70.9381 109.202C70.8742 109.281 70.7817 109.332 70.6806 109.343H70.6362Z" fill="#000033"/>
<path d="M70.5398 110.633C70.4593 110.635 70.3803 110.611 70.3148 110.564C70.2493 110.517 70.2008 110.45 70.1766 110.373C67.6492 102.784 63.8936 95.6611 59.0596 89.288C57.2035 86.7834 55.0923 84.4785 52.7599 82.4102C52.6897 82.3429 52.6476 82.2516 52.6419 82.1545C52.6362 82.0574 52.6675 81.9618 52.7293 81.8868C52.7912 81.8118 52.8792 81.7629 52.9756 81.75C53.072 81.7372 53.1697 81.7612 53.2491 81.8173C55.6181 83.9179 57.764 86.2575 59.6525 88.7988C64.5315 95.2505 68.3196 102.459 70.8659 110.136C70.8822 110.183 70.889 110.233 70.8859 110.283C70.8827 110.333 70.8698 110.382 70.8477 110.426C70.8257 110.471 70.795 110.511 70.7574 110.544C70.7198 110.577 70.6761 110.602 70.6287 110.618C70.5999 110.627 70.57 110.632 70.5398 110.633Z" fill="#000033"/>
<path d="M70.4731 105.786C70.3722 105.78 70.2775 105.735 70.2096 105.66C70.1417 105.585 70.1059 105.486 70.1099 105.385C70.9252 89.4732 79.4705 73.1386 79.5594 72.9755C79.5821 72.9311 79.6134 72.8916 79.6515 72.8593C79.6895 72.827 79.7336 72.8026 79.7812 72.7875C79.8287 72.7723 79.8788 72.7667 79.9285 72.771C79.9782 72.7753 80.0266 72.7894 80.0708 72.8125C80.1597 72.8612 80.2263 72.9424 80.2566 73.0391C80.287 73.1358 80.2789 73.2404 80.2339 73.3313C80.1449 73.4943 71.6811 89.6808 70.8733 105.43C70.8705 105.48 70.8579 105.528 70.8362 105.573C70.8145 105.618 70.7842 105.658 70.7471 105.691C70.7099 105.724 70.6665 105.749 70.6195 105.766C70.5725 105.782 70.5227 105.789 70.4731 105.786Z" fill="#000033"/>
<path d="M70.5695 109.039H70.488C70.4387 109.03 70.3919 109.01 70.3504 108.982C70.3089 108.954 70.2736 108.917 70.2466 108.875C70.2196 108.833 70.2014 108.786 70.1932 108.736C70.185 108.687 70.187 108.636 70.1989 108.587C71.7723 101.233 74.8729 94.2923 79.3001 88.2133C81.0522 85.7437 83.1062 83.5029 85.4145 81.5431C85.4946 81.4825 85.5952 81.4555 85.6948 81.468C85.7945 81.4805 85.8854 81.5314 85.9481 81.6098C85.98 81.6487 86.0037 81.6937 86.0177 81.742C86.0317 81.7904 86.0357 81.841 86.0294 81.891C86.0232 81.9409 86.0068 81.989 85.9814 82.0324C85.9559 82.0758 85.9219 82.1136 85.8814 82.1434C83.6295 84.079 81.6189 86.2787 79.893 88.6951C75.5428 94.6827 72.4932 101.514 70.9401 108.75C70.92 108.833 70.8724 108.907 70.8052 108.959C70.7379 109.012 70.6548 109.04 70.5695 109.039Z" fill="#000033"/>
<path d="M89.3572 147.578L88.5568 154.36L88.4308 155.486L88.0454 158.71L87.9194 159.837L87.5266 163.15L87.4006 164.276L84.5398 188.66C74.3513 190.003 64.0305 190.003 53.8419 188.66L50.9811 164.276L50.8477 163.15L50.4623 159.837L50.3289 158.71L49.951 155.486L49.8176 154.36L49.0245 147.578H89.3572Z" fill="#434F97"/>
<path d="M88.5569 154.367L88.4309 155.486H49.9511L49.8251 154.367H88.5569Z" fill="#000033"/>
<path d="M88.0529 158.71L87.9195 159.837H50.4624L50.329 158.71H88.0529Z" fill="#000033"/>
<path d="M87.5342 163.15L87.4008 164.276H50.9813L50.8479 163.15H87.5342Z" fill="#000033"/>
<path d="M87.1414 174.941H51.2407L50.8479 172.014H87.5342L87.1414 174.941Z" fill="#291D2C"/>
<path d="M91.3732 224.694H47.2829L46.8086 221.774H91.8549L91.3732 224.694Z" fill="#291D2C"/>
<path d="M53.6419 174.941L37.0701 277.352H39.3454L56.3693 174.941H53.6419Z" fill="#291D2C"/>
<path d="M84.777 174.941L101.349 277.352H99.0736L82.0422 174.941H84.777Z" fill="#291D2C"/>
<path d="M275.416 72.2345C274.922 71.2308 274.128 70.406 273.144 69.8746C272.16 69.3433 271.034 69.1319 269.924 69.2699C263.625 70.0852 259.408 77.5781 263.447 83.6628C269.606 92.927 278.492 103.874 285.925 110.737C297.465 121.372 316.949 132.326 316.949 132.326L321.003 126.775C321.003 126.775 310.502 117.184 303.216 110.373C298.942 106.352 294.243 102.809 289.201 99.8048L275.416 72.2345Z" fill="#FF9A88"/>
<path d="M289.209 100.153C289.22 100.104 289.22 100.054 289.209 100.005C289.196 99.9189 289.15 99.8413 289.081 99.7887C289.011 99.7361 288.924 99.7126 288.838 99.7232C286.66 100.127 284.598 101.005 282.798 102.295C282.728 102.347 282.682 102.425 282.669 102.511C282.657 102.597 282.679 102.685 282.731 102.754C282.783 102.824 282.861 102.87 282.947 102.883C283.033 102.895 283.121 102.873 283.191 102.821C284.905 101.598 286.865 100.763 288.934 100.375C288.996 100.368 289.055 100.343 289.103 100.303C289.152 100.264 289.188 100.212 289.209 100.153Z" fill="#FD8970"/>
<path d="M288.179 100.724C287.663 101.418 287.218 102.163 286.852 102.947C286.82 103.021 286.763 103.081 286.691 103.117C286.62 103.154 286.538 103.164 286.459 103.147C286.413 103.135 286.369 103.112 286.333 103.081C286.296 103.05 286.267 103.011 286.247 102.967C286.227 102.923 286.217 102.875 286.218 102.827C286.219 102.778 286.23 102.731 286.252 102.688C286.638 101.864 287.107 101.082 287.652 100.353C287.698 100.292 287.765 100.249 287.84 100.233C287.914 100.216 287.993 100.228 288.06 100.264C288.099 100.286 288.133 100.315 288.16 100.35C288.188 100.385 288.207 100.425 288.218 100.468C288.23 100.511 288.232 100.556 288.225 100.6C288.218 100.644 288.202 100.686 288.179 100.724Z" fill="#FD8970"/>
<path d="M276.217 133.334C275.475 133.541 274.697 133.734 273.941 133.919L273 134.142C263.255 136.401 253.192 136.953 243.258 135.772L242.302 135.654C240.054 135.377 237.826 134.956 235.632 134.394C236.24 132.03 236.615 129.612 236.751 127.175C236.795 126.352 236.825 125.552 236.855 124.796C236.899 123.38 236.907 122.091 236.899 121.031V120.972C236.899 120.23 236.899 119.645 236.899 119.163C241.613 118.266 250.299 116.71 258.348 115.717C264.195 114.976 269.702 114.568 273.111 114.909L273.311 116.176L273.593 118.052L273.837 119.46L274.371 122.528L276.209 133.119L276.217 133.334Z" fill="#FF9A88"/>
<path d="M260.727 122.491C260.727 123.506 260.371 124.322 259.949 124.314C259.526 124.307 259.207 123.491 259.207 122.476C259.207 121.461 259.571 120.645 259.986 120.653C260.401 120.66 260.734 121.476 260.727 122.491Z" fill="#FD8970"/>
<path d="M273.563 118.007C270.739 118.215 266.997 118.578 262.802 119.23C254.701 120.49 244.911 122.824 236.751 127.138C236.795 126.315 236.825 125.515 236.855 124.759C236.899 123.343 236.906 122.054 236.899 120.994V120.935C236.899 120.193 236.899 119.608 236.899 119.126C241.613 118.229 250.299 116.673 258.348 115.68C264.195 114.939 269.702 114.531 273.111 114.872L273.311 116.139L273.563 118.007Z" fill="#FD8970"/>
<path d="M275.549 116.666C275.646 117.262 275.52 117.873 275.194 118.381C274.869 118.89 274.367 119.261 273.785 119.423L273.281 116.132C274.061 116.186 274.827 116.366 275.549 116.666Z" fill="#AFB7E3"/>
<path d="M236.855 124.751C232.245 124.544 233.149 121.957 233.149 121.957L236.855 120.927V120.986V124.751Z" fill="#AFB7E3"/>
<path d="M281.078 99.4935C281.078 99.7973 281.019 100.101 280.967 100.412C280.967 100.538 280.923 100.664 280.893 100.79C280.152 103.925 277.091 107.75 275.705 109.217L275.283 109.64L275.12 109.788L274.897 109.988V110.047C274.897 110.188 274.897 110.336 274.897 110.499C274.897 110.662 274.934 111.055 274.957 111.366C274.979 111.678 275.023 112.204 275.068 112.671V112.738C275.127 113.382 275.201 114.094 275.29 114.85C275.357 115.428 275.423 116.036 275.505 116.666C274.761 116.453 274.007 116.28 273.244 116.147C269.087 115.406 263.98 115.584 258.733 116.236C251.336 117.26 244.026 118.833 236.862 120.942C235.461 121.342 234.209 121.72 233.156 122.046V121.972C233.216 121.194 233.268 120.438 233.305 119.697C233.394 117.866 233.431 116.147 233.401 114.509C233.401 112.997 233.334 111.567 233.201 110.218C233.201 110.218 233.201 110.158 233.201 110.129C232.683 105.266 231.786 100.451 230.518 95.7285C230.34 95.0244 230.147 94.3055 229.955 93.594L229.777 92.9789C229.777 92.8677 229.717 92.7491 229.68 92.6305C229.643 92.512 229.629 92.4601 229.606 92.3711C229.532 92.0969 229.458 91.8375 229.377 91.5707C229.295 91.3039 229.228 91.0519 229.147 90.8296C229.006 90.3478 228.858 89.8661 228.71 89.3918C228.621 89.1027 228.524 88.8137 228.435 88.5321C228.131 87.5982 227.82 86.6718 227.501 85.7602C227.309 85.2192 227.131 84.6707 226.968 84.1297C226.805 83.5887 226.723 83.2552 226.605 82.8179C226.494 82.3806 226.397 81.9433 226.301 81.5061C226.256 81.2911 226.212 81.0688 226.175 80.8539C226.056 80.2017 225.953 79.5569 225.886 78.9195C225.748 77.689 225.728 76.4481 225.827 75.2138C225.827 75.0359 225.827 74.8581 225.878 74.6802C225.878 74.4949 225.93 74.3096 225.96 74.1318L226.004 73.8575L226.064 73.5833C226.064 73.4944 226.101 73.4054 226.116 73.3165C226.134 73.2581 226.149 73.1987 226.16 73.1386V73.0571L226.227 72.8125C226.25 72.7094 226.279 72.6078 226.316 72.5087C226.382 72.2715 226.464 72.0417 226.545 71.8194V71.7823L226.642 71.5378L226.746 71.3006C226.781 71.2146 226.82 71.1305 226.864 71.0486L227.086 70.6039L227.235 70.352C227.272 70.2853 227.309 70.2185 227.353 70.1518C227.398 70.0851 227.539 69.8628 227.642 69.722L227.791 69.5145L227.924 69.3514L227.968 69.2921L228.102 69.1291C228.228 68.9808 228.361 68.8326 228.495 68.6992L228.65 68.5436L228.843 68.3583L229.043 68.1804L229.251 68.01L229.391 67.8988C229.809 67.5798 230.252 67.2971 230.718 67.0539L230.896 66.965L231.311 66.7723L231.511 66.6833C231.8 66.5573 232.111 66.4462 232.43 66.3424H232.489L232.749 66.2683L233.119 66.1645L234.038 65.9274L234.943 65.705C238.693 64.7934 241.857 64.2228 243.013 64.0078L243.228 63.9708H243.332H243.488L245.022 64.2005L259.178 66.3424L259.652 66.4165L260.519 66.5499L260.875 66.6018L262.528 66.8538C264.553 67.1989 266.559 67.6467 268.538 68.1952C269.739 68.5234 270.904 68.9729 272.014 69.5367C272.638 69.8531 273.219 70.2492 273.741 70.7151L273.86 70.8263C273.998 70.9572 274.129 71.0958 274.252 71.2413L274.341 71.3451C274.633 71.7051 274.882 72.0981 275.083 72.5161L275.216 72.7977C275.297 72.9904 275.372 73.1831 275.438 73.3832C275.438 73.4647 275.498 73.5463 275.52 73.6278C275.542 73.7093 275.601 73.8872 275.631 74.0206L275.742 74.4579L275.853 74.9766C275.853 75.1175 275.905 75.2657 275.927 75.4065C275.95 75.5473 275.964 75.6511 275.987 75.7771C276.053 76.2069 276.105 76.6516 276.165 77.1185C276.165 77.2519 276.165 77.3779 276.209 77.5039C276.253 77.6299 276.209 77.7263 276.209 77.83L276.253 78.208C276.305 78.6823 276.357 79.1863 276.417 79.6903C276.413 79.7124 276.413 79.7349 276.417 79.757C276.417 79.8608 276.417 79.9719 276.454 80.0831C276.45 80.1448 276.45 80.2067 276.454 80.2684C276.454 80.3351 276.454 80.4092 276.454 80.4833C276.454 80.5574 276.454 80.6834 276.454 80.7872C276.457 80.8192 276.457 80.8515 276.454 80.8835C276.572 81.8766 276.735 82.8549 276.921 83.8481L276.965 84.0408C277.165 85.0635 277.387 86.0789 277.639 87.072C279.292 92.8899 281.308 95.9582 281.078 99.4935Z" fill="#C4CAF1"/>
<path d="M256.206 75.4436C251.018 75.4436 246.282 71.7824 246.067 71.6119C246.028 71.5828 245.995 71.5461 245.97 71.5039C245.946 71.4618 245.93 71.4151 245.923 71.3667C245.917 71.3183 245.921 71.2691 245.934 71.2221C245.947 71.1751 245.97 71.1312 246 71.0931C246.061 71.0168 246.15 70.9677 246.247 70.9566C246.345 70.9455 246.442 70.9732 246.519 71.0338C246.578 71.0709 251.907 75.1694 257.132 74.658C262.357 74.1466 263.654 70.137 263.669 70.1C263.683 70.0521 263.706 70.0074 263.737 69.9687C263.769 69.9299 263.807 69.8979 263.851 69.8745C263.895 69.8511 263.944 69.8368 263.993 69.8325C264.043 69.8282 264.093 69.8339 264.14 69.8494C264.188 69.8649 264.231 69.8897 264.269 69.9225C264.307 69.9552 264.337 69.9952 264.359 70.0401C264.381 70.0849 264.393 70.1337 264.395 70.1835C264.398 70.2332 264.39 70.283 264.373 70.3297C263.776 71.7632 262.787 72.9992 261.519 73.8959C260.252 74.7925 258.757 75.3136 257.206 75.3991C256.86 75.4288 256.527 75.4436 256.206 75.4436Z" fill="#AFB7E3"/>
<path d="M235.632 119.252H235.572C235.524 119.246 235.477 119.23 235.435 119.205C235.392 119.18 235.356 119.147 235.327 119.107C235.298 119.068 235.277 119.023 235.265 118.975C235.254 118.928 235.253 118.878 235.261 118.83C237.262 106.275 231.704 88.2208 231.652 88.0429C231.621 87.9495 231.629 87.8479 231.674 87.7604C231.718 87.6728 231.796 87.6065 231.889 87.576C231.983 87.5479 232.085 87.5578 232.172 87.6035C232.259 87.6491 232.325 87.727 232.356 87.8206C232.415 88.0058 238.026 106.223 235.995 118.948C235.981 119.034 235.936 119.112 235.87 119.168C235.803 119.223 235.719 119.253 235.632 119.252Z" fill="#AFB7E3"/>
<path d="M249.625 78.0375L250.61 85.019C250.61 85.019 261.142 84.063 268.131 84.0556L266.648 77.6003C266.648 77.6003 256.562 77.2223 249.625 78.0375Z" fill="#AFB7E3"/>
<path d="M260.934 66.461C260.292 67.7788 259.266 68.8711 257.99 69.5935C256.715 70.316 255.25 70.6347 253.79 70.5076C248.335 70.0777 244.496 65.9348 243.288 63.8744L243.547 63.83L260.934 66.461Z" fill="#AFB7E3"/>
<path d="M249.387 110.692C249.42 110.756 249.469 110.81 249.529 110.85C249.588 110.89 249.657 110.915 249.728 110.922C249.798 110.926 249.867 110.91 249.928 110.877C254.61 108.884 259.813 108.47 264.751 109.699C268.065 110.66 271.541 110.933 274.964 110.499C274.964 110.344 274.964 110.188 274.964 110.047V109.988C274.964 109.988 275.105 109.869 275.342 109.64C271.871 110.152 268.329 109.899 264.966 108.899C259.852 107.591 254.448 108.026 249.61 110.136C249.557 110.156 249.509 110.187 249.469 110.227C249.429 110.266 249.398 110.313 249.377 110.365C249.356 110.418 249.346 110.474 249.348 110.53C249.35 110.586 249.363 110.641 249.387 110.692Z" fill="#AFB7E3"/>
<path d="M244.548 34.2511C246.438 35.1776 247.705 35.1553 249.595 33.9102C252.62 31.9598 255.292 29.5087 257.495 26.6619C257.609 25.2943 257.445 23.918 257.014 22.6153C256.573 21.2795 255.844 20.0565 254.88 19.0322C253.916 18.0079 252.74 17.2071 251.433 16.6862C251.433 16.6862 241.124 11.9725 234.572 21.2368C228.02 30.501 238.641 40.1135 233.09 46.2427C227.539 52.3719 217.993 54.914 218.793 63.0221C218.793 63.0221 220.705 57.9675 229.295 57.6414C237.129 57.345 244.6 52.4535 245.23 47.2655C245.86 42.0775 243.236 35.9928 244.548 34.2511Z" fill="#2F2F2F"/>
<path d="M257.495 26.6619C255.292 29.5087 252.621 31.9598 249.595 33.9103C248.725 34.4702 247.72 34.7833 246.686 34.8159C245.652 34.8486 244.628 34.5996 243.725 34.0956C244.674 25.3279 254.168 22.3485 257.014 22.6153C257.445 23.918 257.609 25.2944 257.495 26.6619Z" fill="#FFA476"/>
<path d="M253.508 55.7293C253.508 55.7293 245.571 53.6986 243.814 45.4349C242.154 37.564 244.073 33.6656 246.593 29.6338C248.483 26.5952 254.123 22.6894 261.549 24.6979C268.976 26.7064 274.475 30.9901 274.89 37.2972C275.727 49.0813 265.381 62.733 253.508 55.7293Z" fill="#2F2F2F"/>
<path d="M269.643 48.4884C269.643 48.4884 272.392 46.5837 272.911 49.3703C273.43 52.157 271.162 56.8929 268.212 55.2179L269.643 48.4884Z" fill="#FD8970"/>
<path d="M271.258 57.1894C270.853 57.4899 270.413 57.7389 269.946 57.9305C268.153 58.6717 265.915 58.5901 263.373 56.93C263.373 56.93 260.363 52.1571 266.159 44.7753C266.159 44.7753 270.917 43.9897 273.304 47.0506C273.583 47.4033 273.816 47.7892 274 48.1994C274.124 48.4808 274.228 48.7706 274.312 49.0665C275.031 51.5641 273.8 55.2847 271.258 57.1894Z" fill="#46539E"/>
<path d="M271.258 57.1894C270.853 57.4899 270.413 57.7389 269.946 57.9305C271.942 54.6345 273.095 50.8979 273.304 47.0506C273.582 47.4033 273.816 47.7892 274 48.1994C273.689 51.3478 272.757 54.4033 271.258 57.1894Z" fill="#000033"/>
<path d="M260.957 59.7019L258.911 67.9581C258.911 67.9581 253.96 72.9312 244.829 64.6823C246.801 61.4954 249.046 55.4033 248.935 52.5795C249.575 53.0561 250.17 53.5894 250.714 54.173C250.949 54.3874 251.197 54.5878 251.455 54.7733C253.849 56.6187 257.503 59.0497 260.957 59.7019Z" fill="#FF9A88"/>
<path d="M260.957 59.7018L260.215 62.9183C257.488 61.4879 252.685 58.4715 250.714 54.1729L251.455 54.7732C253.849 56.6187 257.503 59.0496 260.957 59.7018Z" fill="#2F2F2F"/>
<path d="M271.733 49.0443C271.54 49.7854 271.355 50.408 271.177 51.0305C269.828 55.7071 268.813 58.1899 267.367 59.057C260.067 63.4149 249.298 52.9426 248.958 52.6017C248.958 52.0385 249.017 51.49 249.061 50.9416C249.409 46.6617 250.393 42.4577 251.981 38.4682C252.408 36.444 253.471 34.6095 255.015 33.2332C256.56 31.8569 258.504 31.0111 260.564 30.8197C264.936 30.4417 268.034 33.1617 270.006 34.4068C272.97 36.2819 273.882 41.0177 272.289 47.0061C272.096 47.7374 271.911 48.4168 271.733 49.0443Z" fill="#FF9A88"/>
<path d="M265.395 53.0553C265.143 53.1753 264.802 53.2366 264.412 53.2321C264.021 53.2275 263.597 53.1574 263.189 53.0297C262.78 52.902 262.404 52.722 262.103 52.5105C261.802 52.299 261.59 52.0647 261.49 51.8346C261.389 51.6045 261.406 51.3881 261.537 51.2103C261.668 51.0326 261.909 50.9008 262.231 50.8302C262.554 50.7596 262.944 50.753 263.358 50.8113C263.772 50.8696 264.192 50.9903 264.57 51.1596C265.117 51.4468 265.509 51.8062 265.664 52.1606C265.818 52.515 265.722 52.8362 265.395 53.0553Z" fill="white"/>
<path d="M264.618 39.0982C264.76 39.1371 264.891 39.2112 264.997 39.3137C265.103 39.4161 265.182 39.5437 265.226 39.6846C265.271 39.8255 265.279 39.9752 265.25 40.1201C265.222 40.265 265.157 40.4003 265.062 40.5137C264.321 41.4846 262.298 39.6466 260.06 41.1882C260.06 41.1882 260.037 38.3867 264.618 39.0982Z" fill="#2F2F2F"/>
<path d="M261.95 47.4656C261.794 48.0141 260.534 48.1549 259.133 47.7769C257.733 47.3989 256.71 46.643 256.865 46.0871C257.021 45.5313 258.274 45.3979 259.674 45.7758C261.075 46.1538 262.098 46.9098 261.95 47.4656Z" fill="#FD8970"/>
<g opacity="0.8">
<path opacity="0.8" d="M271.733 49.0443C271.54 49.7854 271.355 50.408 271.177 51.0305C269.902 50.6303 269.013 49.9336 269.154 49.4148C269.294 48.896 270.421 48.733 271.733 49.0443Z" fill="#FD8970"/>
</g>
<path d="M262.617 44.3974C262.409 45.1385 261.876 45.6795 261.475 45.561C261.075 45.4424 260.868 44.7383 261.075 43.9823C261.283 43.2264 261.816 42.7002 262.216 42.8113C262.617 42.9225 262.832 43.6118 262.617 44.3974Z" fill="#2F2F2F"/>
<path d="M270.139 46.4058C269.932 47.1469 269.398 47.688 268.998 47.5694C268.598 47.4508 268.39 46.7467 268.598 45.9908C268.805 45.2348 269.339 44.7086 269.739 44.8198C270.139 44.9309 270.339 45.6424 270.139 46.4058Z" fill="#2F2F2F"/>
<path d="M266.574 48.5625C266.787 48.6213 267.006 48.6561 267.227 48.6663C267.271 48.6665 267.315 48.6574 267.356 48.6396C267.397 48.6217 267.434 48.5955 267.464 48.5625C267.494 48.5298 267.518 48.4913 267.533 48.4493C267.548 48.4073 267.555 48.3626 267.553 48.318L267.293 44.6938C267.286 44.6086 267.245 44.5297 267.18 44.4742C267.115 44.4188 267.03 44.3912 266.945 44.3973C266.903 44.3992 266.861 44.4096 266.823 44.4279C266.785 44.4463 266.751 44.4722 266.723 44.5041C266.696 44.536 266.675 44.5732 266.662 44.6135C266.649 44.6537 266.644 44.6962 266.648 44.7383L266.878 47.9622C266.428 47.8696 266.01 47.6571 265.67 47.3471C265.641 47.3173 265.605 47.2936 265.567 47.2775C265.528 47.2613 265.486 47.253 265.444 47.253C265.402 47.253 265.361 47.2613 265.322 47.2775C265.283 47.2936 265.248 47.3173 265.218 47.3471C265.157 47.4081 265.123 47.4907 265.123 47.5768C265.123 47.6629 265.157 47.7455 265.218 47.8066C265.602 48.165 266.068 48.4245 266.574 48.5625Z" fill="#2F2F2F"/>
<path d="M252.241 50.193C252.181 50.2671 250.558 52.3126 248.943 52.6017C248.943 52.0384 249.002 51.49 249.046 50.9415C250.16 50.9947 251.267 50.7354 252.241 50.193Z" fill="#2F2F2F"/>
<path d="M252.293 44.5455C252.293 44.5455 250.358 39.6466 247.275 42.248C244.725 44.3973 246.326 52.2089 250.595 50.8304L252.293 44.5455Z" fill="#FF9A88"/>
<path d="M250.506 49.4963C250.592 49.5071 250.678 49.4847 250.747 49.4336C250.816 49.3825 250.862 49.3068 250.877 49.2221C251.042 48.1769 250.931 47.1068 250.555 46.1175C250.18 45.1283 249.552 44.2544 248.735 43.5821C248.701 43.5528 248.662 43.5307 248.619 43.5173C248.577 43.5038 248.532 43.4993 248.487 43.5039C248.443 43.5085 248.4 43.5222 248.361 43.5441C248.322 43.5661 248.288 43.5958 248.261 43.6314C248.234 43.667 248.215 43.7078 248.204 43.7512C248.194 43.7946 248.192 43.8397 248.2 43.8837C248.207 43.9277 248.224 43.9697 248.248 44.0071C248.273 44.0444 248.305 44.0764 248.342 44.1009C249.069 44.7003 249.627 45.4794 249.96 46.3609C250.292 47.2423 250.389 48.1955 250.24 49.1258C250.232 49.1677 250.233 49.2107 250.243 49.2522C250.252 49.2936 250.27 49.3328 250.295 49.3674C250.32 49.4019 250.351 49.4311 250.388 49.4533C250.424 49.4754 250.464 49.4901 250.506 49.4963Z" fill="#2F2F2F"/>
<path d="M248.105 46.8135C248.175 46.8356 248.25 46.8356 248.32 46.8135C248.877 46.5321 249.518 46.4661 250.121 46.6282C250.196 46.6713 250.285 46.683 250.368 46.6607C250.451 46.6385 250.522 46.5842 250.566 46.5096C250.587 46.4722 250.6 46.4309 250.605 46.3883C250.61 46.3456 250.607 46.3024 250.595 46.2611C250.583 46.2198 250.564 46.1812 250.537 46.1475C250.51 46.1138 250.477 46.0858 250.44 46.0649C249.573 45.5758 248.216 46.1539 248.061 46.2206C248.022 46.2374 247.987 46.2618 247.958 46.2922C247.929 46.3226 247.906 46.3585 247.891 46.3978C247.876 46.4371 247.869 46.479 247.87 46.5211C247.871 46.5631 247.88 46.6046 247.898 46.643C247.917 46.6854 247.946 46.7229 247.982 46.7524C248.018 46.782 248.06 46.8029 248.105 46.8135Z" fill="#2F2F2F"/>
<path d="M252.456 34.2511C252.456 34.2511 255.591 39.1649 257.592 38.698C259.593 38.231 257.695 34.0362 257.695 34.0362C257.695 34.0362 262.95 39.0315 265.603 38.6016C268.257 38.1718 264.795 34.1548 264.795 34.1548C264.795 34.1548 268.36 39.6021 271.103 40.0839C273.845 40.5656 272.081 36.4671 272.081 36.4671C272.081 36.4671 273.252 41.8552 274.971 41.8923C276.691 41.9293 276.365 34.5402 271.644 30.7752C266.923 27.0102 253.189 23.7492 252.456 34.2511Z" fill="#2F2F2F"/>
<path d="M255.702 36.6747C255.702 36.6747 254.723 45.7091 252.53 45.1533C250.336 44.5974 249.046 40.6324 252.456 34.2512L255.702 36.6747Z" fill="#2F2F2F"/>
<path d="M269.984 40.5508C269.984 40.5508 268.768 40.3507 268.894 41.544C269.02 42.7372 271.71 42.1887 272.874 44.6493C272.874 44.6493 274.297 42.2406 269.984 40.5508Z" fill="#2F2F2F"/>
<path d="M276.365 48.0437L272.251 47.0876L272.096 47.6509L276.209 48.607C276.28 48.6125 276.35 48.5925 276.407 48.5506C276.464 48.5088 276.505 48.4479 276.521 48.3789C276.537 48.3099 276.528 48.2374 276.495 48.1746C276.462 48.1118 276.408 48.0627 276.343 48.0363L276.365 48.0437Z" fill="white"/>
<path d="M250.351 52.3868C247.883 52.7425 246.038 52.2237 244.733 51.2306C244.529 51.0714 244.335 50.898 244.155 50.7118C241.472 48.0141 241.732 42.9447 243.74 40.6397C244.356 39.9129 245.143 39.3502 246.03 39.0018C246.273 38.9137 246.52 38.8394 246.771 38.7795C249.869 38.0828 252.96 40.1876 252.96 40.1876C255.087 49.3185 250.351 52.3868 250.351 52.3868Z" fill="#46539E"/>
<path d="M244.733 51.2306C244.528 51.0714 244.335 50.898 244.155 50.7118C246.17 47.1618 246.836 43.0036 246.03 39.0018C246.273 38.9137 246.52 38.8394 246.771 38.7795C247.641 43.0394 246.916 47.4703 244.733 51.2306Z" fill="#000033"/>
<path d="M274.564 34.4142C274.406 33.0634 274.018 31.7497 273.415 30.5306C272.14 28.0033 269.895 26.321 266.745 25.5205C265.229 25.0761 263.638 24.9526 262.072 25.1581C260.506 25.3635 259 25.8934 257.651 26.7138C256.845 27.2319 256.099 27.8385 255.428 28.5221C254.497 29.456 253.677 30.4928 252.982 31.6127C251.508 34.0485 250.423 36.699 249.765 39.4687L248.831 39.276C248.906 38.8907 250.832 29.8562 257.125 25.9356C258.58 25.0428 260.207 24.4655 261.9 24.2408C263.593 24.0161 265.314 24.1491 266.952 24.6312C270.384 25.4909 272.837 27.3437 274.245 30.1304C275.326 32.4442 275.808 34.9929 275.646 37.5418C275.421 36.457 275.058 35.4058 274.564 34.4142Z" fill="white"/>
<path d="M274.971 41.8701C275.035 41.8849 275.101 41.8849 275.164 41.8701C274.793 43.8101 274.247 45.7127 273.534 47.5546L272.652 47.1988C273.344 45.3694 273.873 43.482 274.23 41.5588C274.43 41.7507 274.694 41.8617 274.971 41.8701Z" fill="white"/>
<path d="M226.256 72.2345C226.75 71.2308 227.544 70.406 228.529 69.8746C229.513 69.3433 230.638 69.1319 231.748 69.2699C238.048 70.0852 242.265 77.5781 238.226 83.6628C232.074 92.927 223.181 103.874 215.747 110.737C204.208 121.372 184.723 132.326 184.723 132.326L180.669 126.775C180.669 126.775 191.171 117.184 198.456 110.373C202.731 106.352 207.43 102.809 212.471 99.8048L226.256 72.2345Z" fill="#FF9A88"/>
<path d="M218.793 87.0942C218.793 87.0942 228.161 90.0588 230.258 94.6464C230.258 94.6464 234.357 92.5712 234.49 89.0508C230.968 85.4224 226.585 82.743 221.75 81.2615C220.898 81.9914 220.198 82.8823 219.691 83.8832C219.183 84.8841 218.878 85.9753 218.793 87.0942Z" fill="#2F2F2F"/>
<path d="M212.523 99.9827C212.512 99.9314 212.512 99.8783 212.523 99.827C212.533 99.7853 212.551 99.7458 212.576 99.7111C212.601 99.6764 212.633 99.6471 212.669 99.625C212.706 99.6028 212.747 99.5883 212.789 99.5823C212.832 99.5762 212.875 99.5788 212.916 99.5899C215.047 100.193 217.017 101.264 218.682 102.725C218.743 102.787 218.777 102.871 218.777 102.958C218.777 103.046 218.743 103.129 218.682 103.192C218.621 103.252 218.538 103.286 218.452 103.286C218.366 103.286 218.284 103.252 218.223 103.192C216.63 101.819 214.759 100.808 212.738 100.227C212.684 100.208 212.636 100.176 212.599 100.133C212.561 100.09 212.535 100.038 212.523 99.9827Z" fill="#FD8970"/>
<path d="M213.501 100.457C213.95 101.193 214.322 101.973 214.613 102.784C214.638 102.86 214.689 102.924 214.757 102.966C214.825 103.008 214.905 103.025 214.984 103.014C215.03 103.006 215.075 102.988 215.114 102.961C215.153 102.934 215.185 102.898 215.209 102.857C215.233 102.817 215.248 102.771 215.253 102.724C215.257 102.676 215.251 102.629 215.236 102.584C214.926 101.728 214.534 100.904 214.065 100.123C214.028 100.063 213.973 100.017 213.907 99.9911C213.841 99.9656 213.769 99.9626 213.702 99.9826C213.654 99.9955 213.609 100.019 213.572 100.052C213.534 100.084 213.505 100.125 213.485 100.171C213.466 100.217 213.458 100.266 213.46 100.316C213.463 100.365 213.477 100.414 213.501 100.457Z" fill="#FD8970"/>
<path d="M321.908 126.071H321.804C321.685 126.041 321.583 125.966 321.518 125.863C321.453 125.759 321.431 125.634 321.456 125.515C324.136 112.586 325.609 99.436 325.858 86.2345C326.214 66.3572 323.508 38.8536 308.634 20.7106C297.346 6.96989 280.619 0.321886 258.911 0.944441C218.393 2.10803 198.397 35.5926 188.762 63.4742C178.29 93.7719 177.43 124.173 177.423 124.477C177.409 124.59 177.354 124.694 177.268 124.769C177.183 124.844 177.073 124.885 176.96 124.885C176.846 124.885 176.736 124.844 176.651 124.769C176.566 124.694 176.511 124.59 176.496 124.477C176.496 124.173 177.364 93.6237 187.888 63.1926C194.069 45.2941 202.34 30.9383 212.456 20.5105C225.13 7.44421 240.753 0.559052 258.889 0.0402558C280.915 -0.589711 297.895 6.17687 309.345 20.1473C316.016 28.2998 320.826 38.8759 323.679 51.6827C325.962 61.9104 326.999 73.5537 326.777 86.2938C326.516 99.5507 325.027 112.755 322.33 125.737C322.305 125.831 322.25 125.914 322.174 125.974C322.098 126.034 322.004 126.068 321.908 126.071Z" fill="#000033"/>
<path d="M185.642 122.869C184.525 122.338 183.306 122.058 182.069 122.047C180.832 122.037 179.608 122.297 178.483 122.81C174.777 124.588 176.319 125.952 176.319 125.952C176.319 125.952 171.094 127.872 170.389 129.606C169.5 131.829 172.102 131.733 172.102 131.733C172.102 131.733 171.027 133.06 171.397 134.171C171.768 135.283 173.399 134.912 173.399 134.912C173.399 134.912 172.531 136.261 173.006 137.203C173.628 138.448 175.807 137.818 175.807 137.818C175.807 137.818 175.103 139.641 176.734 140.041C178.364 140.441 181.959 139.085 182.018 137.203C184.438 136.617 186.598 135.249 188.162 133.312C190.815 130.043 189.77 128.553 189.77 128.553L185.642 122.869Z" fill="#FF9A88"/>
<path d="M181.573 135.009C181.501 135.01 181.43 134.989 181.369 134.95C181.308 134.91 181.261 134.853 181.232 134.786C179.75 131.474 180.714 126.634 180.751 126.456C180.772 126.361 180.83 126.277 180.911 126.223C180.993 126.17 181.092 126.149 181.188 126.167C181.236 126.177 181.281 126.196 181.321 126.223C181.362 126.25 181.396 126.285 181.423 126.326C181.45 126.366 181.468 126.412 181.478 126.46C181.487 126.507 181.487 126.557 181.477 126.604C181.477 126.649 180.558 131.392 181.907 134.49C181.947 134.579 181.95 134.681 181.915 134.773C181.881 134.865 181.811 134.939 181.722 134.979C181.674 134.995 181.624 135.005 181.573 135.009Z" fill="#FD8970"/>
<path d="M178.809 131.496C178.722 131.494 178.638 131.463 178.572 131.407C178.496 131.345 178.449 131.255 178.439 131.158C178.429 131.061 178.458 130.964 178.52 130.888C178.653 130.725 181.899 126.819 186.672 127.924C186.72 127.934 186.765 127.954 186.805 127.982C186.846 128.01 186.88 128.046 186.906 128.087C186.932 128.129 186.95 128.175 186.958 128.223C186.966 128.271 186.965 128.321 186.954 128.368C186.931 128.463 186.871 128.546 186.788 128.597C186.705 128.648 186.605 128.665 186.509 128.642C182.211 127.672 179.15 131.34 179.098 131.377C179.061 131.416 179.016 131.447 178.966 131.467C178.916 131.488 178.863 131.497 178.809 131.496Z" fill="#FD8970"/>
<path d="M174.866 123.788L178.89 141.723C179.526 142.039 180.249 142.138 180.946 142.004C181.643 141.87 182.278 141.511 182.752 140.982L178.972 122.862C177.304 122.691 176.156 122.787 174.866 123.788Z" fill="#000033"/>
<path d="M178.483 122.81C178.483 122.81 177.393 124.24 178.483 127.56C179.572 130.881 180.076 131.355 181.025 131.036C182.574 130.525 181.677 125.107 181.677 125.107C181.677 125.107 180.625 121.735 178.483 122.81Z" fill="#FF9A88"/>
<path d="M176.289 130.273C176.772 130.149 177.213 129.898 177.566 129.546C177.919 129.194 178.172 128.754 178.297 128.272C178.46 127.331 177.171 125.789 175.251 126.374L176.289 130.273Z" fill="#FF9A88"/>
<path d="M177.03 133.919C177.03 133.919 180.417 132.63 179.92 130.858C179.535 129.495 177.912 129.435 175.992 130.021L177.03 133.919Z" fill="#FF9A88"/>
<path d="M177.779 136.743C177.779 136.743 181.24 135.743 180.743 133.979C180.365 132.615 178.742 132.556 176.823 133.141L177.779 136.743Z" fill="#FF9A88"/>
<path d="M178.312 139.878C178.312 139.878 181.951 138.744 181.455 136.973C181.077 135.609 179.283 136.017 177.371 136.602L178.312 139.878Z" fill="#FF9A88"/>
<path d="M314.133 120.394C315.297 119.975 316.539 119.817 317.77 119.929C319.002 120.042 320.194 120.423 321.263 121.046C324.776 123.195 323.101 124.388 323.101 124.388C323.101 124.388 328.111 126.827 328.622 128.62C329.282 130.925 326.703 130.562 326.703 130.562C326.703 130.562 327.644 131.992 327.162 133.067C326.681 134.142 325.095 133.601 325.095 133.601C325.095 133.601 325.836 135.024 325.258 135.913C324.516 137.099 322.404 136.246 322.404 136.246C322.404 136.246 322.93 138.129 321.263 138.366C319.595 138.603 316.164 136.884 316.29 135.009C313.945 134.196 311.934 132.633 310.568 130.562C308.248 127.049 309.442 125.67 309.442 125.67L314.133 120.394Z" fill="#FF9A88"/>
<path d="M317.009 132.874C316.944 132.875 316.881 132.859 316.823 132.83C316.738 132.782 316.675 132.701 316.649 132.607C316.622 132.512 316.635 132.411 316.683 132.326C318.343 129.361 317.905 124.574 317.898 124.522C317.889 124.423 317.92 124.326 317.983 124.25C318.046 124.174 318.137 124.127 318.235 124.118C318.334 124.109 318.431 124.139 318.507 124.203C318.583 124.266 318.63 124.357 318.639 124.455C318.639 124.663 319.106 129.539 317.327 132.689C317.295 132.745 317.249 132.792 317.193 132.824C317.137 132.857 317.073 132.874 317.009 132.874Z" fill="#FD8970"/>
<path d="M320.107 129.628C320.045 129.627 319.984 129.611 319.93 129.582C319.876 129.552 319.829 129.509 319.795 129.458C319.795 129.413 317.083 125.463 312.71 126.004C312.613 126.014 312.516 125.986 312.439 125.925C312.363 125.864 312.314 125.775 312.303 125.678C312.29 125.581 312.316 125.482 312.376 125.404C312.436 125.327 312.524 125.276 312.621 125.263C317.461 124.67 320.299 128.872 320.418 129.05C320.471 129.134 320.49 129.235 320.469 129.332C320.448 129.429 320.39 129.514 320.307 129.569C320.247 129.606 320.178 129.627 320.107 129.628Z" fill="#FD8970"/>
<path d="M324.761 122.387L318.943 139.826C318.279 140.077 317.551 140.104 316.87 139.903C316.19 139.702 315.593 139.285 315.171 138.714L320.751 121.061C322.441 121.046 323.583 121.261 324.761 122.387Z" fill="#000033"/>
<path d="M321.263 121.046C321.263 121.046 322.204 122.58 320.766 125.774C319.329 128.969 318.795 129.391 317.883 128.983C316.401 128.316 317.831 123.054 317.831 123.054C317.831 123.054 319.24 119.764 321.263 121.046Z" fill="#FF9A88"/>
<path d="M322.701 128.694C322.227 128.521 321.81 128.223 321.493 127.831C321.176 127.44 320.971 126.97 320.9 126.471C320.833 125.515 322.271 124.114 324.116 124.892L322.701 128.694Z" fill="#FF9A88"/>
<path d="M321.596 132.244C321.596 132.244 318.358 130.621 319.025 128.917C319.543 127.597 321.166 127.701 323.012 128.472L321.596 132.244Z" fill="#FF9A88"/>
<path d="M320.566 134.979C320.566 134.979 317.224 133.645 317.891 131.933C318.409 130.621 320.033 130.718 321.878 131.496L320.566 134.979Z" fill="#FF9A88"/>
<path d="M319.729 138.047C319.729 138.047 316.216 136.565 316.883 134.846C317.402 133.526 319.106 134.105 320.989 134.883L319.729 138.047Z" fill="#FF9A88"/>
<path d="M258.377 267.48L256.332 272.638L264.336 277.107L266.381 271.949L258.377 267.48Z" fill="#FF9A88"/>
<path d="M276.468 300.453L247.327 284.192C247.372 283.553 247.548 282.93 247.846 282.362C249.039 279.79 252.018 276.299 253.775 274.031C253.982 273.772 254.175 273.52 254.345 273.29C254.627 272.905 254.849 272.549 254.998 272.327C256.124 270.303 257.725 271.652 257.725 271.652C259.059 276.188 264.818 273.713 265.974 276.225C265.974 276.225 266.478 277.292 267.627 280.672C268.775 284.052 271.947 287.616 274.512 290.885C277.832 295.109 278.047 297.6 277.595 298.971C277.415 299.587 277.013 300.114 276.468 300.453Z" fill="#46539E"/>
<path d="M276.468 300.453L247.327 284.192C247.372 283.553 247.548 282.93 247.846 282.362L277.61 298.963C277.427 299.584 277.02 300.115 276.468 300.453Z" fill="#000033"/>
<path d="M265.729 277.707C265.729 277.707 266.96 276.722 267.894 277.774C268.827 278.826 267.642 280.665 267.642 280.665C267.642 280.665 265.981 282.013 265.729 277.707Z" fill="white"/>
<path d="M262.179 283.236C262.053 283.166 261.96 283.049 261.919 282.91C261.879 282.771 261.895 282.622 261.964 282.495C262.421 281.643 263.048 280.895 263.806 280.297C264.565 279.699 265.439 279.264 266.374 279.019C266.445 279.005 266.518 279.005 266.589 279.019C266.66 279.033 266.728 279.061 266.788 279.102C266.848 279.142 266.9 279.194 266.94 279.254C266.981 279.314 267.008 279.382 267.023 279.453C267.037 279.524 267.037 279.597 267.023 279.668C267.008 279.739 266.98 279.807 266.94 279.867C266.9 279.927 266.848 279.979 266.788 280.019C266.728 280.059 266.66 280.087 266.589 280.101C265.809 280.319 265.081 280.694 264.451 281.204C263.822 281.714 263.303 282.348 262.928 283.066C262.85 283.187 262.728 283.272 262.588 283.304C262.448 283.336 262.302 283.311 262.179 283.236Z" fill="white"/>
<path d="M270.339 282.843C270.222 282.775 270.132 282.668 270.087 282.54C269.776 281.658 268.042 280.561 267.026 280.072C266.96 280.041 266.901 279.997 266.852 279.943C266.802 279.888 266.765 279.825 266.741 279.756C266.716 279.687 266.706 279.613 266.711 279.54C266.715 279.467 266.734 279.396 266.767 279.33C266.831 279.198 266.945 279.096 267.084 279.048C267.223 278.999 267.375 279.007 267.508 279.071C267.819 279.219 270.576 280.553 271.132 282.169C271.18 282.307 271.172 282.458 271.11 282.589C271.047 282.721 270.936 282.823 270.799 282.873C270.724 282.901 270.645 282.913 270.566 282.907C270.487 282.902 270.409 282.881 270.339 282.843Z" fill="white"/>
<path d="M265.225 279.619C264.45 279.179 263.707 278.684 263.002 278.137C261.594 277.085 260.838 275.736 261.031 274.632C261.082 274.313 261.225 274.016 261.44 273.776C261.655 273.535 261.935 273.362 262.246 273.275C262.554 273.176 262.879 273.142 263.2 273.176C263.522 273.209 263.833 273.308 264.114 273.468H264.151C266.159 274.595 267.286 278.308 267.404 278.73L266.663 278.952L266.3 280.086C265.928 279.964 265.568 279.808 265.225 279.619ZM263.573 274.543C263.433 274.458 263.276 274.405 263.114 274.385C262.952 274.366 262.787 274.382 262.631 274.431C262.529 274.453 262.435 274.506 262.363 274.583C262.292 274.66 262.246 274.757 262.231 274.861C262.142 275.395 262.572 276.344 263.751 277.211C264.517 277.804 265.332 278.329 266.189 278.782C265.774 277.581 264.788 275.225 263.573 274.543Z" fill="white"/>
<path d="M267.352 280.116L267.427 278.93C268.642 279.012 270.221 278.322 270.569 277.574C270.65 277.389 270.695 277.129 270.317 276.751C270.247 276.66 270.153 276.588 270.047 276.544C269.94 276.5 269.824 276.484 269.709 276.499C268.968 276.603 268.101 277.833 267.708 278.582L266.656 278.026C266.782 277.774 267.99 275.551 269.531 275.321C269.876 275.289 270.222 275.345 270.539 275.482C270.856 275.62 271.133 275.836 271.345 276.11C271.556 276.383 271.695 276.705 271.749 277.047C271.802 277.388 271.769 277.738 271.651 278.063C271.043 279.404 268.894 280.22 267.352 280.116Z" fill="white"/>
<path d="M250.299 285.852L249.432 285.363C250.343 285.039 251.181 284.538 251.897 283.888C252.614 283.238 253.194 282.452 253.604 281.576C254.155 280.399 254.455 279.122 254.487 277.823C254.519 276.525 254.281 275.234 253.79 274.031C253.997 273.772 254.19 273.52 254.36 273.29C254.983 274.645 255.302 276.121 255.295 277.612C255.287 279.104 254.953 280.576 254.316 281.924C253.485 283.668 252.061 285.06 250.299 285.852Z" fill="#000033"/>
<path d="M266.189 282.11C266.071 282.045 265.98 281.939 265.936 281.811C265.891 281.684 265.894 281.545 265.946 281.42C265.997 281.296 266.093 281.194 266.214 281.135C266.335 281.077 266.474 281.065 266.604 281.102L268.672 281.665C268.741 281.684 268.806 281.717 268.863 281.761C268.92 281.805 268.968 281.86 269.004 281.923C269.04 281.985 269.063 282.054 269.072 282.126C269.081 282.197 269.076 282.27 269.057 282.34C269.038 282.409 269.006 282.474 268.961 282.531C268.917 282.588 268.862 282.636 268.8 282.672C268.737 282.708 268.668 282.731 268.596 282.74C268.525 282.749 268.452 282.744 268.383 282.725L266.315 282.162L266.189 282.11Z" fill="white"/>
<path d="M267.419 284.185C267.301 284.12 267.211 284.014 267.166 283.887C267.121 283.759 267.125 283.62 267.176 283.495C267.227 283.371 267.323 283.269 267.444 283.211C267.566 283.152 267.705 283.14 267.834 283.177L269.902 283.74C269.972 283.758 270.038 283.79 270.096 283.834C270.153 283.878 270.201 283.933 270.237 283.996C270.273 284.059 270.296 284.128 270.305 284.2C270.313 284.272 270.308 284.345 270.287 284.415C270.268 284.484 270.236 284.55 270.192 284.607C270.148 284.664 270.093 284.712 270.03 284.747C269.967 284.783 269.898 284.806 269.827 284.815C269.755 284.824 269.683 284.819 269.613 284.8L267.545 284.237L267.419 284.185Z" fill="white"/>
<path d="M268.672 286.216C268.553 286.151 268.463 286.045 268.418 285.917C268.374 285.79 268.377 285.651 268.429 285.526C268.48 285.401 268.575 285.3 268.697 285.241C268.818 285.183 268.957 285.171 269.087 285.208L271.154 285.771C271.224 285.79 271.289 285.822 271.346 285.866C271.403 285.911 271.451 285.966 271.487 286.028C271.523 286.091 271.546 286.16 271.555 286.232C271.564 286.303 271.559 286.376 271.54 286.445C271.522 286.516 271.49 286.581 271.446 286.639C271.402 286.697 271.347 286.745 271.284 286.781C271.221 286.817 271.152 286.84 271.08 286.848C271.008 286.857 270.935 286.851 270.865 286.831L268.798 286.268L268.672 286.216Z" fill="white"/>
<path d="M270.132 288.269C270.024 288.207 269.94 288.113 269.892 287.999C269.844 287.885 269.834 287.758 269.865 287.639C269.905 287.497 269.999 287.378 270.126 287.305C270.254 287.233 270.405 287.214 270.547 287.253L272.615 287.816C272.684 287.835 272.749 287.868 272.807 287.912C272.864 287.956 272.911 288.011 272.947 288.074C272.983 288.136 273.006 288.205 273.015 288.277C273.024 288.349 273.019 288.421 273 288.491C272.982 288.561 272.95 288.627 272.906 288.685C272.862 288.742 272.807 288.79 272.744 288.826C272.681 288.862 272.612 288.885 272.54 288.894C272.468 288.902 272.395 288.896 272.326 288.876L270.258 288.313C270.214 288.303 270.172 288.288 270.132 288.269Z" fill="white"/>
<path d="M271.836 290.27C271.718 290.205 271.628 290.098 271.583 289.971C271.538 289.844 271.542 289.705 271.593 289.58C271.645 289.455 271.74 289.354 271.862 289.295C271.983 289.236 272.122 289.225 272.251 289.262L274.319 289.825C274.389 289.843 274.455 289.875 274.513 289.919C274.57 289.963 274.619 290.018 274.655 290.081C274.691 290.144 274.714 290.213 274.722 290.285C274.731 290.357 274.725 290.43 274.705 290.499C274.686 290.569 274.653 290.634 274.609 290.691C274.565 290.748 274.51 290.796 274.447 290.832C274.385 290.868 274.316 290.891 274.244 290.9C274.172 290.909 274.1 290.904 274.03 290.885L271.962 290.322L271.836 290.27Z" fill="white"/>
<path d="M260.638 155.005C258.637 154.723 274.445 203.342 286.429 210.716C295.82 216.497 305.892 212.991 300.074 195.263C294.567 178.484 286.118 154.701 280.382 139.908L260.638 155.005Z" fill="#2F2F2F"/>
<path d="M301.348 206.706C301.348 207.084 301.348 207.485 301.274 207.9C300.652 214.244 296.827 223.463 290.335 235.188C287.704 239.939 284.621 245.105 281.13 250.656C273.823 262.292 266.374 271.926 266.374 271.926L258.073 267.991C258.073 267.991 264.358 244.868 265.537 241.236C267.434 235.418 269.02 230.119 270.725 225.405C273.6 217.319 276.713 211.124 282.034 207.529C290.409 201.867 296.316 201.014 301.348 206.706Z" fill="#2F2F2F"/>
<path d="M290.335 235.203C287.704 239.954 284.621 245.12 281.13 250.671C273.823 262.292 266.374 271.927 266.374 271.927L258.073 267.991C258.073 267.991 264.358 244.868 265.537 241.236C267.434 235.418 269.02 230.119 270.725 225.405C274.534 227.94 282.583 232.846 290.335 235.203Z" fill="#FF9A88"/>
<path d="M301.348 206.706C301.348 207.084 301.348 207.485 301.274 207.9C299.655 208.067 298.02 208.022 296.412 207.766C295.266 207.577 294.146 207.251 293.077 206.795C292.951 206.724 292.856 206.608 292.81 206.471C292.764 206.333 292.771 206.184 292.829 206.051C292.887 205.918 292.992 205.812 293.125 205.752C293.257 205.692 293.406 205.684 293.544 205.728C296.018 206.721 298.706 207.058 301.348 206.706Z" fill="#000033"/>
<path d="M286.681 206.321C274.749 194.9 263.647 156.509 263.536 156.124C263.505 156.016 263.433 155.924 263.335 155.869C263.237 155.814 263.121 155.801 263.013 155.831C262.905 155.862 262.813 155.934 262.759 156.032C262.704 156.13 262.69 156.245 262.72 156.354C262.72 156.45 265.551 166.188 269.806 177.224C275.409 191.75 280.782 201.637 285.777 206.61C284.228 208.04 277.802 214.303 274.371 222.604C274.126 223.189 273.867 223.834 273.593 224.531C273.551 224.632 273.551 224.746 273.592 224.847C273.634 224.948 273.714 225.029 273.815 225.072C273.918 225.114 274.034 225.113 274.137 225.07C274.239 225.027 274.321 224.945 274.364 224.842C274.64 224.145 274.9 223.508 275.142 222.93C278.959 213.688 286.578 207.01 286.659 206.944C286.703 206.904 286.738 206.856 286.762 206.803C286.787 206.749 286.799 206.691 286.8 206.632C286.803 206.517 286.76 206.405 286.681 206.321Z" fill="#000033"/>
<path d="M279.811 156.502C271.547 161.112 251.685 163.276 238.819 157.984C234.098 156.035 233.282 154.864 233.764 146.356C233.764 146.037 233.764 145.718 233.816 145.407C233.86 144.73 233.912 144.063 233.972 143.406L234.061 142.442C234.172 141.257 234.305 140.093 234.446 138.974L234.557 138.062C234.854 135.885 235.287 133.729 235.854 131.607C235.936 131.296 236.017 130.999 236.099 130.725C236.372 129.798 236.573 128.852 236.699 127.894C238.905 128.297 241.132 128.572 243.369 128.716L244.288 128.761C255.465 129.206 266.886 126.827 272.177 125.53L273.067 125.307C273.664 125.215 274.234 124.998 274.742 124.67C275.402 125.349 275.945 126.133 276.35 126.99C276.476 127.249 276.602 127.523 276.735 127.82C278.082 130.765 279.12 133.843 279.833 137.002C279.829 137.044 279.829 137.086 279.833 137.128L280.011 138.04C280.015 138.102 280.015 138.164 280.011 138.225C280.515 140.76 280.967 143.413 281.264 145.97C281.264 146.296 281.338 146.622 281.367 146.941C281.99 152.5 282.049 155.257 279.811 156.502Z" fill="#2F2F2F"/>
<path d="M280.056 138.203H279.996C278.243 137.173 276.755 135.747 275.653 134.038C275.49 133.786 275.327 133.539 275.164 133.297C273.784 130.886 272.77 128.283 272.155 125.574L273.044 125.352C273.648 128.004 274.648 130.549 276.009 132.904C276.172 133.171 276.342 133.43 276.513 133.645C277.389 134.971 278.514 136.114 279.826 137.01C279.822 137.052 279.822 137.094 279.826 137.136L280.004 138.047C280.024 138.098 280.041 138.15 280.056 138.203Z" fill="#000033"/>
<path d="M244.266 128.739C243.978 131.548 243.227 134.29 242.043 136.854C241.894 137.143 241.746 137.425 241.591 137.692C240.785 139.159 239.688 140.445 238.367 141.472C237.086 142.454 235.585 143.111 233.994 143.384L234.083 142.42C235.447 142.155 236.73 141.576 237.833 140.73C238.967 139.84 239.922 138.744 240.649 137.499C240.805 137.232 240.961 136.951 241.109 136.669C242.31 134.16 243.067 131.462 243.347 128.694L244.266 128.739Z" fill="#000033"/>
<path d="M276.698 127.798C276.061 128.072 275.379 128.346 274.645 128.635L273.778 128.961C268.711 130.905 263.407 132.164 258.007 132.704L257.318 132.763C252.164 133.105 246.989 132.984 241.857 132.4L240.894 132.289C238.982 132.066 237.262 131.814 235.839 131.548C235.921 131.236 236.002 130.94 236.084 130.666C237.566 130.895 239.315 131.155 241.272 131.407L242.221 131.511C247.432 132.099 252.689 132.191 257.918 131.785C263.194 131.255 268.377 130.032 273.333 128.146L274.193 127.812C274.934 127.523 275.675 127.234 276.298 126.96C276.454 127.227 276.58 127.501 276.698 127.798Z" fill="#000033"/>
<path d="M258.741 157.176C258.754 157.296 258.813 157.405 258.906 157.481C258.999 157.557 259.118 157.594 259.237 157.584C259.3 157.579 259.362 157.56 259.418 157.53C259.474 157.5 259.523 157.458 259.562 157.408C259.601 157.358 259.629 157.3 259.644 157.239C259.66 157.177 259.663 157.113 259.652 157.05C259.467 155.338 259.296 153.589 259.133 151.862C259.133 151.558 259.081 151.247 259.052 150.943C258.533 145.214 258.133 139.574 257.866 135.587C257.866 135.261 257.822 134.949 257.807 134.653C257.747 133.779 257.696 133 257.659 132.341H256.74C256.777 133 256.828 133.779 256.888 134.668C256.888 134.964 256.925 135.276 256.947 135.602C257.206 139.552 257.607 145.14 258.118 150.839L258.207 151.781C258.37 153.589 258.548 155.405 258.741 157.176Z" fill="#000033"/>
<path d="M256.524 151.395C257.076 151.56 257.638 151.686 258.207 151.773C258.514 151.819 258.823 151.848 259.133 151.862C259.424 151.884 259.717 151.884 260.008 151.862C260.535 151.828 261.046 151.659 261.49 151.373C261.743 151.192 261.949 150.953 262.09 150.676C262.23 150.398 262.302 150.091 262.298 149.78C262.357 147.979 261.942 140.641 261.616 135.453C261.616 135.135 261.616 134.823 261.557 134.527C261.505 133.697 261.46 132.941 261.416 132.304H260.497C260.541 132.948 260.593 133.712 260.645 134.527C260.645 134.831 260.682 135.142 260.704 135.461C261.023 140.649 261.446 147.956 261.386 149.705C261.393 149.875 261.358 150.043 261.285 150.196C261.211 150.348 261.101 150.48 260.964 150.58C260.377 150.888 259.708 151.004 259.052 150.914C258.733 150.914 258.422 150.847 258.118 150.802C257.673 150.723 257.232 150.619 256.799 150.491C256.684 150.456 256.56 150.467 256.453 150.523C256.346 150.578 256.265 150.673 256.228 150.788C256.205 150.847 256.194 150.91 256.197 150.974C256.199 151.037 256.215 151.099 256.243 151.156C256.271 151.214 256.31 151.264 256.359 151.305C256.407 151.347 256.464 151.377 256.524 151.395Z" fill="#000033"/>
<path d="M223.707 282.569L222.706 288.298L213.59 286.875L214.331 280.242L223.707 282.569Z" fill="#FF9A88"/>
<path d="M260.779 159.022C258.822 169.939 254.509 185.354 245.274 205.313L244.94 206.506C244.57 207.816 244.192 209.142 243.807 210.486L234.861 242.815L223.447 284.059L214.065 281.732C214.065 281.732 215.377 258.905 217.081 236.693C217.133 235.989 217.185 235.292 217.244 234.588C219.075 211.094 225.241 203.46 225.241 203.46C225.241 203.46 231.17 159.229 233.742 146.741C235.678 146.783 237.578 147.272 239.293 148.171C241.458 149.254 243.541 150.492 245.526 151.877C249.491 154.508 253.678 157.502 258.348 158.636C259.144 158.841 259.958 158.97 260.779 159.022Z" fill="#2F2F2F"/>
<path d="M234.861 242.815L223.447 284.059L214.065 281.732C214.065 281.732 215.377 258.905 217.081 236.693C222.614 239.735 228.628 241.805 234.861 242.815Z" fill="#FF9A88"/>
<path d="M235.298 147.964C235.154 147.947 235.009 147.989 234.895 148.079C234.781 148.169 234.707 148.301 234.691 148.446L227.939 203.038C227.338 204.172 221.55 215.304 220.624 224.953C220.483 226.435 220.06 230.734 219.512 236.389C219.499 236.524 219.538 236.658 219.62 236.766C219.703 236.873 219.823 236.945 219.957 236.967C220.028 236.978 220.101 236.975 220.171 236.958C220.241 236.94 220.307 236.909 220.364 236.865C220.422 236.822 220.47 236.767 220.505 236.704C220.541 236.641 220.564 236.572 220.572 236.5C221.135 230.845 221.572 226.532 221.713 225.057C222.662 215.148 228.88 203.564 228.947 203.468C228.977 203.407 228.998 203.342 229.006 203.275L235.773 148.579C235.782 148.507 235.777 148.435 235.758 148.365C235.739 148.295 235.707 148.23 235.663 148.173C235.619 148.116 235.564 148.068 235.501 148.032C235.439 147.996 235.37 147.973 235.298 147.964Z" fill="#000033"/>
<path d="M236.484 204.779C237.511 205.32 238.602 205.731 239.73 206.002C241.428 206.408 243.174 206.577 244.918 206.506L245.252 205.313C242.419 205.531 239.579 204.989 237.025 203.742C236.888 203.671 236.729 203.657 236.582 203.703C236.435 203.749 236.312 203.851 236.24 203.986C236.202 204.054 236.179 204.129 236.171 204.206C236.163 204.283 236.171 204.361 236.194 204.435C236.217 204.509 236.254 204.577 236.304 204.637C236.354 204.696 236.415 204.744 236.484 204.779Z" fill="#000033"/>
<path d="M209.447 300.831V301.068C209.447 301.431 209.447 301.757 209.492 302.031C209.529 302.647 209.573 303.025 209.573 303.025H229.903C229.96 302.374 229.96 301.719 229.903 301.068C229.769 298.993 229.073 295.71 226.271 293.538C222.425 290.573 223.907 291.189 223.121 289.832C223.032 289.684 222.336 287.379 222.262 287.224C221.602 285.815 220.994 285.148 217.348 285.148C212.516 285.148 212.093 287.49 211.575 288.728C211.248 289.667 210.981 290.624 210.774 291.596C210.655 292.115 210.529 292.663 210.411 293.219C210.114 294.62 209.833 296.088 209.67 297.251C209.495 298.436 209.421 299.633 209.447 300.831Z" fill="#46539E"/>
<path d="M209.447 300.831V301.068C209.447 301.431 209.447 301.757 209.492 302.031C210.46 301.359 211.198 300.404 211.604 299.297C212.857 295.865 210.922 291.752 210.863 291.581H210.826C210.707 292.1 210.581 292.649 210.463 293.205C210.922 294.605 211.448 296.955 210.715 298.948C210.452 299.67 210.017 300.316 209.447 300.831Z" fill="#000033"/>
<path d="M209.447 301.09C209.447 302.247 209.573 303.047 209.573 303.047H229.903C229.96 302.396 229.96 301.741 229.903 301.09H209.447Z" fill="#000033"/>
<path d="M219.134 288.002C219.05 287.926 218.989 287.828 218.96 287.719C218.931 287.609 218.935 287.494 218.971 287.387C219.26 286.482 220.817 281.939 222.869 281.398C223.16 281.321 223.465 281.323 223.755 281.404C224.044 281.484 224.307 281.641 224.515 281.858C224.761 282.06 224.949 282.323 225.062 282.621C225.175 282.918 225.209 283.24 225.16 283.555C224.804 285.778 220.275 287.861 219.757 288.098C219.682 288.13 219.601 288.148 219.52 288.15C219.377 288.149 219.24 288.096 219.134 288.002ZM223.166 282.517C222.321 282.74 221.283 284.622 220.565 286.393C222.136 285.526 223.863 284.303 224.018 283.37C224.035 283.244 224.016 283.116 223.966 283C223.915 282.883 223.833 282.783 223.729 282.71C223.616 282.587 223.459 282.512 223.292 282.502L223.166 282.517Z" fill="white"/>
<path d="M218.297 288.098C217.778 287.861 213.249 285.756 212.894 283.555C212.844 283.24 212.878 282.918 212.991 282.621C213.104 282.323 213.293 282.06 213.539 281.858C213.747 281.641 214.009 281.484 214.299 281.404C214.588 281.323 214.894 281.321 215.184 281.398C217.237 281.939 218.793 286.482 219.082 287.387C219.107 287.472 219.112 287.563 219.097 287.651C219.081 287.739 219.045 287.822 218.992 287.894C218.939 287.965 218.87 288.024 218.791 288.065C218.711 288.105 218.623 288.127 218.534 288.128C218.454 288.133 218.373 288.122 218.297 288.098ZM214.324 282.71C214.22 282.783 214.139 282.883 214.088 283C214.037 283.116 214.019 283.244 214.035 283.37C214.191 284.303 215.91 285.526 217.489 286.393C216.748 284.622 215.732 282.74 214.887 282.517H214.761C214.596 282.523 214.44 282.592 214.324 282.71Z" fill="white"/>
<path d="M219.045 286.453C219.045 286.453 219.994 286.008 220.068 287.305C220.127 288.358 219.371 288.58 219.067 288.409C218.893 288.462 218.706 288.459 218.533 288.401C218.361 288.342 218.21 288.231 218.104 288.083C217.778 287.572 217.993 285.934 219.045 286.453Z" fill="white"/>
<path d="M223.203 290.003C223.329 290.003 223.452 289.962 223.551 289.884C223.674 289.793 223.755 289.656 223.777 289.505C223.8 289.353 223.761 289.199 223.67 289.076C223.126 288.354 222.393 287.795 221.553 287.46C220.712 287.126 219.796 287.028 218.904 287.179C218.828 287.191 218.754 287.219 218.689 287.26C218.623 287.302 218.567 287.356 218.522 287.419C218.478 287.483 218.447 287.555 218.431 287.631C218.415 287.707 218.414 287.785 218.429 287.861C218.444 287.937 218.474 288.009 218.518 288.074C218.561 288.138 218.617 288.193 218.682 288.235C218.747 288.277 218.82 288.306 218.896 288.319C218.973 288.333 219.051 288.33 219.127 288.313C219.806 288.21 220.501 288.294 221.136 288.555C221.772 288.816 222.325 289.245 222.736 289.795C222.793 289.863 222.865 289.917 222.946 289.953C223.026 289.989 223.114 290.006 223.203 290.003Z" fill="white"/>
<path d="M214.317 290.588C214.429 290.588 214.538 290.555 214.633 290.495C214.727 290.435 214.803 290.349 214.85 290.247C215.784 288.18 219.067 287.676 219.097 287.676C219.249 287.654 219.387 287.573 219.479 287.45C219.572 287.327 219.611 287.172 219.59 287.02C219.568 286.867 219.487 286.73 219.364 286.637C219.241 286.545 219.086 286.505 218.934 286.527C218.771 286.527 214.991 287.127 213.79 289.766C213.736 289.903 213.736 290.055 213.79 290.193C213.843 290.33 213.947 290.442 214.08 290.507C214.153 290.549 214.233 290.577 214.317 290.588Z" fill="white"/>
<path d="M216.711 291.507C216.76 291.514 216.81 291.514 216.859 291.507C218.4 291.103 220.016 291.07 221.572 291.411C221.646 291.431 221.723 291.436 221.798 291.427C221.874 291.417 221.947 291.392 222.013 291.355C222.079 291.317 222.137 291.266 222.183 291.206C222.23 291.146 222.264 291.077 222.284 291.003C222.304 290.93 222.309 290.853 222.299 290.778C222.29 290.702 222.265 290.629 222.227 290.563C222.19 290.497 222.139 290.439 222.079 290.393C222.019 290.346 221.95 290.312 221.876 290.292C220.124 289.892 218.3 289.922 216.562 290.381C216.485 290.4 216.413 290.435 216.35 290.484C216.287 290.532 216.234 290.593 216.196 290.662C216.157 290.732 216.132 290.808 216.124 290.887C216.116 290.966 216.124 291.046 216.147 291.122C216.188 291.238 216.265 291.337 216.366 291.407C216.467 291.476 216.588 291.511 216.711 291.507Z" fill="white"/>
<path d="M217.578 293.345C217.627 293.353 217.677 293.353 217.726 293.345C219.267 292.942 220.883 292.909 222.44 293.249C222.588 293.29 222.747 293.271 222.881 293.195C223.015 293.119 223.113 292.994 223.155 292.845C223.196 292.697 223.177 292.538 223.101 292.404C223.025 292.27 222.899 292.171 222.751 292.13C220.998 291.731 219.175 291.762 217.437 292.219C217.36 292.238 217.288 292.273 217.225 292.322C217.162 292.37 217.109 292.431 217.07 292.5C217.031 292.57 217.007 292.646 216.999 292.725C216.99 292.804 216.998 292.884 217.022 292.96C217.062 293.074 217.138 293.173 217.237 293.242C217.337 293.312 217.456 293.348 217.578 293.345Z" fill="white"/>
<path d="M218.601 295.435H218.749C220.29 295.032 221.906 294.999 223.462 295.339C223.538 295.363 223.617 295.371 223.696 295.363C223.775 295.355 223.851 295.332 223.92 295.294C223.989 295.255 224.05 295.204 224.099 295.141C224.148 295.079 224.183 295.008 224.204 294.931C224.23 294.857 224.24 294.777 224.233 294.698C224.227 294.619 224.204 294.542 224.167 294.473C224.129 294.403 224.077 294.342 224.015 294.293C223.952 294.245 223.88 294.21 223.803 294.19C222.051 293.788 220.227 293.818 218.489 294.279C218.412 294.299 218.34 294.334 218.277 294.382C218.214 294.431 218.161 294.491 218.123 294.561C218.084 294.63 218.059 294.707 218.051 294.786C218.043 294.865 218.051 294.944 218.074 295.02C218.107 295.136 218.176 295.239 218.27 295.313C218.365 295.388 218.48 295.431 218.601 295.435Z" fill="white"/>
</svg>
