<svg width="575" height="303" viewBox="0 0 575 303" fill="none" xmlns="http://www.w3.org/2000/svg">
<path d="M248.522 217.715C272.15 221.146 294.59 230.334 313.894 244.479C342.768 265.556 403.192 301.421 460.832 283.557C540.333 258.911 540.696 187.637 519.987 148.924C499.278 110.211 352.421 -3.18034 161.997 14.8571C-8.38737 31.005 -41.5762 215.798 49.2897 249.235C128.129 278.254 155.019 204.369 248.522 217.715Z" fill="#FFDECD"/>
<path d="M144.421 290.165H137.738L136.348 264.325H145.906L144.421 290.165Z" fill="#2F2F2F"/>
<path d="M364.573 290.165H357.875L356.485 264.325H366.058L364.573 290.165Z" fill="#2F2F2F"/>
<path d="M387.89 162.16L378.143 161.254L355.031 170.811V211.581H387.89V162.16Z" fill="#46539E"/>
<path d="M114.643 162.16L124.374 161.254L147.485 170.811V211.581H114.643V162.16Z" fill="#46539E"/>
<path d="M342.788 133.22H159.728C158.038 133.218 156.365 133.551 154.803 134.201C153.241 134.85 151.821 135.804 150.625 137.006C149.43 138.208 148.481 139.635 147.834 141.207C147.187 142.778 146.854 144.463 146.854 146.164V226.687C146.858 230.122 148.216 233.414 150.63 235.841C153.044 238.268 156.317 239.631 159.728 239.631H342.788C346.2 239.631 349.472 238.268 351.887 235.841C354.301 233.414 355.659 230.122 355.663 226.687V146.164C355.663 144.463 355.33 142.778 354.683 141.207C354.036 139.635 353.087 138.208 351.891 137.006C350.695 135.804 349.276 134.85 347.714 134.201C346.152 133.551 344.478 133.218 342.788 133.22Z" fill="#B0BAF2"/>
<path d="M383.767 160.411C388.848 160.411 393.721 162.441 397.316 166.054C400.912 169.667 402.936 174.569 402.945 179.683V269.159C402.945 270.183 402.744 271.196 402.355 272.141C401.966 273.086 401.396 273.945 400.677 274.669C399.959 275.392 399.105 275.966 398.166 276.358C397.227 276.749 396.22 276.951 395.204 276.951H364.589V179.683C364.597 174.569 366.621 169.667 370.217 166.054C373.813 162.441 378.686 160.411 383.767 160.411Z" fill="#B0BAF2"/>
<path d="M107.313 276.983H137.928V179.684C137.924 174.565 135.902 169.658 132.306 166.038C128.711 162.419 123.835 160.384 118.75 160.38C113.665 160.384 108.789 162.419 105.194 166.038C101.598 169.658 99.5761 174.565 99.572 179.684V269.16C99.5678 270.185 99.765 271.202 100.152 272.151C100.539 273.1 101.109 273.963 101.828 274.69C102.547 275.417 103.402 275.993 104.343 276.387C105.284 276.78 106.293 276.983 107.313 276.983Z" fill="#B0BAF2"/>
<path d="M276.613 253.338H212.033H137.928V276.983H212.033H276.613H364.589V253.338H276.613Z" fill="#B0BAF2"/>
<path d="M276.613 211.581H212.033H137.928V253.338H212.033H276.613H364.589V211.581H276.613Z" fill="#8E97CC"/>
<path d="M355.031 202.406H276.613H212.033H147.485L137.928 211.581H212.033H276.613H364.589L355.031 202.406Z" fill="#46539E"/>
<path d="M364.589 250.666H137.928V253.322H364.589V250.666Z" fill="#46539E"/>
<path d="M271.978 155.552L233.799 158.516C229.528 158.848 226.332 162.602 226.662 166.901L228.97 197.024C229.299 201.323 233.029 204.539 237.3 204.208L275.479 201.244C279.75 200.912 282.946 197.158 282.616 192.859L280.308 162.736C279.979 158.437 276.25 155.221 271.978 155.552Z" fill="#FBFFF9"/>
<path d="M325.474 161.334H287.182C282.898 161.334 279.425 164.829 279.425 169.141V199.353C279.425 203.665 282.898 207.161 287.182 207.161H325.474C329.758 207.161 333.231 203.665 333.231 199.353V169.141C333.231 164.829 329.758 161.334 325.474 161.334Z" fill="#FD8970"/>
<path d="M243.518 8.63443L243.612 94.5008L101.72 94.6758L101.61 8.88885L243.518 8.63443ZM236.883 88.3471V14.8836H107.66V88.3471H236.883Z" fill="#46549E"/>
<path d="M106.049 13.4048V89.81L238.494 89.81V13.4048L106.049 13.4048Z" fill="#F8F6F2"/>
<path d="M117.66 25.0603V78.218H225.872V25.0603L117.66 25.0603Z" fill="#B0BAF2"/>
<path d="M144.31 65.5606C151.831 65.5606 157.928 59.4238 157.928 51.8537C157.928 44.2837 151.831 38.1469 144.31 38.1469C136.79 38.1469 130.693 44.2837 130.693 51.8537C130.693 59.4238 136.79 65.5606 144.31 65.5606Z" fill="white"/>
<path d="M175.889 65.5606C183.41 65.5606 189.506 59.4238 189.506 51.8537C189.506 44.2837 183.41 38.1469 175.889 38.1469C168.368 38.1469 162.272 44.2837 162.272 51.8537C162.272 59.4238 168.368 65.5606 175.889 65.5606Z" fill="#46539E"/>
<path d="M211.465 52.0288C211.468 52.9138 211.21 53.7799 210.723 54.5171C210.237 55.2544 209.544 55.8295 208.732 56.1697C207.92 56.5099 207.026 56.5997 206.164 56.4278C205.301 56.2559 204.509 55.83 203.887 55.2041C203.265 54.5783 202.842 53.7807 202.671 52.9124C202.5 52.0442 202.59 51.1445 202.928 50.3274C203.266 49.5103 203.837 48.8126 204.569 48.3228C205.302 47.8331 206.162 47.5733 207.042 47.5764C208.213 47.5806 209.336 48.051 210.165 48.8851C210.993 49.7192 211.461 50.8492 211.465 52.0288Z" fill="#46539E"/>
<path d="M207.041 65.7357C203.748 65.7357 200.59 67.0525 198.262 69.3963C195.933 71.7402 194.625 74.9192 194.625 78.234H219.442C219.442 74.922 218.136 71.7454 215.811 69.402C213.486 67.0585 210.332 65.7399 207.041 65.7357Z" fill="white"/>
<path d="M144.31 34.5057C146.824 34.5057 149.235 33.5005 151.012 31.7113C152.79 29.9221 153.789 27.4954 153.789 24.965H134.832C134.832 27.4954 135.83 29.9221 137.608 31.7113C139.385 33.5005 141.796 34.5057 144.31 34.5057Z" fill="#46539E"/>
<path d="M348.365 255.548L344.81 278.271L357.148 277.889L361.571 256.534L348.365 255.548Z" fill="#FFB9B4"/>
<path d="M345.189 275.202L324.653 283.153C323.996 283.487 323.47 284.034 323.16 284.707C322.85 285.379 322.775 286.137 322.947 286.858L359.281 287.319L357.938 275.281L345.189 275.202Z" fill="#000033"/>
<path d="M359.849 291.214L322.41 290.737L322.425 286.762L359.849 287.239V291.214Z" fill="white"/>
<path d="M381.302 124.586L380.576 126.637C372.936 139.018 366.583 152.158 361.619 165.85L347.259 205.523L342.109 261.702L366.769 263.403L373.088 212.44L402.234 158.122L400.654 126.415L381.302 124.586Z" fill="#E95A5C"/>
<path d="M426.767 245.133L439.753 265.661L450.242 259.062L438.678 239.297L426.767 245.133Z" fill="#FFB9B4"/>
<path d="M438.394 263.196L423.829 281.817C423.392 282.465 423.185 283.242 423.239 284.024C423.294 284.805 423.607 285.545 424.129 286.126L457.303 267.188L449.105 257.647L438.394 263.196Z" fill="#000033"/>
<path d="M459.942 270.511L425.693 290.006L423.702 286.365L457.951 266.854L459.942 270.511Z" fill="white"/>
<path d="M388.632 154.75L398.743 209.546L425.33 253.051L447.446 240.982L425.503 205.332L426.356 168.409C426.356 168.409 424.287 134.635 412.976 121.851L391.634 125.158L388.632 154.75Z" fill="#E95A5C"/>
<path d="M392.566 176.058L389.691 157.66L382.045 150.855" stroke="#000033" stroke-width="0.76" stroke-miterlimit="10"/>
<path d="M368.364 87.1704L363.625 116.524C363.378 118.066 363.733 119.644 364.617 120.927C365.5 122.211 366.843 123.1 368.364 123.409C369.835 123.72 371.367 123.468 372.664 122.704C373.96 121.94 374.928 120.718 375.378 119.275L385.015 88.4266L368.364 87.1704Z" fill="#FFB9B4"/>
<path d="M364.731 114.139L342.741 145.941L350.087 148.565L374.288 121.422C374.934 120.655 375.378 119.737 375.581 118.752C375.783 117.767 375.737 116.747 375.446 115.786C375.155 114.824 374.629 113.951 373.916 113.246C373.203 112.542 372.326 112.029 371.366 111.754C370.151 111.404 368.858 111.446 367.668 111.874C366.478 112.302 365.451 113.094 364.731 114.139Z" fill="#FFB9B4"/>
<path d="M342.741 145.957C342.741 145.957 330.909 150.171 332.583 159.076L346.58 154.019L350.087 148.581L342.741 145.957Z" fill="#FFB9B4"/>
<path d="M372.487 70.6649L355 103.755C360.464 110.009 367.169 115.041 374.683 118.528L380.212 109.543L372.487 70.6649Z" fill="white"/>
<path d="M399.975 63.4935C399.975 63.4935 412.613 62.0465 418.663 69.1703C422.644 73.9406 419.864 133.602 419.864 133.602C419.864 133.602 393.008 143.302 375.71 134.969L370.876 76.3258C370.876 74.1692 371.504 72.0599 372.684 70.2594C373.863 68.4589 375.542 67.0463 377.511 66.1967C381.716 64.6984 386.131 63.8825 390.591 63.7798C397.179 63.6843 399.975 63.4935 399.975 63.4935Z" fill="white"/>
<path d="M374.351 115.665L372.187 91.1616" stroke="#D8D8D8" stroke-width="0.72" stroke-miterlimit="10"/>
<path d="M466.371 278.43C466.371 278.43 412.312 283.2 398.016 265.852C383.719 248.504 395.836 232.459 411.617 221.758C420.622 215.503 429.008 208.389 436.656 200.514C443.912 193.461 449.014 184.469 451.364 174.595C455.787 154.925 447.019 141.203 435.471 133.634C419.09 122.98 398.379 133.84 398.379 133.84L253.896 195.934" stroke="#000033" stroke-width="3.53" stroke-miterlimit="10"/>
<path d="M224.987 205.714C225.493 205.014 255.966 191.864 255.966 191.864L260.705 196.093L231.749 208.814L224.987 205.714Z" fill="#000033"/>
<path d="M204.925 200.148L247.957 228.977L249.236 225.543C250.611 221.885 247.656 216.877 244.418 214.714L218.273 197.541C216.868 196.605 215.219 196.106 213.534 196.106C211.849 196.106 210.201 196.605 208.795 197.541L204.925 200.148Z" fill="#000033"/>
<path d="M207.579 198.367L249.157 226.226L250.437 222.808C251.102 221.027 251.139 219.07 250.544 217.265C249.949 215.459 248.757 213.913 247.167 212.885L221.022 195.712C219.616 194.776 217.968 194.278 216.283 194.278C214.598 194.278 212.95 194.776 211.544 195.712L207.579 198.367Z" fill="#46539E"/>
<path d="M464.286 283.916L479.23 282.66L478.33 272.197L463.385 273.469L464.286 283.916Z" fill="#000033"/>
<path d="M530.098 286.921L484.538 290.769C482.527 290.961 480.5 290.682 478.614 289.954C476.728 289.225 475.036 288.067 473.669 286.57C472.303 285.072 471.299 283.277 470.737 281.324C470.176 279.371 470.071 277.314 470.431 275.313L474.933 251.462C475.718 247.472 477.777 243.849 480.798 241.148C483.818 238.446 487.634 236.813 491.663 236.499L540.066 232.412C544.947 231.965 549.805 233.483 553.577 236.633C557.349 239.783 559.727 244.308 560.192 249.219L563.193 284.123L530.098 286.921Z" fill="#FD8970"/>
<path d="M473.733 257.87L537.08 252.527" stroke="#6246AB" stroke-width="2.02" stroke-miterlimit="10"/>
<path d="M519.75 272.69C519.139 265.343 521.451 258.053 526.18 252.423C530.908 246.793 537.664 243.284 544.963 242.668C552.261 242.052 559.504 244.38 565.097 249.14C570.691 253.899 574.177 260.7 574.788 268.046C575.25 273.389 574.117 278.748 571.534 283.439L525.611 287.303C522.254 283.129 520.213 278.04 519.75 272.69Z" fill="#FFA476"/>
<path d="M526.591 272.117C526.875 276.253 528.375 280.211 530.901 283.486C533.427 286.762 536.863 289.207 540.774 290.51C544.684 291.813 548.891 291.916 552.859 290.806C556.828 289.695 560.379 287.421 563.059 284.273C565.74 281.125 567.43 277.245 567.913 273.128C568.397 269.01 567.652 264.841 565.774 261.151C563.897 257.46 560.971 254.416 557.369 252.404C553.767 250.393 549.652 249.506 545.547 249.855C540.107 250.294 535.061 252.881 531.509 257.052C527.957 261.223 526.189 266.639 526.591 272.117Z" fill="#2F2F2F"/>
<path d="M538.676 271.099C538.791 272.822 539.414 274.471 540.463 275.836C541.513 277.201 542.942 278.221 544.57 278.766C546.197 279.311 547.949 279.356 549.602 278.895C551.255 278.435 552.734 277.49 553.852 276.18C554.969 274.871 555.674 273.256 555.878 271.542C556.081 269.828 555.772 268.092 554.992 266.555C554.212 265.018 552.994 263.749 551.495 262.91C549.996 262.071 548.283 261.701 546.574 261.845C544.308 262.02 542.204 263.092 540.723 264.828C539.242 266.563 538.506 268.818 538.676 271.099Z" fill="#000033"/>
<path d="M405.646 128.8L399.201 128.927C396.389 128.927 394.256 128.927 392.266 130.946C390.275 132.966 388.553 136.066 390.686 139.803C394.92 147.086 398.126 138.213 398.126 138.213C400.024 138.597 401.986 138.53 403.853 138.017C405.721 137.503 407.444 136.558 408.884 135.256L405.646 128.8Z" fill="#FFB9B4"/>
<path d="M405.646 128.8L435.661 109.48C436.553 108.956 437.547 108.634 438.575 108.535C439.603 108.436 440.64 108.562 441.614 108.905C442.589 109.248 443.478 109.8 444.22 110.522C444.962 111.245 445.54 112.12 445.913 113.089C446.246 113.992 446.395 114.953 446.351 115.915C446.307 116.878 446.07 117.821 445.656 118.689C445.242 119.557 444.658 120.332 443.939 120.968C443.221 121.605 442.383 122.089 441.474 122.391L408.948 135.24L405.646 128.8Z" fill="#FFB9B4"/>
<path d="M444.997 111.515L423.971 83.9584L414.398 98.5398L433.386 118.13L444.997 111.515Z" fill="#FFB9B4"/>
<path d="M415.662 66.5782C428.015 74.8787 446.356 97.2993 446.356 97.2993C443.323 105.965 423.434 117.383 423.434 117.383L409.216 101.593L415.662 66.5782Z" fill="white"/>
<path d="M420.985 114.027L402.502 93.8329" stroke="#D8D8D8" stroke-width="0.72" stroke-miterlimit="10"/>
<path d="M394.619 49.4527C405.464 49.4527 414.256 40.7459 414.256 30.0055C414.256 19.2652 405.464 10.5584 394.619 10.5584C383.775 10.5584 374.983 19.2652 374.983 30.0055C374.983 40.7459 383.775 49.4527 394.619 49.4527Z" fill="#000033"/>
<path d="M405.109 23.5656C411.103 23.5656 415.962 18.7531 415.962 12.8164C415.962 6.87982 411.103 2.06723 405.109 2.06723C399.115 2.06723 394.256 6.87982 394.256 12.8164C394.256 18.7531 399.115 23.5656 405.109 23.5656Z" fill="#000033"/>
<path d="M385.615 16.9348C385.615 16.9348 364.131 17.38 375.236 36.8749L385.71 36.1752L385.615 16.9348Z" fill="#000033"/>
<path d="M384.398 39.5305C384.485 40.2272 384.433 40.9342 384.247 41.6108C384.06 42.2873 383.743 42.9201 383.313 43.4728C382.883 44.0255 382.348 44.4871 381.74 44.8312C381.132 45.1752 380.463 45.3949 379.77 45.4775C378.736 45.5978 377.69 45.4074 376.763 44.9305C375.836 44.4535 375.07 43.7113 374.561 42.7972C374.052 41.8831 373.824 40.8379 373.904 39.7933C373.984 38.7486 374.369 37.7511 375.011 36.9263C375.653 36.1015 376.523 35.4863 377.511 35.158C378.5 34.8297 379.563 34.8031 380.566 35.0815C381.57 35.3599 382.469 35.9308 383.151 36.7225C383.833 37.5141 384.267 38.4911 384.398 39.5305Z" fill="#FF9592"/>
<path d="M387.463 54.2548L388.648 63.9864C389.154 68.0253 391.918 69.8857 395.931 69.3769C399.343 68.9316 402.96 69.6631 402.96 66.1966L399.438 47.1152L387.463 54.2548Z" fill="#FFB9B4"/>
<path d="M388.332 61.474L398.411 53.1736L387.289 53.0941L388.332 61.474Z" fill="#FF9592"/>
<path d="M391.112 55.9244C384.241 56.3379 378.238 51.2972 377.7 45.7477L376.516 32.6451C376.217 29.2711 377.236 25.9126 379.356 23.2823C381.477 20.652 384.532 18.9569 387.874 18.5567C395.046 17.6503 402.866 22.5002 403.782 29.5921L404.619 40.1505C405.267 48.3078 399.311 54.875 391.112 55.9244Z" fill="#FFB9B4"/>
<path d="M384.604 43.3307L384.462 45.7318H386.263" stroke="#2F2F2F" stroke-width="0.57" stroke-linecap="round" stroke-linejoin="round"/>
<path d="M392.408 34.1559C392.408 34.1559 389.422 34.0287 389.438 35.269C389.438 35.269 389.438 36.1118 392.092 36.1595C394.746 36.2072 395.362 36.0005 395.551 35.2054C395.741 34.4103 393.798 34.1082 392.408 34.1559Z" fill="#2F2F2F"/>
<path d="M379.991 34.9826C379.991 34.9826 382.424 34.6328 382.677 35.7777C382.677 35.7777 382.835 36.5727 380.686 36.8272C378.538 37.0816 377.827 36.8271 377.527 36.2229C377.226 35.6187 378.822 35.0939 379.991 34.9826Z" fill="#2F2F2F"/>
<path d="M393.15 39.9756C392.606 40.4854 391.9 40.7856 391.158 40.8234C390.415 40.8612 389.683 40.6342 389.09 40.1823" stroke="#2F2F2F" stroke-width="0.57" stroke-linecap="round" stroke-linejoin="round"/>
<path d="M382.029 40.898C382.029 40.898 380.939 42.663 378.696 41.0888" stroke="#2F2F2F" stroke-width="0.57" stroke-linecap="round" stroke-linejoin="round"/>
<path d="M385.015 48.8486C385.724 49.0215 386.463 49.0386 387.18 48.8986C387.897 48.7587 388.575 48.465 389.169 48.0376" stroke="#2F2F2F" stroke-width="0.57" stroke-linecap="round" stroke-linejoin="round"/>
<path d="M380.133 20.5761C380.133 20.5761 388.237 30.8801 404.603 29.6239C404.603 29.6239 400.954 18.5885 391.381 16.903C381.808 15.2174 380.133 20.5761 380.133 20.5761Z" fill="#000033"/>
<path d="M396.863 22.1028C396.863 22.1028 391.112 30.8325 402.96 38.4174C402.96 38.4174 413.15 30.2283 406.23 23.6293C399.311 17.0303 396.863 22.1028 396.863 22.1028Z" fill="#000033"/>
<path d="M410.954 38.2743C411.105 39.336 410.939 40.4189 410.477 41.3854C410.015 42.3519 409.278 43.1581 408.359 43.7017C407.44 44.2452 406.382 44.5015 405.318 44.4378C404.255 44.3741 403.234 43.9935 402.386 43.3442C401.538 42.6949 400.9 41.8064 400.555 40.7917C400.21 39.7769 400.173 38.6818 400.448 37.6456C400.723 36.6093 401.298 35.6789 402.1 34.9725C402.902 34.2662 403.894 33.8158 404.951 33.6788C405.645 33.5804 406.352 33.6214 407.031 33.7996C407.709 33.9777 408.346 34.2895 408.904 34.7168C409.462 35.1441 409.931 35.6784 410.283 36.2891C410.635 36.8997 410.863 37.5744 410.954 38.2743Z" fill="#FFB9B4"/>
<path d="M403.971 40.7548C403.896 40.2871 403.925 39.8083 404.056 39.3533C404.188 38.8983 404.419 38.4786 404.732 38.125C405.046 37.7714 405.434 37.4928 405.868 37.3095C406.302 37.1263 406.771 37.043 407.242 37.0657" stroke="#2F2F2F" stroke-width="0.57" stroke-linecap="round" stroke-linejoin="round"/>
<path d="M413.639 34.8873C413.639 34.8873 415.219 29.5763 414.145 27.2388C407.747 12.5461 392.392 13.8659 389.248 12.1645L391.981 13.6433C392.503 13.6274 408.237 20.6716 413.639 34.8873Z" fill="#FD8970"/>
<path d="M395.125 11.7193C395.125 11.7193 401.27 7.29872 411.001 10.1291C411.001 10.1291 399.722 21.0851 393.087 14.2157L395.125 11.7193Z" fill="#FFA476"/>
<path d="M390.702 10.9401C390.702 10.9401 390.133 6.74217 377.353 4.42059C377.353 4.42059 378.49 18.5726 390.654 13.6751" fill="#FFA476"/>
<path d="M394.493 13.4683C394.493 13.4683 395.425 12.5143 399.232 12.6097" stroke="#FFDECD" stroke-width="0.52" stroke-miterlimit="10"/>
<path d="M390.844 12.562C389.649 11.5169 388.114 10.9508 386.531 10.9718" stroke="#FFDECD" stroke-width="0.52" stroke-miterlimit="10"/>
<path d="M390.322 12.244C390.291 12.8117 390.429 13.3758 390.718 13.8645C391.007 14.3531 391.433 14.7441 391.944 14.9876C392.454 15.2312 393.025 15.3162 393.584 15.2318C394.142 15.1474 394.663 14.8976 395.08 14.514C395.497 14.1304 395.791 13.6306 395.925 13.0781C396.058 12.5257 396.025 11.9458 395.83 11.4123C395.635 10.8787 395.286 10.4158 394.829 10.0825C394.371 9.74918 393.825 9.56061 393.261 9.54079C392.891 9.52157 392.521 9.57649 392.172 9.70236C391.824 9.82824 391.504 10.0226 391.23 10.274C390.957 10.5255 390.736 10.8292 390.58 11.1674C390.424 11.5055 390.337 11.8715 390.322 12.244Z" fill="#FFA476"/>
<path d="M388.648 63.9863C388.648 63.9863 380.102 70.9352 384.462 74.3539C388.822 77.7727 403.782 70.7284 402.96 66.2443L388.648 63.9863Z" fill="#FFB9B4"/>
<path d="M131.893 277.155L128.781 247.15L114.959 249.376L120.456 280.208L132.115 277.553L131.893 277.155Z" fill="#AD5E4C"/>
<path d="M118.134 274.85C118.134 274.85 128.386 278.173 132.541 271.304L157.659 281.894L115.827 284.979L118.134 274.85Z" fill="#2F2F2F"/>
<path d="M132.731 276.758C132.829 276.695 132.915 276.614 132.983 276.519C133.776 275.262 134.756 274.136 135.89 273.18C135.959 273.13 136.018 273.066 136.061 272.992C136.105 272.918 136.133 272.836 136.143 272.751C136.153 272.666 136.146 272.579 136.122 272.497C136.097 272.415 136.056 272.339 136.001 272.273C135.884 272.14 135.723 272.055 135.548 272.034C135.373 272.013 135.196 272.059 135.053 272.162C133.818 273.221 132.752 274.466 131.893 275.851C131.848 275.924 131.818 276.005 131.804 276.09C131.791 276.174 131.795 276.261 131.815 276.344C131.836 276.427 131.873 276.505 131.924 276.574C131.976 276.642 132.041 276.699 132.114 276.742C132.211 276.786 132.315 276.81 132.421 276.813C132.527 276.815 132.632 276.797 132.731 276.758Z" fill="white"/>
<path d="M136.143 278.141C136.249 278.088 136.336 278.005 136.396 277.902C137.18 276.644 138.161 275.521 139.302 274.579C139.372 274.529 139.43 274.465 139.474 274.391C139.517 274.318 139.545 274.236 139.555 274.15C139.566 274.065 139.558 273.979 139.534 273.897C139.509 273.814 139.468 273.738 139.413 273.673C139.299 273.536 139.137 273.448 138.961 273.428C138.785 273.407 138.607 273.455 138.465 273.561C137.227 274.612 136.161 275.851 135.306 277.235C135.26 277.307 135.23 277.388 135.217 277.473C135.203 277.558 135.207 277.644 135.228 277.727C135.248 277.81 135.285 277.889 135.337 277.957C135.388 278.025 135.453 278.082 135.527 278.125C135.621 278.175 135.726 278.203 135.833 278.206C135.94 278.208 136.046 278.186 136.143 278.141Z" fill="white"/>
<path d="M139.555 279.62C139.654 279.558 139.74 279.477 139.808 279.381C140.6 278.124 141.581 276.998 142.715 276.042C142.784 275.992 142.842 275.928 142.886 275.854C142.929 275.781 142.957 275.698 142.968 275.613C142.978 275.528 142.971 275.442 142.946 275.359C142.922 275.277 142.88 275.201 142.825 275.136C142.709 275.002 142.548 274.917 142.373 274.896C142.197 274.876 142.021 274.921 141.877 275.024C140.642 276.083 139.577 277.328 138.718 278.713C138.673 278.786 138.642 278.867 138.629 278.952C138.615 279.036 138.619 279.123 138.64 279.206C138.66 279.289 138.698 279.367 138.749 279.436C138.8 279.504 138.865 279.561 138.939 279.604C139.035 279.648 139.14 279.672 139.245 279.675C139.351 279.678 139.457 279.659 139.555 279.62Z" fill="white"/>
<path d="M101.31 125.808L106.839 140.516L130.013 199.351L135.369 260.968C135.369 260.968 109.888 263.607 109.003 263.401C108.118 263.194 102.431 205.838 102.431 205.838L76.5868 151.933L79.4303 122.278L101.31 125.808Z" fill="#2F2F2F"/>
<path d="M38.8785 271.415L52.7012 244.447L38.9575 241.187L26.8883 269.984L38.7679 272.576L38.8785 271.415Z" fill="#AD5E4C"/>
<path d="M27.536 263.719C27.536 263.719 35.1977 271.351 41.9748 267.122L59.6362 288L20.9327 271.717L27.536 263.719Z" fill="#2F2F2F"/>
<path d="M58.2618 291.291L19.5741 275.009L20.9327 271.749L59.6362 288.032L58.2618 291.291Z" fill="white"/>
<path d="M158.166 285.244L116.326 288.063L115.67 284.631L157.533 282.246L158.166 285.244Z" fill="white"/>
<path d="M39.621 272.13C39.7373 272.142 39.8542 272.114 39.9528 272.051C41.2215 271.3 42.6035 270.763 44.0443 270.461C44.128 270.446 44.208 270.414 44.2791 270.367C44.3503 270.32 44.4113 270.259 44.4585 270.188C44.5057 270.116 44.5382 270.036 44.5538 269.952C44.5695 269.868 44.5682 269.781 44.5498 269.698C44.5083 269.526 44.4038 269.376 44.2573 269.279C44.1108 269.182 43.9331 269.144 43.7599 269.173C42.161 269.526 40.6298 270.138 39.2261 270.986C39.1535 271.029 39.0903 271.088 39.0405 271.157C38.9906 271.226 38.9551 271.304 38.9359 271.387C38.9168 271.47 38.9144 271.556 38.929 271.64C38.9435 271.724 38.9747 271.804 39.0207 271.876C39.0942 271.963 39.1868 272.031 39.291 272.075C39.3952 272.119 39.5082 272.138 39.621 272.13Z" fill="white"/>
<path d="M42.1011 274.929C42.2181 274.927 42.3326 274.894 42.4329 274.834C43.7096 274.1 45.0889 273.564 46.5244 273.244C46.6075 273.23 46.6871 273.2 46.7582 273.155C46.8293 273.11 46.8904 273.05 46.9378 272.98C46.9851 272.91 47.0178 272.831 47.0336 272.748C47.0495 272.665 47.0482 272.579 47.0299 272.496C46.9919 272.323 46.8882 272.171 46.7407 272.073C46.5932 271.975 46.4136 271.938 46.24 271.972C44.6385 272.316 43.1059 272.929 41.7062 273.784C41.6336 273.828 41.5704 273.886 41.5206 273.955C41.4707 274.024 41.4352 274.103 41.416 274.186C41.3969 274.269 41.3945 274.355 41.4091 274.439C41.4236 274.523 41.4548 274.603 41.5008 274.675C41.5743 274.761 41.6669 274.829 41.7711 274.873C41.8753 274.918 41.9883 274.937 42.1011 274.929Z" fill="white"/>
<path d="M44.5182 277.728C44.6356 277.728 44.7507 277.695 44.85 277.632C46.1228 276.89 47.5034 276.353 48.9415 276.042C49.0263 276.029 49.1075 275.998 49.1799 275.952C49.2523 275.906 49.3143 275.845 49.3619 275.773C49.4094 275.701 49.4416 275.62 49.4563 275.535C49.4709 275.45 49.4678 275.363 49.447 275.279C49.4055 275.107 49.301 274.958 49.1545 274.86C49.008 274.763 48.8303 274.725 48.6571 274.754C47.0582 275.107 45.527 275.719 44.1233 276.567C44.0497 276.612 43.9861 276.672 43.9363 276.743C43.8866 276.814 43.8517 276.894 43.834 276.979C43.8162 277.064 43.8159 277.151 43.8331 277.236C43.8502 277.321 43.8845 277.402 43.9337 277.473C44.0031 277.56 44.0926 277.629 44.1945 277.674C44.2964 277.718 44.4076 277.736 44.5182 277.728Z" fill="white"/>
<path d="M89.0508 148.833L77.9926 204.487L48.7833 260.3L25.5454 252.588L46.5243 199.271L51.9428 161.665C51.9428 161.665 53.2382 131.802 63.9646 119.829L87.4237 129.37L89.0508 148.833Z" fill="#2F2F2F"/>
<path d="M85.0226 169.902L93.8534 161.077" stroke="#000033" stroke-width="0.86" stroke-miterlimit="10"/>
<path d="M111.325 73.6995L122.004 101.224L107.897 113.293L102.321 77.8656L111.325 73.6995Z" fill="#AD5E4C"/>
<path d="M97.9133 54.9203C97.9133 54.9203 107.502 57.7666 117.897 76.7844L100.52 85.8958L97.9133 54.9203Z" fill="#46549E"/>
<path d="M70.6786 49.0685L48.9414 59.1022L52.1009 112.308L52.0061 147.115L111.831 142.599L103.948 67.1959L97.9133 54.9202L82.5266 49.0685H70.6786Z" fill="#46549E"/>
<path d="M57.6773 87.8038L45.5134 115.838C45.1022 116.882 44.4862 117.832 43.7022 118.631C42.9182 119.431 41.9823 120.063 40.9502 120.491C39.9182 120.918 38.8112 121.132 37.6953 121.119C36.5794 121.106 35.4775 120.868 34.4552 120.417C32.5798 119.603 31.0687 118.121 30.2117 116.255C29.3547 114.388 29.2119 112.269 29.8108 110.304L38.9891 80.8549L57.6773 87.8038Z" fill="#AD5E4C"/>
<path d="M56.4609 90.5867L63.6013 75.2261C64.7428 72.3613 64.7612 69.167 63.6527 66.2891C62.5442 63.4111 60.3917 61.0641 57.63 59.7225C56.2101 59.014 54.6605 58.6078 53.0777 58.5291C51.495 58.4503 49.913 58.7007 48.4307 59.2647C46.9484 59.8287 45.5975 60.6942 44.4622 61.8071C43.327 62.92 42.4318 64.2565 41.8325 65.7331L34.8817 83.2244L56.4609 90.5867Z" fill="#46549E"/>
<path d="M177.769 252.922L27.9467 15.533" stroke="#2F2F2F" stroke-width="2.01" stroke-miterlimit="10"/>
<path d="M171.829 254.703C172.145 255.514 175.668 261.063 175.668 261.063H188.811L185.415 254.703H171.829Z" fill="#2F2F2F"/>
<path d="M186.884 254.703H169.049C168.039 254.703 167.071 254.299 166.357 253.58C165.643 252.862 165.242 251.887 165.242 250.871C165.242 250.368 165.34 249.87 165.532 249.406C165.723 248.942 166.004 248.521 166.358 248.166C166.711 247.812 167.131 247.531 167.593 247.34C168.055 247.149 168.55 247.052 169.049 247.054H186.884C187.383 247.052 187.878 247.149 188.34 247.34C188.802 247.531 189.221 247.812 189.575 248.166C189.929 248.521 190.21 248.942 190.401 249.406C190.593 249.87 190.691 250.368 190.691 250.871C190.691 251.887 190.29 252.862 189.576 253.58C188.862 254.299 187.894 254.703 186.884 254.703Z" fill="#46549E"/>
<path d="M175.668 261.047C175.668 261.047 162.493 262.638 176.805 278.539L177.121 278.841C184.638 285.773 194.462 289.619 204.656 289.622H249.047C249.684 289.622 250.294 289.367 250.745 288.914C251.195 288.461 251.448 287.846 251.448 287.205C251.446 286.598 251.217 286.015 250.807 285.57C250.398 285.125 249.837 284.852 249.236 284.804L226.125 282.975C226.125 282.975 227.231 274.102 206.299 273.005C206.299 273.005 206.299 261.54 188.811 261.063L175.668 261.047Z" fill="#46549E"/>
<path d="M109.445 100.572L95.3225 120.608L103.948 127.636L120.851 110.145C121.539 109.437 122.079 108.599 122.443 107.679C122.806 106.759 122.983 105.776 122.966 104.786C122.948 103.797 122.735 102.82 122.34 101.914C121.944 101.008 121.374 100.19 120.661 99.5071C119.89 98.7621 118.968 98.1931 117.959 97.839C116.949 97.4849 115.875 97.3539 114.811 97.455C113.747 97.5561 112.717 97.8869 111.791 98.4249C110.865 98.9628 110.065 99.6953 109.445 100.572Z" fill="#AD5E4C"/>
<path d="M102.147 134.474C103.817 133.505 105.164 132.06 106.018 130.321C106.872 128.581 107.194 126.627 106.944 124.703C106.695 122.779 105.884 120.973 104.615 119.513C103.346 118.053 101.675 117.005 99.8139 116.5C97.9528 115.996 95.985 116.058 94.1591 116.679C92.3332 117.3 90.7312 118.452 89.5556 119.99C88.38 121.527 87.6837 123.381 87.5545 125.316C87.4253 127.252 87.8691 129.183 88.8299 130.865C89.4683 131.982 90.3194 132.962 91.3344 133.749C92.3494 134.535 93.5084 135.112 94.7452 135.448C95.982 135.783 97.2723 135.869 98.5424 135.702C99.8124 135.535 101.037 135.118 102.147 134.474Z" fill="#AD5E4C"/>
<path d="M87.9451 123.168C87.9451 123.168 84.6908 120.115 88.9245 117.221C93.1582 114.327 100.204 112.912 105.749 121.069L87.9451 123.168Z" fill="#AD5E4C"/>
<path d="M75.9549 108.142C74.0277 108.004 72.1842 107.294 70.658 106.102C69.1319 104.909 67.9916 103.287 67.3815 101.442C66.7715 99.5968 66.7191 97.6108 67.231 95.7355C67.7429 93.8602 68.7962 92.18 70.2573 90.9075C71.7185 89.6351 73.5219 88.8277 75.4392 88.5875C77.3565 88.3474 79.3015 88.6852 81.028 89.5584C82.7544 90.4315 84.1846 91.8006 85.1376 93.4924C86.0905 95.1841 86.5233 97.1225 86.3812 99.062C86.1911 101.656 84.9869 104.069 83.0324 105.771C81.078 107.473 78.5328 108.325 75.9549 108.142Z" fill="#AD5E4C"/>
<path d="M83.8536 91.7473C83.8536 91.7473 85.4334 87.5652 80.394 86.802C75.3546 86.0387 68.3722 87.8674 66.9031 97.6307L83.8536 91.7473Z" fill="#AD5E4C"/>
<path d="M30.7745 117.428C31.2045 118.509 31.8723 119.479 32.7278 120.263C33.5832 121.048 34.6041 121.627 35.7138 121.957C36.8235 122.288 37.9932 122.361 39.135 122.171C40.2769 121.982 41.3612 121.534 42.3066 120.862L76.966 103.228L74.1067 92.4471L34.2657 107.744C32.6027 108.644 31.3273 110.129 30.6833 111.915C30.0393 113.701 30.0717 115.664 30.7745 117.428Z" fill="#AD5E4C"/>
<path d="M90.6781 25.8211C90.3994 27.2735 90.7032 28.7779 91.5232 30.0055C92.3431 31.2331 93.6126 32.084 95.054 32.3724C96.1489 32.6041 97.2876 32.5019 98.3245 32.0787C99.3614 31.6555 100.249 30.9306 100.875 29.9967C101.5 29.0628 101.835 27.9623 101.835 26.836C101.836 25.7097 101.503 24.6089 100.878 23.6743C100.254 22.7396 99.3671 22.0136 98.3307 21.5892C97.2943 21.1648 96.1557 21.0612 95.0604 21.2917C93.9652 21.5222 92.9632 22.0763 92.1825 22.8832C91.4018 23.69 90.878 24.7129 90.6781 25.8211Z" fill="#000033"/>
<path d="M86.7919 38.3829L85.3228 51.8035C84.8172 56.5739 81.7525 58.7206 77.2977 58.164C73.4905 57.7029 69.5096 55.3813 70.1257 51.2311L71.816 30.1779L86.7919 38.3829Z" fill="#AD5E4C"/>
<path d="M82.4002 43.5827C90.0146 44.4414 96.9812 38.9078 97.8975 32.4519L99.7773 18.9677C100.387 15.15 99.5033 11.2431 97.3117 8.06752C95.1201 4.89192 91.7911 2.69472 88.0241 1.9375C80.1254 0.490493 71.1525 5.72201 69.6991 13.9429L68.3564 24.4536C67.7424 28.8581 68.8695 33.3293 71.4956 36.9062C74.1216 40.4832 78.037 42.8804 82.4002 43.5827Z" fill="#AD5E4C"/>
<path d="M98.2134 30.2734C98.2134 30.2734 97.8658 35.0438 94.106 35.9501C92.5757 34.8667 90.8044 34.1783 88.9479 33.9454C87.0913 33.7125 85.2063 33.9423 83.4586 34.6145C76.8237 36.7293 71.9897 23.3564 71.9897 23.3564L68.4353 29.7169C68.4353 29.7169 67.3769 45.4909 85.5912 45.4432C88.7507 45.4432 97.3603 43.694 97.8974 32.4996" fill="#2F2F2F"/>
<path d="M99.414 12.3528C91.5523 13.4263 83.5559 12.8854 75.9076 10.7627L75.8128 16.026C73.9456 18.1065 72.6306 20.6279 71.9898 23.3564L68.0563 20.5578L67.0927 14.4359C66.5871 11.5225 67.2211 8.52518 68.862 6.07185C71.8635 1.77853 77.8507 -0.908791 86.3339 0.283798C89.5212 0.609596 92.5199 1.95892 94.8868 4.13229C97.2536 6.30567 98.8631 9.18784 99.4773 12.3528H99.414Z" fill="#2F2F2F"/>
<path d="M90.4252 30.0985L90.3937 32.8176L88.5138 32.6745" stroke="#2F2F2F" stroke-width="0.5" stroke-linecap="round" stroke-linejoin="round"/>
<path d="M84.0906 18.4906C84.0906 18.4906 87.2501 18.5701 87.1237 19.8899C87.1237 19.8899 87.0289 20.7803 84.2802 20.669C81.5314 20.5577 80.8521 20.2556 80.6941 19.381C80.5362 18.5064 82.6215 18.3315 84.0906 18.4906Z" fill="#2F2F2F"/>
<path d="M96.0018 19.6991C96.0018 19.6991 93.4584 19.1426 93.1108 20.3511C93.1108 20.3511 92.9055 21.1779 95.1329 21.6231C97.3603 22.0684 98.1343 21.8458 98.4187 21.1938C98.7031 20.5419 97.2182 19.8581 96.0018 19.6991Z" fill="#2F2F2F"/>
<path d="M93.3321 27.4111C93.3072 27.5834 93.3163 27.7589 93.3588 27.9276C93.4013 28.0964 93.4763 28.255 93.5798 28.3946C93.6832 28.5341 93.8129 28.6518 93.9615 28.7409C94.1101 28.8299 94.2747 28.8887 94.4458 28.9137C94.617 28.9388 94.7913 28.9297 94.9589 28.8869C95.1266 28.8441 95.2842 28.7685 95.4228 28.6644C95.5614 28.5603 95.6783 28.4298 95.7668 28.2802C95.8553 28.1306 95.9138 27.965 95.9387 27.7927C95.9982 27.4323 95.9136 27.0628 95.7035 26.7649C95.4934 26.4669 95.1747 26.2648 94.817 26.2026C94.6405 26.1828 94.4618 26.1984 94.2913 26.2485C94.1209 26.2987 93.962 26.3824 93.8239 26.4948C93.6858 26.6072 93.5712 26.7461 93.4868 26.9034C93.4024 27.0606 93.3498 27.2332 93.3321 27.4111Z" fill="#2F2F2F"/>
<path d="M81.9264 25.7416C81.9015 25.995 81.95 26.2503 82.0661 26.4767C82.1822 26.703 82.3608 26.8906 82.5805 27.017C82.8002 27.1435 83.0515 27.2032 83.3041 27.189C83.5568 27.1749 83.7999 27.0874 84.0042 26.9372C84.2086 26.7871 84.3655 26.5806 84.4559 26.3427C84.5462 26.1048 84.5663 25.8456 84.5136 25.5965C84.4609 25.3474 84.3379 25.119 84.1591 24.9388C83.9803 24.7585 83.7535 24.6342 83.5061 24.5808C83.3258 24.5444 83.1399 24.5461 82.9603 24.5858C82.7807 24.6255 82.6112 24.7024 82.4627 24.8116C82.3141 24.9207 82.1898 25.0598 82.0974 25.2199C82.0051 25.38 81.9469 25.5576 81.9264 25.7416Z" fill="#2F2F2F"/>
<path d="M88.7982 28.1902C88.6586 29.3229 88.1885 30.3884 87.4474 31.2521C86.7063 32.1159 85.7274 32.7391 84.6345 33.0431C83.5416 33.347 82.3837 33.318 81.3072 32.9597C80.2306 32.6014 79.2838 31.9299 78.5863 31.0301C77.8888 30.1303 77.472 29.0426 77.3885 27.9044C77.305 26.7662 77.5587 25.6286 78.1173 24.6354C78.676 23.6423 79.5146 22.8381 80.5271 22.3246C81.5397 21.811 82.6808 21.6112 83.8062 21.7502C84.5542 21.8427 85.2769 22.0827 85.9328 22.4565C86.5887 22.8303 87.1648 23.3305 87.6284 23.9286C88.0921 24.5268 88.4341 25.211 88.6348 25.9423C88.8355 26.6735 88.891 27.4374 88.7982 28.1902Z" stroke="white" stroke-width="0.3" stroke-miterlimit="10"/>
<path d="M102.368 29.844C102.201 30.9222 101.721 31.9269 100.989 32.7323C100.258 33.5376 99.3063 34.108 98.2542 34.3719C97.2021 34.6358 96.0961 34.5815 95.0745 34.216C94.0528 33.8505 93.161 33.1898 92.5104 32.3167C91.8598 31.4436 91.4795 30.3968 91.4169 29.3072C91.3543 28.2177 91.6124 27.1338 92.1587 26.191C92.7049 25.2483 93.5153 24.4886 94.4882 24.007C95.4612 23.5254 96.5536 23.3433 97.6289 23.4835C99.0908 23.704 100.408 24.4949 101.295 25.6853C102.182 26.8756 102.567 28.3696 102.368 29.844V29.844Z" stroke="white" stroke-width="0.29" stroke-miterlimit="10"/>
<path d="M88.7823 28.556L91.4363 28.8422" stroke="white" stroke-width="0.29" stroke-miterlimit="10"/>
<path d="M77.4872 26.1232L71.1682 22.291" stroke="white" stroke-width="0.29" stroke-miterlimit="10"/>
<path d="M61.3898 23.4358C61.2373 24.4879 61.3955 25.5619 61.8448 26.5242C62.294 27.4865 63.0144 28.2947 63.9163 28.8481C64.8183 29.4015 65.862 29.6759 66.9176 29.6369C67.9732 29.598 68.9941 29.2475 69.8534 28.6291C70.7126 28.0106 71.3723 27.1516 71.7503 26.1587C72.1284 25.1659 72.2081 24.0831 71.9795 23.045C71.751 22.0069 71.2242 21.0594 70.4649 20.3203C69.7055 19.5812 68.7471 19.0831 67.7087 18.888C66.2724 18.6532 64.8021 18.9996 63.6184 19.8515C62.4347 20.7034 61.6336 21.9918 61.3898 23.4358Z" fill="#AD5E4C"/>
<path d="M68.2458 26.3776C68.2458 26.3776 68.9567 22.3864 65.0863 22.3387" stroke="#2F2F2F" stroke-width="0.5" stroke-linecap="round" stroke-linejoin="round"/>
<path d="M70.805 49.1799L63.6488 52.3601C63.6488 52.3601 63.5382 63.6818 80.6941 61.9803C80.6941 61.9803 90.4095 60.5969 90.1726 52.0103L80.4571 47.9714L70.805 49.1799Z" fill="#AD5E4C"/>
</svg>
