<svg width="125" height="115" viewBox="0 0 125 115" fill="none" xmlns="http://www.w3.org/2000/svg">
<ellipse rx="56.5398" ry="56.8863" transform="matrix(0.999999 0.00138783 0.00137937 0.999999 67.4263 56.9648)" fill="#EDEEF5"/>
<path d="M101.931 60.896L93.3214 61.3472L92.568 46.9717C92.5068 45.8044 91.5169 44.907 90.3573 44.9678C83.41 45.3318 77.4597 39.9379 77.0931 32.9439L76.65 24.4877C76.5888 23.3203 75.5989 22.423 74.4393 22.4837L70.2395 22.7038L69.9847 17.8416C69.557 9.68181 62.615 3.3889 54.5098 3.81367C46.4046 4.23845 40.1584 11.2225 40.5861 19.3823L40.8409 24.2446L36.6411 24.4647C35.4813 24.5254 34.5908 25.5214 34.652 26.6887L35.0951 35.1449C35.4617 42.139 30.1078 48.1253 23.1605 48.4894C22.0007 48.5502 21.1102 49.5461 21.1714 50.7135L21.9248 65.0889L13.3152 65.5401C10.4205 65.6918 7.94118 63.4444 7.78845 60.5302C7.63573 57.616 9.86651 55.1217 12.7612 54.9699C13.921 54.9092 14.8115 53.9132 14.7503 52.7459C14.6892 51.5785 13.6994 50.6811 12.5396 50.7419C7.32916 51.0149 3.31374 55.5047 3.58865 60.7503C3.86356 65.9958 8.32628 70.0413 13.5368 69.7682L22.1464 69.317L22.6006 77.9845C23.6391 97.8011 40.4983 113.084 60.1824 112.052C79.8664 111.021 95.0358 94.0593 93.9972 74.2428L93.543 65.5752L102.153 65.124C105.047 64.9723 107.527 67.2198 107.679 70.134C107.832 73.0482 105.601 75.5425 102.707 75.6942C101.547 75.755 100.656 76.7509 100.717 77.9183C100.779 79.0857 101.769 79.983 102.928 79.9223C108.139 79.6492 112.154 75.1594 111.879 69.9139C111.604 64.6683 107.141 60.6229 101.931 60.896ZM44.7859 19.1622C44.4804 13.3338 48.942 8.34515 54.7314 8.04174C60.5208 7.73833 65.4794 12.2333 65.7849 18.0617L66.0397 22.9239L45.0407 24.0244L44.7859 19.1622ZM89.7974 74.4629C90.7138 91.9481 77.3291 106.914 59.9608 107.824C42.5925 108.734 27.7168 95.2496 26.8004 77.7644L25.4751 52.4759C33.0119 51.1213 38.7204 44.7337 39.2711 37.0459L47.8053 36.5986C48.9624 36.538 49.8555 35.5394 49.7944 34.3745C49.7334 33.2097 48.7408 32.3099 47.5838 32.3705L39.1842 32.8107L38.9626 28.5827L72.561 26.8219L72.7826 31.0499L64.383 31.4901C63.2236 31.5509 62.3328 32.5494 62.3938 33.7142C62.4549 34.879 63.4452 35.779 64.6045 35.7182L73.139 35.2709C74.4901 42.8591 80.8352 48.615 88.4721 49.1744L89.7974 74.4629Z" fill="#303683"/>
<path d="M78.0707 71.6856L38.1726 73.7765C37.0128 73.8373 36.1223 74.8333 36.1835 76.0006C36.8249 88.2403 47.238 97.6796 59.3958 97.0425C71.5535 96.4053 80.9228 85.9292 80.2814 73.6896C80.2202 72.5222 79.2303 71.6248 78.0707 71.6856ZM59.1742 92.8144C50.0421 93.293 42.1264 86.7497 40.6169 77.8881L76.0695 76.0301C75.4946 85.0009 68.3062 92.3358 59.1742 92.8144Z" fill="#303683"/>
<path d="M56.2049 36.1584C57.362 36.0978 58.2551 35.0992 58.194 33.9343C58.133 32.7695 57.1404 31.8697 55.9833 31.9304C54.8263 31.991 53.9332 32.9896 53.9942 34.1544C54.0553 35.3193 55.0479 36.2191 56.2049 36.1584Z" fill="#303683"/>
</svg>
