<svg width="60" height="60" viewBox="0 0 60 60" fill="none" xmlns="http://www.w3.org/2000/svg">
<path fill-rule="evenodd" clip-rule="evenodd" d="M51.1421 27.6575C51.4912 16.6675 39.9188 9.45643 28.9288 9.10731C17.939 8.75821 4.28562 14.9999 4.28619 31.0715C4.11757 36.3796 7.72239 42.2109 12.8573 45.8829V43.9288H15.0001V47.2372C15.6964 47.6222 16.4122 47.967 17.143 48.266V43.9288H19.2858V48.996C19.992 49.1887 20.7075 49.337 21.4287 49.4364V43.9288H23.5716V49.5836C26.3723 49.5794 29.2032 48.7893 31.8547 46.9623C32.6903 46.3865 33.5008 45.8506 34.2859 45.3482V28.9288H51.0688C51.1036 28.5218 51.1281 28.0985 51.1421 27.6575ZM25.0491 35.3573H11.3882L11.1456 37.5002H25.2834L25.0491 35.3573Z" fill="#F7F9FC"/>
<path fill-rule="evenodd" clip-rule="evenodd" d="M24.787 35.3571H9.49871C10.0005 32.8877 12.1796 31.0714 14.7479 31.0714H19.5378C22.1061 31.0714 24.2852 32.8877 24.787 35.3571ZM9.25324 37.5H25.0324L26.7857 54.6428H22.5V45H20.3571V54.6428H18.2143V45H16.0714V54.6428H13.9286V45H11.7857V54.6428H7.5L9.25324 37.5Z" fill="#303683"/>
<path d="M18.2143 6.42859H16.0714V31.0714H18.2143V6.42859Z" fill="#2F2F2F"/>
<path d="M27.3214 15L28.6236 18.5192L32.1429 19.8214L28.6236 21.1236L27.3214 24.6429L26.0192 21.1236L22.5 19.8214L26.0192 18.5192L27.3214 15Z" fill="#2F2F2F"/>
<path d="M34.8214 5.35712L36.4131 9.65837L40.7143 11.25L36.4131 12.8416L34.8214 17.1428L33.2298 12.8416L28.9286 11.25L33.2298 9.65837L34.8214 5.35712Z" fill="#2F2F2F"/>
<path d="M35.3572 28.9286V45C35.3572 47.3669 37.276 49.2857 39.6429 49.2857H46.0715C48.4384 49.2857 50.3572 47.3669 50.3572 45V28.9286" stroke="#2F2F2F" stroke-width="2"/>
<path d="M46.0714 26.7857C46.0714 25.6022 45.112 24.6429 43.9285 24.6429H41.7857C40.6022 24.6429 39.6428 25.6022 39.6428 26.7857" stroke="#2F2F2F" stroke-width="2"/>
<path d="M33.2142 27.8571H52.4999" stroke="#2F2F2F" stroke-width="2"/>
<path d="M45 43.9286V31.0714" stroke="#2F2F2F" stroke-width="2"/>
<path d="M40.7142 43.9286V31.0714" stroke="#2F2F2F" stroke-width="2"/>
</svg>
