<svg width="35" height="36" viewBox="0 0 35 36" fill="none" xmlns="http://www.w3.org/2000/svg">
<path d="M19.1322 20.3548V2.29032C19.1322 1.5777 18.5533 1 17.8391 1H2.32145C1.60728 1 1.02832 1.5777 1.02832 2.29032V30.6774C1.02832 31.3901 1.60728 31.9677 2.32145 31.9677H10.0803" stroke="white" stroke-width="2"/>
<path d="M10.0802 29.387C10.7944 29.387 11.3734 28.8093 11.3734 28.0967C11.3734 27.3841 10.7944 26.8064 10.0802 26.8064C9.36607 26.8064 8.78711 27.3841 8.78711 28.0967C8.78711 28.8093 9.36607 29.387 10.0802 29.387Z" fill="#FFDECD"/>
<path d="M12.0522 35H27.0849" stroke="white" stroke-width="2"/>
<path d="M17.0632 23H23.0763" stroke="white" stroke-width="2"/>
<path d="M20.0697 23V27" stroke="white" stroke-width="2"/>
<path d="M15.0588 32V35" stroke="white" stroke-width="2"/>
<path d="M25.0806 32V35" stroke="white" stroke-width="2"/>
<path d="M13.0544 31.1667V32H27.0849V31.1667C27.0849 28.8655 24.8415 27 22.0741 27H18.0653C15.2979 27 13.0544 28.8655 13.0544 31.1667Z" stroke="white" stroke-width="2"/>
<path fill-rule="evenodd" clip-rule="evenodd" d="M34.1002 29C34.1002 23.4772 30.062 19 25.0806 19V21C29.0657 21 32.2963 24.5817 32.2963 29H34.1002ZM30.4923 29C30.4923 25.6863 28.0694 23 25.0806 23V25C27.0731 25 28.6884 26.7909 28.6884 29H30.4923Z" fill="#FFDECD"/>
<path d="M6.20093 1L7.49406 2.29032H12.6666L13.9597 1" stroke="white" stroke-width="2"/>
</svg>
