<svg width="60" height="60" viewBox="0 0 60 60" fill="none" xmlns="http://www.w3.org/2000/svg">
<path d="M52.499 27.857C58.3924 35.3573 58.9271 45.0699 52.4985 48.2146C44.1708 52.2882 41.8989 48.8565 29.3188 44.5411C16.7388 40.2257 20.6008 27.6449 28.9284 23.5714C37.256 19.4978 46.6058 20.3567 52.499 27.857Z" fill="#F7F9FC"/>
<path d="M22.5 8.57141H8.5714C6.7962 8.57141 5.35712 10.0105 5.35712 11.7857V42.8571C5.35712 44.6323 6.7962 46.0714 8.5714 46.0714H22.5C24.2752 46.0714 25.7143 44.6323 25.7143 42.8571V11.7857C25.7143 10.0105 24.2752 8.57141 22.5 8.57141Z" fill="#FCFAF8" stroke="#2F2F2F" stroke-width="2"/>
<path d="M9.64288 9.64284V8.57141H21.4286V9.64284L19.2857 11.7857H11.7857L9.64288 9.64284Z" fill="#2F2F2F"/>
<path d="M15.5357 42.8572C16.4233 42.8572 17.1429 42.1376 17.1429 41.25C17.1429 40.3624 16.4233 39.6429 15.5357 39.6429C14.6481 39.6429 13.9286 40.3624 13.9286 41.25C13.9286 42.1376 14.6481 42.8572 15.5357 42.8572Z" fill="#2F2F2F"/>
<path d="M20.3571 47.1428C20.3571 42.4089 24.1947 38.5714 28.9285 38.5714H33.2143C37.9482 38.5714 41.7857 42.4089 41.7857 47.1428V49.2857H20.3571V47.1428Z" fill="#303683"/>
<path d="M41.7857 51.4286H20.3571V53.5714H41.7857V51.4286Z" fill="#303683"/>
<path d="M33.2143 35.3571H28.9286V37.5H33.2143V35.3571Z" fill="#303683"/>
<path fill-rule="evenodd" clip-rule="evenodd" d="M53.4467 41.7855C52.4685 33.4387 45.8469 26.817 37.5 25.8388V27.9986C44.6619 28.9528 50.3327 34.6237 51.2869 41.7855H53.4467ZM47.1429 41.7855C47.1429 36.4599 42.8256 32.1427 37.5 32.1427V34.2855C41.6421 34.2855 45 37.6434 45 41.7855H47.1429Z" fill="#2F2F2F"/>
</svg>
