<svg width="128" height="108" viewBox="0 0 128 108" fill="none" xmlns="http://www.w3.org/2000/svg">
<path d="M78.7402 32.3536C75.1102 30.6361 70.8916 28.9943 67.0543 27.8113C61.0641 26.1307 49.4574 23.3271 37.4002 22.8733L36.9603 8.43612C36.8786 5.75203 35.2084 3.38942 32.7057 2.41717C29.2749 1.0846 25.3992 2.79136 24.0664 6.22225L10.4328 41.3165C7.35003 49.252 11.298 58.2161 19.2335 61.2989L22.5716 62.5957C23.5497 64.0626 24.9656 65.2491 26.7017 65.9235L30.4939 67.3967C32.8729 74.4968 38.2771 83.042 50.471 87.7791C53.8153 89.0783 57.1803 89.8907 60.4729 90.1935C61.3461 90.2738 62.1192 89.6312 62.1993 88.758C62.2796 87.8849 61.6366 87.1116 60.764 87.0317C57.7657 86.7558 54.6896 86.0114 51.6208 84.8192C39.1825 79.9871 34.5313 70.8038 32.8137 64.0226C43.0448 71.7497 53.732 76.4498 54.6057 76.8283C54.6369 76.8429 54.6687 76.8563 54.7008 76.8688L54.7209 76.8767C54.7563 76.8904 54.7918 76.9028 54.828 76.9139C55.8269 77.2579 66.8383 80.9738 79.5387 82.1734C76.6096 84.1062 72.7074 86.0112 67.9924 86.7871C67.1274 86.9296 66.5412 87.7463 66.6836 88.6115C66.7781 89.1862 67.1702 89.6376 67.6766 89.8343C67.9325 89.9338 68.2175 89.9682 68.5082 89.9203C72.5769 89.2508 76.0904 87.8298 78.9709 86.2293L82.761 87.7016C84.4964 88.3758 86.3414 88.4567 88.0534 88.0344L91.4815 89.3662C99.4169 92.4489 108.381 88.5011 111.464 80.5655L125.097 45.4712C126.43 42.0403 124.723 38.1648 121.293 36.832C118.79 35.8597 115.963 36.4752 114.091 38.4L103.998 48.7762C94.7871 40.9483 84.3029 35.1632 78.7402 32.3536ZM13.3927 42.4664L27.0263 7.37212C27.7251 5.5733 29.7569 4.67843 31.5558 5.37725C32.868 5.88702 33.7435 7.12579 33.7863 8.53301L34.2247 22.9267C31.5942 23.3042 29.2163 24.7437 27.6694 26.9607C25.8981 29.4995 24.3174 33.5956 22.8372 39.4824C22.5035 40.8092 22.4566 42.2083 22.6982 43.557C22.1356 45.2413 21.5869 47.0718 21.0654 49.0052C20.5121 51.0568 20.6427 53.2309 21.4276 55.1903C21.3871 55.3542 21.3493 55.5099 21.3141 55.6584L21.3051 55.6962C21.0745 56.6779 21.023 57.6671 21.1275 58.6279L20.3832 58.3388C14.0798 55.8902 10.9439 48.7698 13.3927 42.4664ZM95.3087 66.4055C95.2347 66.5428 95.1211 66.5997 95.0389 66.6232C94.9578 66.6466 94.8324 66.6583 94.6999 66.5826C90.2559 64.0497 78.4003 57.5683 64.3308 52.1012C59.25 50.1278 53.8023 48.2579 48.1396 46.5433C47.3004 46.2893 46.414 46.7634 46.1598 47.6029C45.9058 48.4421 46.3783 49.3293 47.2195 49.5825C52.8051 51.2737 58.1755 53.117 63.181 55.0611C76.7048 60.3162 88.1553 66.5226 92.7827 69.1453C92.0436 70.8794 91.1499 72.7638 90.1134 74.7666C90.0253 74.9368 89.8789 75.0003 89.7994 75.023C89.72 75.0455 89.5625 75.0688 89.399 74.9715C85.2269 72.4881 74.0951 66.1569 60.8673 61.0167C47.6383 55.8788 35.1523 53.0349 30.398 52.0505C30.2115 52.0126 30.1112 51.8887 30.0679 51.8182C30.0244 51.7478 29.9593 51.6021 30.0093 51.4171C30.5963 49.2408 31.2089 47.2472 31.8347 45.468C33.6762 45.8902 36.4786 46.5651 39.9474 47.5011C40.794 47.7297 41.6656 47.2284 41.8938 46.3819C42.1221 45.5353 41.6215 44.6627 40.7745 44.4354C37.0025 43.4177 34.0027 42.7033 32.1506 42.2831C32 42.2487 31.9172 42.1561 31.8731 42.0843C31.8283 42.0112 31.7825 41.8924 31.8208 41.7412C33.3746 35.5623 34.6468 33.1492 35.2671 32.2603C35.3436 32.1506 35.4784 32.0842 35.619 32.087C52.3686 32.4188 68.572 37.9161 69.6913 38.3028C70.7783 38.7733 86.4435 45.6563 99.0243 56.719C99.1299 56.812 99.1845 56.952 99.167 57.0849C99.0243 58.1595 98.3336 60.7993 95.3087 66.4055ZM55.8585 73.9104C54.8621 73.4788 41.3578 67.5349 30.3976 57.9839C30.3388 57.9327 30.3129 57.8572 30.3295 57.7869C30.459 57.242 30.6657 56.4288 30.9599 55.4153C36.3144 56.5698 47.7042 59.311 59.7175 63.9769C71.7299 68.6446 81.9832 74.3114 86.7132 77.0746C86.2466 78.0196 85.8499 78.7596 85.5772 79.2498C85.542 79.3129 85.4719 79.3508 85.3938 79.3489C70.8601 78.9961 56.8849 74.2644 55.8585 73.9104ZM66.3219 30.9079C70.0142 32.0459 73.6579 33.4612 77.1519 35.1145C82.8163 37.9768 93.8467 44.0599 103.044 52.1475C104.681 53.5867 105.487 55.7317 105.202 57.885C105.127 58.4479 104.994 59.086 104.805 59.782C104.576 60.6284 105.077 61.4991 105.923 61.7293C106.77 61.9584 107.642 61.4578 107.871 60.6115C108.095 59.7808 108.256 59.0044 108.35 58.3032C108.701 55.6533 107.94 53.0152 106.293 50.9702L116.366 40.6141C117.347 39.6049 118.829 39.2821 120.142 39.792C121.941 40.4908 122.835 42.5228 122.137 44.3215L108.503 79.4157C106.054 85.7191 98.934 88.8552 92.6304 86.4064L91.7955 86.082C92.5241 85.4414 93.1565 84.674 93.6514 83.79L93.6711 83.7538C93.7419 83.6271 93.8172 83.4901 93.897 83.3437C95.7984 82.428 97.3626 80.9124 98.3398 79.0248C99.2606 77.2457 100.092 75.5249 100.813 73.9033C101.902 73.0715 102.812 72.0079 103.461 70.8038C103.992 69.8193 104.488 68.8624 104.933 67.9595C105.321 67.1732 104.999 66.2212 104.212 65.8328C103.429 65.4465 102.474 65.7674 102.086 66.5538C101.657 67.4226 101.179 68.345 100.666 69.296C100.173 70.2101 99.4888 70.9729 98.6318 71.5639C98.3889 71.7314 98.1975 71.9634 98.0789 72.2336C97.3453 73.9074 96.4842 75.7013 95.5196 77.5652C94.7978 78.9597 93.6026 80.0533 92.1543 80.6448C91.8106 80.7854 91.5269 81.0417 91.3527 81.3697C91.185 81.6856 91.0318 81.9665 90.8891 82.2227L90.8746 82.2489C89.5118 84.6831 86.5175 85.7549 83.9099 84.7418L82.3133 84.1216C83.0684 83.5856 83.7533 83.0561 84.3648 82.553C84.3868 82.535 84.4065 82.5152 84.4271 82.4962C84.7232 82.5067 85.0195 82.5164 85.3162 82.5236C86.5777 82.5543 87.7409 81.8913 88.3515 80.7931C88.6678 80.2245 89.1394 79.3432 89.691 78.2128C90.0201 78.2103 90.3496 78.1682 90.6705 78.0767C91.6434 77.799 92.4679 77.1246 92.9329 76.2264C94.1557 73.8638 95.1906 71.6519 96.0173 69.6402C96.9145 69.354 97.6536 68.7463 98.1028 67.9132C100.593 63.2976 102.01 59.7951 102.314 57.5025C102.471 56.3144 102.025 55.13 101.12 54.3345C87.9958 42.7935 71.6284 35.6799 70.9092 35.3705C70.8999 35.3665 70.8904 35.3623 70.8808 35.3584C70.8263 35.3349 70.7707 35.3144 70.714 35.2972C69.4127 34.8489 52.8344 29.2522 35.6809 28.9125C34.4756 28.8885 33.3468 29.4611 32.6616 30.4439C31.3388 32.3394 30.0193 35.8799 28.74 40.967C28.5091 41.8852 28.6442 42.8323 29.1129 43.6491C28.3645 45.6926 27.6345 48.0234 26.9423 50.5904C26.6791 51.5666 26.8321 52.6208 27.3624 53.4825C27.5373 53.7666 27.7511 54.0218 27.9923 54.2461C27.6359 55.4535 27.3895 56.4206 27.2392 57.0524C26.9486 58.2744 27.359 59.5487 28.3102 60.3777C28.5323 60.5712 28.7556 60.7628 28.9795 60.9534C29.0934 61.7668 29.2453 62.6491 29.4469 63.5839L27.8502 62.9635C25.2423 61.9504 23.7571 59.1385 24.3952 56.4227C24.3963 56.4181 24.3993 56.4052 24.4004 56.4004C24.4007 56.3991 24.4052 56.38 24.4054 56.3787C24.4695 56.1091 24.5461 55.7979 24.6358 55.4514C24.7287 55.0919 24.6924 54.7111 24.5337 54.3755C23.8647 52.9612 23.7213 51.3478 24.13 49.8324C24.6763 47.8069 25.2521 45.9022 25.8411 44.1709C25.9361 43.8914 25.9514 43.5912 25.8853 43.3037C25.6519 42.2891 25.6621 41.2643 25.9155 40.2572C27.3002 34.7503 28.7253 30.9955 30.2724 28.7779C31.5161 26.9959 33.5592 25.9576 35.7381 26.0007C47.9948 26.2431 60.2071 29.1933 66.3219 30.9079Z" fill="#303683"/>
</svg>
