<svg width="37" height="32" viewBox="0 0 37 32" fill="none" xmlns="http://www.w3.org/2000/svg">
<path d="M2.39659 15.8H4.60138C5.21021 15.8 5.70378 16.2925 5.70378 16.9V27.9H1.29419V16.9C1.29419 16.2925 1.78775 15.8 2.39659 15.8Z" stroke="white" stroke-width="2"/>
<path d="M31.0588 15.8H33.2636C33.8725 15.8 34.366 16.2925 34.366 16.9V27.9H29.9564V16.9C29.9564 16.2925 30.45 15.8 31.0588 15.8Z" stroke="white" stroke-width="2"/>
<path d="M32.1613 16.9V10.3C32.1613 8.47741 30.6807 7 28.8541 7H6.80621C4.97971 7 3.49902 8.47741 3.49902 10.3V16.9" stroke="white" stroke-width="2"/>
<path d="M5.70374 19.1H29.9565" stroke="white" stroke-width="2"/>
<path d="M10.1133 7L11.2157 19.1" stroke="white" stroke-width="2"/>
<path d="M3.49902 26.8V31.2" stroke="white" stroke-width="2"/>
<path d="M32.1613 26.8V31.2" stroke="white" stroke-width="2"/>
<path d="M25.5469 7L24.4445 19.1" stroke="white" stroke-width="2"/>
<path d="M5.70374 22.4H29.9565" stroke="white" stroke-width="2"/>
<path d="M5.70374 27.9H29.9565" stroke="white" stroke-width="2"/>
<path d="M34.3661 4C35.473 4 36.3704 3.10457 36.3704 2C36.3704 0.89543 35.473 0 34.3661 0C33.2591 0 32.3617 0.89543 32.3617 2C32.3617 3.10457 33.2591 4 34.3661 4Z" fill="#FFDECD"/>
</svg>
