<svg width="135" height="114" viewBox="0 0 135 114" fill="none" xmlns="http://www.w3.org/2000/svg">
<circle cx="56.9031" cy="56.9031" r="56.9031" fill="#EDEEF5"/>
<path d="M122.249 104.16L122.249 72.2834C122.249 69.4025 119.904 67.0586 117.022 67.0586L92.9163 67.0586C87.7434 67.0586 82.8795 65.0435 79.2204 61.3844L72.095 54.2592C69.5619 51.7261 65.4616 51.7246 62.9263 54.2598C60.4021 56.787 60.4021 60.899 62.9272 63.427L65.6144 66.114C65.9654 66.4646 65.7186 67.0586 65.2224 67.0586L40.0541 67.0586C36.4799 67.0586 33.5721 69.9654 33.5721 73.5385C33.5721 74.7198 33.8867 75.854 34.4764 76.8452L33.212 76.8452C29.6659 76.8452 26.6124 79.7172 26.6124 83.3327C26.6124 86.8979 29.4978 89.8095 33.0935 89.8095L36.1698 89.8095C35.5927 90.7782 35.2612 91.9091 35.2612 93.1162C35.2612 96.6902 38.1525 99.5982 41.7432 99.5982L43.6169 99.5982C43.0399 100.567 42.7086 101.698 42.7086 102.905C42.7086 106.479 45.5999 109.387 49.1906 109.387L79.8586 109.387C80.7357 109.387 81.4463 108.676 81.4463 107.799C81.4463 106.922 80.7357 106.211 79.8586 106.211L49.1908 106.211C47.3531 106.211 45.8842 104.722 45.8842 102.905C45.8842 101.082 47.3664 99.5993 49.1889 99.5982C49.1898 99.5982 49.1904 99.5982 49.1912 99.5982L63.0963 99.5982C63.9734 99.5982 64.684 98.8876 64.684 98.0105C64.684 97.1335 63.9734 96.4228 63.0963 96.4228L41.7437 96.4226C39.9064 96.4226 38.437 94.934 38.437 93.1159C38.437 91.2948 39.9167 89.8131 41.7371 89.8095C41.739 89.8095 41.7409 89.8097 41.7428 89.8097L61.1657 89.8097C62.0427 89.8097 62.7534 89.0991 62.7534 88.222C62.7534 87.345 62.0427 86.6343 61.1657 86.6343L33.0939 86.6337C31.2312 86.6337 29.7252 85.0989 29.7906 83.2049C29.8522 81.4489 31.3872 80.0204 33.2124 80.0204L59.5314 80.0212C60.4085 80.0212 61.1191 79.3106 61.1191 78.4335C61.1191 77.5565 60.4085 76.8458 59.5314 76.8458L40.0709 76.8458C40.0654 76.8458 40.0601 76.845 40.0546 76.845C38.2168 76.845 36.7479 75.3561 36.7479 73.5383C36.7479 71.7163 38.2312 70.2338 40.0546 70.2338L65.2228 70.2338C68.5379 70.2338 70.2079 66.2133 67.859 63.8675L65.1733 61.182C63.8849 59.8919 63.8847 57.7934 65.1726 56.5042C66.4648 55.2116 68.557 55.2114 69.8498 56.5042L76.9752 63.6296C81.234 67.8882 86.8953 70.2336 92.9165 70.2336L96.2316 70.2336L96.2316 106.212L86.2071 106.212C85.3301 106.212 84.6194 106.922 84.6194 107.799C84.6194 108.676 85.3301 109.387 86.2071 109.387C89.6653 109.387 113.592 109.387 117.022 109.387C119.904 109.387 122.249 107.042 122.249 104.16ZM117.022 70.2342C118.153 70.2342 119.073 71.1536 119.073 72.2836L119.073 104.16C119.073 105.291 118.153 106.212 117.022 106.212L106.683 106.212L106.683 70.2342L117.022 70.2342ZM99.4066 70.2344L103.507 70.2344L103.507 106.212L99.4066 106.212L99.4066 70.2344Z" fill="#303683"/>
<path d="M98.6862 56.1269C101.21 53.5997 101.21 49.4877 98.6856 46.9597L95.9982 44.2725C95.648 43.9229 95.8929 43.3279 96.3902 43.3279L109.247 43.3279C110.124 43.3279 110.835 42.6172 110.835 41.7402C110.835 40.8631 110.124 40.1525 109.247 40.1525L96.3902 40.1525C93.0751 40.1525 91.4048 44.1738 93.7538 46.5187L96.4397 49.2045C97.7279 50.4945 97.7285 52.5931 96.4404 53.8823C95.1484 55.1747 93.0558 55.1751 91.7634 53.8823L84.6378 46.7567C80.379 42.498 74.7177 40.1527 68.6965 40.1527L65.3814 40.1527L65.3814 4.1754L112.422 4.1754C114.26 4.1754 115.728 5.66403 115.728 7.48184C115.728 9.30452 114.246 10.7874 112.424 10.7885L112.421 10.7885L98.5165 10.7885C97.6394 10.7885 96.9288 11.4991 96.9288 12.3762C96.9288 13.2532 97.6394 13.9639 98.5165 13.9639L112.418 13.9639C112.419 13.9639 112.42 13.9641 112.422 13.9641L119.869 13.9641C121.706 13.9641 123.175 15.4527 123.175 17.2708C123.175 19.092 121.696 20.5736 119.875 20.5772C119.873 20.5772 119.871 20.577 119.869 20.577L100.447 20.577C99.5696 20.577 98.859 21.2876 98.859 22.1647C98.859 23.0417 99.5696 23.7524 100.447 23.7524L119.857 23.7524C119.861 23.7524 119.865 23.753 119.869 23.753L128.519 23.753C130.398 23.753 131.89 25.309 131.822 27.1816C131.76 28.9376 130.225 30.3661 128.4 30.3661L121.571 30.3661C121.567 30.3661 121.563 30.3655 121.559 30.3655L102.081 30.3655C101.204 30.3655 100.494 31.0761 100.494 31.9532C100.494 32.8302 101.204 33.5409 102.081 33.5409L121.546 33.5409C121.55 33.5409 121.554 33.5415 121.558 33.5415C123.396 33.5415 124.865 35.0308 124.865 36.8484C124.865 38.6704 123.382 40.1527 121.558 40.1527L115.595 40.1527C114.718 40.1527 114.007 40.8633 114.007 41.7404C114.007 42.6174 114.718 43.3281 115.595 43.3281L121.558 43.3281C125.132 43.3281 128.04 40.4213 128.04 36.8484C128.04 35.6669 127.726 34.5329 127.136 33.5415L128.4 33.5415C131.916 33.5415 134.875 30.7385 134.996 27.294C135.128 23.6228 132.197 20.5772 128.519 20.5772L125.443 20.5772C126.019 19.6085 126.351 18.4776 126.351 17.2705C126.351 13.7035 123.467 10.7885 119.869 10.7885L117.995 10.7885C118.572 9.81978 118.904 8.68891 118.904 7.48184C118.904 3.90761 116.012 0.999999 112.422 0.999999L44.5907 0.999996C41.7087 0.999996 39.3642 3.3445 39.3642 6.22649L39.3642 38.1033C39.3642 40.984 41.7087 43.3279 44.5907 43.3279C52.155 43.3279 61.1329 43.3279 68.6963 43.3279C73.8692 43.3279 78.7331 45.343 82.392 49.0021L89.5176 56.1277C92.0454 58.6551 96.158 58.6551 98.6862 56.1269ZM42.5394 38.1033L42.5394 6.22649C42.5394 5.09542 43.4597 4.1754 44.5905 4.1754L54.9296 4.1754L54.9296 9.20184C54.9296 10.0789 55.6403 10.7895 56.5173 10.7895C57.3944 10.7895 58.105 10.0789 58.105 9.20184L58.105 4.1754L62.2055 4.1754L62.2055 40.1525L58.105 40.1525L58.105 15.5499C58.105 14.6728 57.3944 13.9622 56.5173 13.9622C55.6403 13.9622 54.9296 14.6728 54.9296 15.5499L54.9296 40.1525L44.5905 40.1525C43.4597 40.1525 42.5394 39.2333 42.5394 38.1033Z" fill="#303683"/>
</svg>
