<svg width="50" height="50" viewBox="0 0 50 50" fill="none" xmlns="http://www.w3.org/2000/svg">
<path d="M24.9261 33.2386C29.017 33.2386 31.9233 31.0739 31.9148 28.0398C31.9233 25.892 30.517 24.358 27.8239 24.0426V23.9062C29.8438 23.6165 31.2756 22.2614 31.267 20.3011C31.2756 17.4545 28.7017 15.3068 24.9602 15.3068C21.1932 15.3068 18.4489 17.4886 18.4148 20.5909H22.446C22.4801 19.3977 23.554 18.5966 24.9602 18.5966C26.2983 18.5966 27.2102 19.4062 27.2017 20.5739C27.2102 21.7841 26.1364 22.6193 24.5852 22.6193H22.8892V25.6193H24.5852C26.3494 25.6193 27.5 26.4886 27.483 27.7159C27.5 28.9517 26.4432 29.8125 24.9432 29.8125C23.4517 29.8125 22.3523 29.0199 22.3097 27.8693H18.0653C18.0994 31.0227 20.9375 33.2386 24.9261 33.2386Z" fill="#FD8970"/>
<circle cx="25" cy="25" r="23" stroke="#FD8970" stroke-width="4"/>
</svg>
