<svg width="20" height="21" viewBox="0 0 20 21" fill="none" xmlns="http://www.w3.org/2000/svg">
<path d="M19.995 20.9569V20.956H20V13.3593C20 9.64285 19.2275 6.78003 15.0325 6.78003C13.0158 6.78003 11.6625 7.92619 11.11 9.01281H11.0517V7.12699H7.07417V20.956H11.2158V14.1084C11.2158 12.3054 11.5458 10.562 13.7017 10.562C15.8258 10.562 15.8575 12.6196 15.8575 14.2241V20.9569H19.995Z" fill="#2F2F2F"/>
<path d="M0.32991 7.12842H4.47658V20.9575H0.32991V7.12842Z" fill="#2F2F2F"/>
<path d="M2.40166 0.243164C1.07583 0.243164 0 1.35739 0 2.73054C0 4.10368 1.07583 5.24121 2.40166 5.24121C3.7275 5.24121 4.80333 4.10368 4.80333 2.73054C4.8025 1.35739 3.72666 0.243164 2.40166 0.243164V0.243164Z" fill="#2F2F2F"/>
</svg>
