<svg width="50" height="50" viewBox="0 0 50 50" fill="none" xmlns="http://www.w3.org/2000/svg">
<path d="M41.1849 50H8.81513C6.47728 49.9998 4.23525 49.0706 2.58214 47.4169C0.929033 45.7632 0.000226788 43.5203 0 41.1816V8.81845C0.000226788 6.47972 0.929033 4.23684 2.58214 2.58311C4.23525 0.929383 6.47728 0.000226874 8.81513 0H41.1849C43.5228 0 45.7649 0.929084 47.4181 2.58286C49.0713 4.23664 50 6.47965 50 8.81845V41.1816C50 43.5204 49.0713 45.7634 47.4181 47.4171C45.7649 49.0709 43.5228 50 41.1849 50Z" fill="white"/>
<path d="M34.4526 23.9159V16.735H33.3407V23.9159H34.4526ZM33.8881 15.7092C33.9867 15.7104 34.0846 15.6922 34.1762 15.6554C34.2677 15.6187 34.3511 15.5642 34.4215 15.4951C34.492 15.426 34.548 15.3437 34.5865 15.2528C34.625 15.1619 34.6452 15.0644 34.6459 14.9657C34.6493 14.865 34.6324 14.7646 34.5962 14.6705C34.56 14.5765 34.5053 14.4907 34.4352 14.4182C34.3652 14.3458 34.2813 14.2881 34.1886 14.2488C34.0958 14.2094 33.9961 14.1892 33.8954 14.1892C33.7946 14.1892 33.6949 14.2094 33.6022 14.2488C33.5094 14.2881 33.4255 14.3458 33.3555 14.4182C33.2855 14.4907 33.2308 14.5765 33.1946 14.6705C33.1584 14.7646 33.1415 14.865 33.1449 14.9657C33.1453 15.1622 33.2233 15.3505 33.3619 15.4897C33.5004 15.629 33.6883 15.7078 33.8847 15.7092H33.8881ZM31.0786 24.0939C31.7329 24.0939 32.134 23.9005 32.4162 23.6327L32.0887 22.8002C31.8848 22.9948 31.6126 23.1014 31.3309 23.0971C30.8408 23.0971 30.6031 22.7113 30.6031 22.1757V17.7164H32.057V16.735H30.6039V14.7723H29.4921V16.735H28.2947V17.7164H29.4844V22.4144C29.4853 23.4847 30.0198 24.0947 31.0752 24.0947L31.0786 24.0939ZM27.3334 23.9151V13.9998H26.2216V23.9159L27.3334 23.9151ZM24.2853 23.9151V16.735H23.1735V22.014C22.9236 22.3431 22.6027 22.6115 22.2347 22.7994C21.8668 22.9872 21.4612 23.0896 21.0482 23.0988C20.0826 23.0988 19.4428 22.7275 19.4428 21.4638V16.735H18.331V21.8052C18.331 23.3658 19.1187 24.0947 20.6197 24.0947C21.6896 24.0947 22.6261 23.53 23.176 22.9055V23.9159L24.2853 23.9151ZM16.3468 23.9151V13.9998H14.5756L11.4838 21.463L8.4049 13.9998H6.63965V23.9159H7.87293V15.7537L11.2315 23.9159H11.737L15.111 15.7537V23.9159L16.3468 23.9151Z" fill="#303683"/>
<path d="M40.6545 32.8567C39.748 32.8567 39.0792 32.3066 39.0792 31.2508C39.0792 30.2104 39.748 29.6603 40.6545 29.6603C41.1301 29.6603 41.7399 29.9127 42.0229 30.2994V32.2176C41.7399 32.6043 41.1309 32.8567 40.6545 32.8567ZM40.1944 37.9115C41.9776 37.9115 44.2996 37.2869 44.2996 34.3583V27.8165H42.0221V28.6635C41.7711 28.3399 41.4487 28.0787 41.0799 27.9006C40.7112 27.7224 40.3062 27.6322 39.8968 27.6369C38.1007 27.6369 36.7323 28.886 36.7323 31.25C36.7323 33.6738 38.1444 34.8776 39.8968 34.8776C40.7144 34.8776 41.4277 34.5354 42.0221 33.8372V34.3874C42.0221 35.7255 40.9522 36.0378 40.1944 36.0378C39.3614 36.0378 38.5592 35.7999 38.0092 35.2053L37.0137 36.8412C37.9348 37.5992 38.9603 37.9115 40.1944 37.9115ZM35.8377 34.9974V29.9127C35.8377 28.5891 35.0954 27.6377 33.4601 27.6377C32.2559 27.6377 31.4075 28.1878 30.9799 28.6935V27.8165H28.6895V34.9974H30.9782V30.3593C31.2459 30.0316 31.6914 29.6603 32.3748 29.6603C33.0889 29.6603 33.5491 29.9726 33.5491 30.8495V34.9974H35.8377ZM27.3219 34.9974V27.8165H25.0333V34.9974H27.3219ZM26.1776 27.1766C26.4378 27.1779 26.6926 27.102 26.9097 26.9585C27.1268 26.8149 27.2965 26.6102 27.3972 26.3702C27.498 26.1302 27.5253 25.8656 27.4757 25.6101C27.4262 25.3545 27.302 25.1194 27.1188 24.9345C26.9356 24.7496 26.7017 24.6231 26.4467 24.5712C26.1917 24.5193 25.9271 24.5443 25.6862 24.6429C25.4454 24.7415 25.2392 24.9093 25.0937 25.1252C24.9483 25.341 24.8701 25.5952 24.8691 25.8555C24.868 26.0283 24.9011 26.1995 24.9664 26.3595C25.0316 26.5194 25.1278 26.6649 25.2493 26.7877C25.3709 26.9104 25.5155 27.0079 25.6747 27.0746C25.834 27.1414 26.0049 27.176 26.1776 27.1766ZM21.8218 34.9974L24.6441 27.8165H22.2229L20.5885 32.3656L18.9686 27.8165H16.5611L19.3834 34.9974H21.8218ZM16.1771 34.9974V27.8165H13.885V34.9974H16.1771ZM15.0328 27.1766C15.2929 27.1774 15.5474 27.1011 15.7642 26.9572C15.9809 26.8134 16.1502 26.6085 16.2506 26.3684C16.3509 26.1283 16.3779 25.8639 16.328 25.6085C16.2782 25.3531 16.1537 25.1182 15.9705 24.9335C15.7872 24.7489 15.5533 24.6227 15.2984 24.571C15.0434 24.5193 14.7789 24.5444 14.5382 24.6431C14.2975 24.7418 14.0915 24.9096 13.9461 25.1254C13.8008 25.3412 13.7227 25.5953 13.7217 25.8555C13.7206 26.0282 13.7537 26.1994 13.8189 26.3593C13.8841 26.5192 13.9802 26.6647 14.1016 26.7874C14.2231 26.9101 14.3675 27.0076 14.5267 27.0744C14.6859 27.1412 14.8567 27.1759 15.0293 27.1766H15.0328ZM12.922 34.9974V32.7678H8.93478V25.0855H6.37927V35.0017L12.922 34.9974Z" fill="#303683"/>
</svg>
