<svg width="50" height="50" viewBox="0 0 50 50" fill="none" xmlns="http://www.w3.org/2000/svg">
<path d="M41.1849 49.3587H8.81513C6.47728 49.3585 4.23525 48.4443 2.58214 46.8172C0.929033 45.1901 0.000226788 42.9833 0 40.6822V8.83987C0.000226788 6.53878 0.929033 4.332 2.58214 2.70488C4.23525 1.07776 6.47728 0.163553 8.81513 0.16333H41.1849C43.5228 0.16333 45.7649 1.07746 47.4181 2.70463C49.0713 4.3318 50 6.53871 50 8.83987V40.6822C50 42.9834 49.0713 45.1903 47.4181 46.8174C45.7649 48.4446 43.5228 49.3587 41.1849 49.3587Z" fill="#303683"/>
<path d="M34.4527 23.6941V16.6288H33.3408V23.6941H34.4527ZM33.8882 15.6194C33.9868 15.6207 34.0847 15.6027 34.1763 15.5665C34.2678 15.5304 34.3512 15.4768 34.4216 15.4088C34.4921 15.3408 34.5481 15.2598 34.5866 15.1704C34.6251 15.081 34.6453 14.985 34.646 14.8879C34.6494 14.7888 34.6325 14.69 34.5963 14.5975C34.5601 14.5049 34.5053 14.4205 34.4353 14.3492C34.3653 14.2779 34.2814 14.2212 34.1887 14.1825C34.0959 14.1438 33.9962 14.1239 33.8955 14.1239C33.7947 14.1239 33.695 14.1438 33.6023 14.1825C33.5095 14.2212 33.4256 14.2779 33.3556 14.3492C33.2856 14.4205 33.2308 14.5049 33.1947 14.5975C33.1585 14.69 33.1416 14.7888 33.145 14.8879C33.1454 15.0812 33.2234 15.2665 33.3619 15.4035C33.5005 15.5405 33.6884 15.6181 33.8848 15.6194H33.8882ZM31.0787 23.8692C31.7329 23.8692 32.1341 23.6789 32.4163 23.4154L32.0887 22.5964C31.8848 22.7878 31.6127 22.8927 31.331 22.8885C30.8409 22.8885 30.6032 22.5088 30.6032 21.9818V17.5943H32.0571V16.6288H30.604V14.6977H29.4922V16.6288H28.2948V17.5943H29.4845V22.2167C29.4853 23.2698 30.0199 23.87 31.0753 23.87L31.0787 23.8692ZM27.3335 23.6932V13.9375H26.2217V23.6941L27.3335 23.6932ZM24.2854 23.6932V16.6288H23.1735V21.8227C22.9237 22.1465 22.6028 22.4107 22.2348 22.5955C21.8668 22.7803 21.4612 22.881 21.0482 22.8902C20.0826 22.8902 19.4429 22.5248 19.4429 21.2815V16.6288H18.3311V21.6173C18.3311 23.1528 19.1188 23.87 20.6197 23.87C21.6897 23.87 22.6262 23.3144 23.1761 22.6999V23.6941L24.2854 23.6932ZM16.3469 23.6932V13.9375H14.5756L11.4839 21.2806L8.40497 13.9375H6.63972V23.6941H7.873V15.6632L11.2316 23.6941H11.7371L15.111 15.6632V23.6941L16.3469 23.6932Z" fill="white"/>
<path d="M40.6546 32.4914C39.748 32.4914 39.0792 31.9501 39.0792 30.9113C39.0792 29.8877 39.748 29.3464 40.6546 29.3464C41.1301 29.3464 41.7399 29.5947 42.023 29.9752V31.8626C41.7399 32.2431 41.131 32.4914 40.6546 32.4914ZM40.1945 37.4648C41.9777 37.4648 44.2997 36.8503 44.2997 33.9688V27.5323H42.0222V28.3657C41.7712 28.0472 41.4487 27.7903 41.08 27.615C40.7113 27.4397 40.3063 27.3509 39.8969 27.3555C38.1008 27.3555 36.7324 28.5846 36.7324 30.9105C36.7324 33.2953 38.1444 34.4798 39.8969 34.4798C40.7145 34.4798 41.4278 34.143 42.0222 33.4561V33.9974C42.0222 35.314 40.9522 35.6213 40.1945 35.6213C39.3615 35.6213 38.5592 35.3872 38.0093 34.8022L37.0138 36.4117C37.9349 37.1576 38.9603 37.4648 40.1945 37.4648ZM35.8378 34.5976V29.5947C35.8378 28.2925 35.0954 27.3564 33.4602 27.3564C32.256 27.3564 31.4076 27.8977 30.9799 28.3952V27.5323H28.6896V34.5976H30.9782V30.0342C31.2459 29.7118 31.6915 29.3464 32.3749 29.3464C33.089 29.3464 33.5491 29.6537 33.5491 30.5165V34.5976H35.8378ZM27.322 34.5976V27.5323H25.0333V34.5976H27.322ZM26.1777 26.9026C26.4379 26.904 26.6927 26.8293 26.9098 26.6881C27.1269 26.5468 27.2965 26.3454 27.3973 26.1092C27.4981 25.8731 27.5254 25.6128 27.4758 25.3614C27.4263 25.1099 27.302 24.8786 27.1189 24.6966C26.9357 24.5147 26.7018 24.3903 26.4468 24.3392C26.1918 24.2882 25.9271 24.3127 25.6863 24.4097C25.4454 24.5067 25.2393 24.6719 25.0938 24.8843C24.9483 25.0967 24.8702 25.3467 24.8691 25.6029C24.8681 25.7729 24.9012 25.9414 24.9664 26.0987C25.0317 26.2561 25.1279 26.3993 25.2494 26.52C25.371 26.6407 25.5155 26.7367 25.6748 26.8023C25.8341 26.868 26.005 26.9021 26.1777 26.9026ZM21.8219 34.5976L24.6442 27.5323H22.223L20.5886 32.0082L18.9687 27.5323H16.5612L19.3835 34.5976H21.8219ZM16.1772 34.5976V27.5323H13.8851V34.5976H16.1772ZM15.0328 26.9026C15.293 26.9035 15.5475 26.8284 15.7642 26.6868C15.981 26.5453 16.1503 26.3437 16.2506 26.1075C16.351 25.8713 16.378 25.6111 16.3281 25.3598C16.2782 25.1085 16.1538 24.8774 15.9705 24.6957C15.7873 24.514 15.5534 24.3899 15.2984 24.339C15.0435 24.2882 14.779 24.3128 14.5383 24.4099C14.2976 24.507 14.0915 24.6722 13.9462 24.8845C13.8009 25.0969 13.7227 25.3468 13.7217 25.6029C13.7207 25.7728 13.7538 25.9412 13.819 26.0985C13.8842 26.2559 13.9802 26.399 14.1017 26.5197C14.2232 26.6404 14.3676 26.7364 14.5268 26.8021C14.686 26.8678 14.8568 26.902 15.0294 26.9026H15.0328ZM12.9221 34.5976V32.4039H8.93486V24.8452H6.37935V34.6018L12.9221 34.5976Z" fill="white"/>
</svg>
