<svg width="60" height="60" viewBox="0 0 60 60" fill="none" xmlns="http://www.w3.org/2000/svg">
<path d="M15.3581 40.4538C6.26489 31.3606 -0.938478 17.6466 8.15476 8.55336C17.248 -0.539881 23.0734 4.95425 40.0539 7.52569C57.0343 10.0971 58.9244 29.817 49.8312 38.9102C40.738 48.0034 24.4513 49.547 15.3581 40.4538Z" fill="#F7F9FC"/>
<path d="M16.0714 28.9286V26.7857C16.0714 25.0104 17.5104 23.5714 19.2857 23.5714H30C31.7752 23.5714 33.2143 25.0104 33.2143 26.7857V28.9286" stroke="#2F2F2F" stroke-width="2"/>
<path d="M26.7857 16.0714V14.2647C26.7857 11.9914 25.8826 9.81122 24.2752 8.20377L23.5714 7.5" stroke="#2F2F2F" stroke-width="2"/>
<path d="M26.7858 16.0714V14.2647C26.7858 11.9914 27.6889 9.81122 29.2962 8.20377L30.0001 7.5" stroke="#2F2F2F" stroke-width="2"/>
<path d="M28.9286 16.0714C28.9286 14.1518 30.1569 12.4477 31.978 11.8407L32.1429 11.7857" stroke="#2F2F2F" stroke-width="2"/>
<path d="M17.1428 19.2857V17.479C17.1428 15.2057 18.0459 13.0255 19.6533 11.4181L20.3571 10.7143" stroke="#2F2F2F" stroke-width="2"/>
<path d="M17.1429 19.2857V17.479C17.1429 15.2057 16.2398 13.0255 14.6324 11.4181L13.9286 10.7143" stroke="#2F2F2F" stroke-width="2"/>
<path d="M15.0001 19.2857C15.0001 17.3661 13.7718 15.662 11.9507 15.055L11.7858 15" stroke="#2F2F2F" stroke-width="2"/>
<path d="M22.2343 18.9947L21.4286 27.8571H30L31.8955 21.2228C32.0596 20.6484 32.1429 20.0541 32.1429 19.4568V19.2857C32.1429 17.5104 30.7038 16.0714 28.9286 16.0714H25.4353C23.7729 16.0714 22.3847 17.3391 22.2343 18.9947Z" fill="#303683"/>
<path d="M20.3571 22.5V27.8571H11.7857L10.9061 24.3392C10.7787 23.8293 10.7142 23.3056 10.7142 22.7801V22.5C10.7142 20.7247 12.1533 19.2857 13.9285 19.2857H17.1428C18.9181 19.2857 20.3571 20.7247 20.3571 22.5Z" fill="#303683"/>
<path d="M28.9285 28.9286H9.64282V52.5H28.9285V28.9286Z" fill="#FCFAF8" stroke="#2F2F2F" stroke-width="2"/>
<path d="M35.3572 28.9286H28.9286V52.5H35.3572V28.9286Z" fill="#FCFAF8" stroke="#2F2F2F" stroke-width="2"/>
<path d="M12.8572 28.9286V26.7857C12.8572 25.0104 14.2962 23.5714 16.0715 23.5714H22.5C24.2753 23.5714 25.7143 25.0104 25.7143 26.7857V28.9286" stroke="#2F2F2F" stroke-width="2"/>
<path d="M41.7857 40.7143L37.7051 40.0342C33.7231 39.3705 30.4656 43.1826 31.7422 47.0126L33.3242 51.7585C34.4469 55.1267 38.0875 56.947 41.4558 55.8242L41.7857 55.7143V40.7143Z" fill="#303683"/>
<path d="M41.7858 40.7143L45.8663 40.0342C49.8484 39.3705 53.1058 43.1826 51.8292 47.0126L50.2473 51.7585C49.1245 55.1267 45.4839 56.947 42.1157 55.8242L41.7858 55.7143V40.7143Z" fill="#303683"/>
<path d="M41.7858 38.5714V33.2143" stroke="#2F2F2F" stroke-width="2"/>
<path d="M50.1448 35.6402L48.9279 38.9656C47.9035 41.7655 44.3714 42.6392 42.1597 40.6399C41.9892 40.4858 41.8739 40.2799 41.8314 40.054L41.812 39.9506C41.2993 37.2166 43.6069 34.7795 46.3648 35.1427L50.1448 35.6402Z" fill="#FCFAF8" stroke="#2F2F2F" stroke-width="2"/>
</svg>
