<svg width="32" height="33" viewBox="0 0 32 33" fill="none" xmlns="http://www.w3.org/2000/svg">
<path d="M23.5471 11.4829L21.8227 9.76219L26.1335 5.46074C25.9899 5.31742 25.6163 4.94456 25.2714 4.60045C21.8227 3.74014 20.0984 4.60045 17.5119 7.18132C15.4426 9.24609 16.2618 12.2429 17.1241 13.6768L4.1914 26.5812L6.73466 29.1189" stroke="white" stroke-width="2"/>
<path d="M23.5472 11.4828L25.2716 13.2034L29.5824 8.90186C29.7261 9.0453 30.0997 9.41808 30.4446 9.76215C31.3067 13.2034 30.4446 14.924 27.8581 17.5049C25.7889 19.5696 22.786 18.7526 21.349 17.8923L8.41645 30.7968L6.30371 28.6888" stroke="white" stroke-width="2"/>
<path d="M13.3014 4.27781C14.4853 4.27781 15.445 3.32019 15.445 2.1389C15.445 0.95762 14.4853 0 13.3014 0C12.1175 0 11.1578 0.95762 11.1578 2.1389C11.1578 3.32019 12.1175 4.27781 13.3014 4.27781Z" fill="#FFDECD"/>
<path d="M3.65541 14.9724C5.4312 14.9724 6.87076 13.5359 6.87076 11.764C6.87076 9.99209 5.4312 8.55566 3.65541 8.55566C1.87962 8.55566 0.440063 9.99209 0.440063 11.764C0.440063 13.5359 1.87962 14.9724 3.65541 14.9724Z" fill="#FFDECD"/>
</svg>
