<svg width="60" height="60" viewBox="0 0 60 60" fill="none" xmlns="http://www.w3.org/2000/svg">
<path d="M18.852 8.8192C30.5329 3.61751 45.83 1.81643 51.0317 13.4973C56.2334 25.1784 49.0578 28.6287 40.621 43.4757C32.1844 58.3227 13.2049 53.0517 8.00317 41.3708C2.80149 29.6898 7.171 14.0208 18.852 8.8192Z" fill="#F7F9FC"/>
<path d="M20.3582 31.0714H43.9297L45.0011 17.1429L32.1439 7.5L19.2868 17.1429L20.3582 31.0714Z" fill="#F7F9FC"/>
<path d="M28.9296 36.4286C31.4462 37.4355 32.1439 38.5713 32.1439 38.5713L30.001 39.6428C29.4653 39.107 27.8582 38.0356 26.7868 37.4999C24.8701 36.5416 20.001 35.5357 18.2153 35.357C20.3582 34.8213 26.251 35.3568 28.9296 36.4286Z" fill="#303683"/>
<path d="M20.3582 39.6428C22.5011 40.7143 23.9296 42.5 24.1082 42.8571L27.8582 40.7143C27.8582 40.1785 24.6439 38.2143 22.5011 37.5C20.3505 36.7831 17.0507 36.5159 14.9837 36.4476C14.2832 36.4245 13.5858 36.5145 12.9059 36.6845L11.7868 36.9643C14.4654 37.6786 18.9761 38.9518 20.3582 39.6428Z" fill="#303683"/>
<path d="M49.2868 41.7857H54.644V52.5H49.2868L35.3582 55.7143H25.7154L8.57251 38.5714C8.88256 37.9513 9.59179 37.6413 10.2553 37.8423C13.2826 38.7592 17.3965 40.1158 19.2868 41.25C21.4297 42.5357 22.3225 43.3928 22.5011 43.9285V47.1428L24.644 49.2857L39.644 47.1428V46.0714L24.644 47.1428V45C28.2154 42.5 36.2154 38.5714 39.644 38.5714C43.0725 38.5714 47.5011 40.7143 49.2868 41.7857Z" fill="#303683"/>
<path d="M45.0011 18.2143V32.1428H19.2868V18.2143L32.1439 8.57141L45.0011 18.2143Z" stroke="#2F2F2F" stroke-width="2"/>
<path d="M35.3582 23.5714H28.9296V32.1428H35.3582V23.5714Z" fill="#2F2F2F"/>
</svg>
