<svg width="60" height="62" viewBox="0 0 60 62" fill="none" xmlns="http://www.w3.org/2000/svg">
<path fill-rule="evenodd" clip-rule="evenodd" d="M14.0189 34.9863C7.84836 28.8298 2.96019 19.5449 9.1308 13.3886C13.6552 8.87452 16.9874 9.67006 22.9856 11.102C25.168 11.6231 27.7033 12.2283 30.7774 12.6928C36.4132 13.5443 39.5994 17.1732 40.6619 21.3793H38.5714V27.7931H40.7161C40.1875 30.1183 39.0683 32.2888 37.4122 33.9412C35.2117 36.1367 32.3903 37.6821 29.3909 38.4827H20.0411C17.7986 37.837 15.7227 36.6861 14.0189 34.9863Z" fill="#F7F9FC"/>
<path d="M50.3572 22.4483V6.41382" stroke="#2F2F2F" stroke-width="2"/>
<path d="M39.6428 22.4483V6.41382" stroke="#2F2F2F" stroke-width="2"/>
<path d="M16.6072 37.4138H31.0715C35.8054 37.4138 39.6429 33.5851 39.6429 28.8621" stroke="#2F2F2F" stroke-width="2"/>
<path d="M16.6072 49.1724H33.2143C42.6821 49.1724 50.3572 41.515 50.3572 32.069V28.8621" stroke="#2F2F2F" stroke-width="2"/>
<path d="M38.9699 27.7931C37.1207 26.0608 37.1207 23.1117 38.9699 21.3793H51.0301C52.8793 23.1117 52.8793 26.0608 51.0301 27.7931H38.9699Z" stroke="#2F2F2F" stroke-width="2"/>
<path d="M10.7142 37.5828C12.4769 35.7983 15.3801 35.7983 17.1428 37.5828V49.0034C15.3801 50.7879 12.4769 50.7879 10.7142 49.0034V37.5828Z" stroke="#2F2F2F" stroke-width="2"/>
<path fill-rule="evenodd" clip-rule="evenodd" d="M24.943 16.5555C27.4124 16.9433 29.691 18.4003 31.0382 20.7284C32.8368 23.8365 32.4576 27.6028 30.3729 30.2685L40.3274 47.4704L34.76 50.6773L24.8056 33.4754C21.4494 33.9437 17.9906 32.3883 16.192 29.2801C14.8448 26.952 14.7195 24.2547 15.6174 21.9272L17.6171 21.0532L22.2949 26.9987L26.0064 24.8608L23.1845 17.8463L24.943 16.5555Z" fill="#303683"/>
<path d="M37.0084 48.148C34.9585 49.3287 34.2562 51.9438 35.4396 53.9889C36.6231 56.034 39.2442 56.7347 41.2941 55.554C43.3438 54.3732 44.0462 51.7581 42.8628 49.7131C41.6793 47.6679 39.0581 46.9672 37.0084 48.148Z" stroke="#303683" stroke-width="4"/>
<path d="M10.7143 37.4138H4.28577" stroke="#2F2F2F" stroke-width="2"/>
<path d="M10.7143 49.1724H4.28577" stroke="#2F2F2F" stroke-width="2"/>
</svg>
