<svg width="122" height="119" viewBox="0 0 122 119" fill="none" xmlns="http://www.w3.org/2000/svg">
<ellipse rx="58.1263" ry="58.4826" transform="matrix(0.999999 0.00138783 0.00137937 0.999999 58.207 58.5633)" fill="#EDEEF5"/>
<path d="M54.8953 61.0121L50.1599 95.7806C50.1028 96.1997 50.2146 96.6244 50.4706 96.9611C50.7266 97.2979 51.1059 97.5191 51.5251 97.5762L83.1327 101.881C83.5519 101.938 83.9765 101.826 84.3133 101.57C84.65 101.314 84.8713 100.935 84.9284 100.516L89.6637 65.7475C89.7208 65.3284 89.609 64.9037 89.353 64.567C89.097 64.2302 88.7177 64.009 88.2986 63.9519L56.6909 59.647C56.2718 59.5899 55.8471 59.7017 55.5104 59.9577C55.1736 60.2137 54.9524 60.593 54.8953 61.0121ZM57.8408 63.023L86.2877 66.8974L81.9828 98.5051L53.5359 94.6307L57.8408 63.023Z" fill="#303683"/>
<path d="M64.0153 41.3254C63.5955 41.2682 63.1701 41.3801 62.8327 41.6366C62.4954 41.8931 62.2738 42.273 62.2166 42.6929L61.5708 47.4341L58.4128 47.0039C56.3175 46.721 54.1955 47.2807 52.5124 48.5603C50.8292 49.8399 49.7224 51.735 49.4347 53.8296L42.9774 101.241C42.6944 103.336 43.2541 105.458 44.5338 107.142C45.8134 108.825 47.7084 109.932 49.8031 110.219L81.4108 114.524C83.5061 114.807 85.6281 114.247 87.3112 112.968C88.9944 111.688 90.1012 109.793 90.3889 107.698L96.8462 60.287C97.1292 58.1916 96.5695 56.0696 95.2898 54.3865C94.0102 52.7033 92.1152 51.5965 90.0205 51.3088L86.8625 50.8787L87.5082 46.1376C87.5654 45.7177 87.4535 45.2923 87.197 44.955C86.9405 44.6176 86.5606 44.396 86.1407 44.3388L79.8219 43.4782L81.113 33.9987L90.5894 35.2921L89.9441 40.0305C89.9157 40.2384 89.9287 40.4499 89.9821 40.6528C90.0355 40.8557 90.1283 41.0461 90.2553 41.2131C90.3823 41.3802 90.5409 41.5205 90.7222 41.6263C90.9034 41.732 91.1037 41.801 91.3116 41.8293L97.6331 42.6903C97.841 42.7186 98.0525 42.7057 98.2554 42.6523C98.4583 42.5989 98.6487 42.506 98.8157 42.379C98.9828 42.252 99.1231 42.0934 99.2289 41.9122C99.3346 41.7309 99.4036 41.5306 99.4319 41.3227L101.154 28.6797C101.211 28.2598 101.099 27.8344 100.843 27.4971C100.586 27.1597 100.206 26.9381 99.7863 26.8809L88.5642 25.3525C88.4398 23.5196 87.6875 21.7855 86.434 20.4425C85.1804 19.0995 83.5023 18.2295 81.6823 17.9792L75.3608 17.1182C73.2655 16.8353 71.1435 17.395 69.4603 18.6746C67.7772 19.9542 66.6703 21.8493 66.3826 23.9439L65.5217 30.2655C65.4646 30.6846 65.5763 31.1093 65.8323 31.446C66.0884 31.7828 66.4677 32.004 66.8868 32.0611L71.6252 32.7064L70.3341 42.186L64.0153 41.3254ZM88.2924 28.5405L97.7719 29.8316L96.4812 39.3083L93.326 38.8786L93.9713 34.1402C94.0285 33.7203 93.9166 33.295 93.6601 32.9576C93.4036 32.6203 93.0237 32.3986 92.6038 32.3415L87.8627 31.6957L88.2924 28.5405ZM89.59 54.4696C90.8468 54.6422 91.9838 55.3064 92.7515 56.3162C93.5193 57.3261 93.8552 58.5993 93.6854 59.8565L87.2281 107.268C87.0555 108.525 86.3913 109.662 85.3815 110.429C84.3716 111.197 83.0984 111.533 81.8412 111.363L50.2336 107.059C48.9768 106.886 47.8398 106.222 47.0721 105.212C46.3043 104.202 45.9684 102.929 46.1382 101.672L52.5955 54.2601C52.7681 53.0033 53.4322 51.8664 54.4421 51.0986C55.452 50.3308 56.7252 49.995 57.9824 50.1647L89.59 54.4696ZM68.8977 29.1156L69.5434 24.3744C69.7161 23.1176 70.3802 21.9807 71.3901 21.2129C72.3999 20.4451 73.6731 20.1093 74.9303 20.279L81.2518 21.14C82.5086 21.3126 83.6456 21.9767 84.4133 22.9866C85.1811 23.9965 85.517 25.2697 85.3472 26.5269L84.7015 31.268L68.8977 29.1156ZM77.9467 33.5674L76.6556 43.047L73.5004 42.6172L74.7915 33.1377L77.9467 33.5674ZM84.1263 47.2895L83.6962 50.4475L64.7371 47.8653L65.1672 44.7073L84.1263 47.2895Z" fill="#303683"/>
<path d="M30.7649 96.3585C30.6371 97.2962 30.7904 98.2507 31.2051 99.1013C31.6199 99.952 32.2776 100.66 33.0951 101.137C33.9125 101.614 34.853 101.838 35.7976 101.78C36.7422 101.723 37.6485 101.386 38.4019 100.813C39.1553 100.241 39.7219 99.4572 40.0301 98.5625C40.3383 97.6677 40.3742 96.7016 40.1334 95.7864C39.8925 94.8712 39.3857 94.048 38.6769 93.4208C37.9682 92.7937 37.0894 92.3908 36.1517 92.263C34.8946 92.0933 33.6214 92.4292 32.6115 93.1969C31.6016 93.9647 30.9375 95.1017 30.7649 96.3585ZM35.7212 95.4238C36.0338 95.4664 36.3267 95.6007 36.563 95.8097C36.7992 96.0188 36.9682 96.2932 37.0485 96.5983C37.1287 96.9033 37.1168 97.2254 37.014 97.5236C36.9113 97.8219 36.7224 98.083 36.4713 98.2739C36.2202 98.4648 35.9181 98.577 35.6032 98.5962C35.2883 98.6154 34.9748 98.5408 34.7024 98.3819C34.4299 98.223 34.2106 97.9868 34.0724 97.7032C33.9341 97.4197 33.883 97.1015 33.9256 96.7889C33.9832 96.37 34.2045 95.991 34.5412 95.7351C34.8778 95.4792 35.3022 95.3672 35.7212 95.4238Z" fill="#303683"/>
<path d="M34.8545 66.3312C33.6042 66.1609 32.3315 66.3652 31.1973 66.9182C30.0632 67.4713 29.1185 68.3482 28.4827 69.4381C27.8469 70.5281 27.5486 71.7821 27.6255 73.0416C27.7024 74.301 28.151 75.5094 28.9147 76.5139C29.6784 77.5184 30.7228 78.2739 31.9158 78.6848C33.1089 79.0958 34.397 79.1437 35.6172 78.8225C36.8375 78.5014 37.9351 77.8256 38.7714 76.8807C39.6076 75.9357 40.1448 74.764 40.3151 73.5137C40.5414 71.8374 40.0937 70.1398 39.07 68.7933C38.0463 67.4468 36.5302 66.5613 34.8545 66.3312ZM33.563 75.8135C32.9379 75.7283 32.352 75.4597 31.8796 75.0416C31.4071 74.6235 31.0692 74.0747 30.9086 73.4646C30.748 72.8544 30.772 72.2104 30.9775 71.6139C31.1829 71.0174 31.5607 70.4952 32.0629 70.1133C32.5652 69.7315 33.1694 69.5072 33.7991 69.4687C34.4288 69.4303 35.0558 69.5794 35.6008 69.8973C36.1458 70.2152 36.5843 70.6875 36.8608 71.2546C37.1373 71.8217 37.2394 72.4581 37.1543 73.0832C37.0392 73.9211 36.5964 74.679 35.9232 75.1909C35.2499 75.7027 34.4012 75.9266 33.563 75.8135Z" fill="#303683"/>
<path d="M96.9937 82.8427C96.866 83.7804 97.0192 84.7349 97.434 85.5856C97.8488 86.4362 98.5065 87.1447 99.324 87.6216C100.141 88.0984 101.082 88.3221 102.027 88.2645C102.971 88.2068 103.877 87.8703 104.631 87.2975C105.384 86.7248 105.951 85.9415 106.259 85.0467C106.567 84.1519 106.603 83.1859 106.362 82.2707C106.121 81.3555 105.615 80.5322 104.906 79.9051C104.197 79.2779 103.318 78.875 102.381 78.7473C101.123 78.5776 99.8503 78.9134 98.8404 79.6812C97.8305 80.4489 97.1664 81.5859 96.9937 82.8427ZM101.95 81.9081C102.263 81.9506 102.556 82.0849 102.792 82.294C103.028 82.503 103.197 82.7774 103.277 83.0825C103.358 83.3876 103.346 83.7096 103.243 84.0079C103.14 84.3061 102.951 84.5672 102.7 84.7581C102.449 84.9491 102.147 85.0612 101.832 85.0805C101.517 85.0997 101.204 85.0251 100.931 84.8662C100.659 84.7072 100.44 84.471 100.301 84.1875C100.163 83.9039 100.112 83.5858 100.155 83.2732C100.212 82.8543 100.433 82.4753 100.77 82.2193C101.107 81.9634 101.531 81.8515 101.95 81.9081Z" fill="#303683"/>
<path d="M108.844 66.75C110.094 66.9203 111.367 66.716 112.501 66.163C113.635 65.6099 114.58 64.733 115.215 63.6431C115.851 62.5531 116.15 61.2991 116.073 60.0396C115.996 58.7802 115.547 57.5718 114.783 56.5673C114.02 55.5628 112.975 54.8073 111.782 54.3964C110.589 53.9855 109.301 53.9375 108.081 54.2587C106.861 54.5798 105.763 55.2556 104.927 56.2006C104.091 57.1455 103.553 58.3172 103.383 59.5675C103.157 61.2438 103.605 62.9413 104.628 64.2878C105.652 65.6343 107.168 66.5198 108.844 66.75ZM110.135 57.2677C110.76 57.3529 111.346 57.6215 111.819 58.0396C112.291 58.4577 112.629 59.0065 112.789 59.6166C112.95 60.2268 112.926 60.8708 112.721 61.4673C112.515 62.0639 112.137 62.586 111.635 62.9679C111.133 63.3497 110.529 63.574 109.899 63.6125C109.269 63.651 108.642 63.5018 108.097 63.1839C107.552 62.866 107.114 62.3937 106.837 61.8266C106.561 61.2595 106.459 60.6231 106.544 59.998C106.659 59.1601 107.102 58.4022 107.775 57.8903C108.448 57.3785 109.297 57.1546 110.135 57.2677Z" fill="#303683"/>
<path d="M72.4327 70.2656C72.1775 69.9568 71.8155 69.7554 71.4186 69.7013C71.0217 69.6473 70.619 69.7446 70.2905 69.9738C68.9107 70.9731 67.6165 72.0856 66.4213 73.2996C63.6944 76.0662 62.138 78.7474 61.7947 81.2683C61.4057 84.1247 61.852 86.6332 63.0854 88.5226C63.6898 89.4165 64.4761 90.1729 65.3927 90.7423C66.3094 91.3117 67.3359 91.6812 68.4051 91.8269C69.4744 91.9725 70.5623 91.8909 71.5979 91.5874C72.6334 91.2839 73.5933 90.7653 74.4148 90.0656C76.1086 88.5749 77.2095 86.2771 77.5985 83.4208C77.9419 80.8998 77.1593 77.9 75.2715 74.505C74.4445 73.0155 73.495 71.5975 72.4327 70.2656ZM68.8356 88.6661C65.9119 88.2679 64.4244 85.598 64.9555 81.6988C65.3713 78.6459 68.7128 75.3176 70.8996 73.5222C72.5271 75.8333 74.855 79.9269 74.4378 82.9903C73.9067 86.8895 71.7593 89.0643 68.8356 88.6661Z" fill="#303683"/>
</svg>
