<svg width="114" height="114" viewBox="0 0 114 114" fill="none" xmlns="http://www.w3.org/2000/svg">
<circle cx="56.9032" cy="56.9032" r="56.9032" fill="#EDEEF5"/>
<path d="M64.1933 67.737C63.4467 67.8193 62.9083 68.491 62.9906 69.2377L65.4487 91.5362C65.9433 96.0233 62.6951 100.076 58.208 100.571L22.0745 104.554C17.5874 105.049 13.5343 101.801 13.0397 97.3134L5.24 26.5568C4.74538 22.0697 7.99362 18.0166 12.4807 17.522L48.614 13.5389C53.1011 13.0443 57.1542 16.2926 57.6488 20.7797L58.5249 28.7273C58.6072 29.474 59.2789 30.0123 60.0256 29.93C60.7723 29.8477 61.3106 29.176 61.2283 28.4293L60.3522 20.4817C59.6934 14.5037 54.2941 10.1766 48.3161 10.8355L12.1827 14.8186C6.20478 15.4776 1.87764 20.8769 2.53661 26.8548L10.3363 97.6114C10.9953 103.589 16.3946 107.916 22.3725 107.258L58.5058 103.274C64.4837 102.615 68.8109 97.2162 68.1519 91.2382L65.6939 68.9397C65.6118 68.1932 64.94 67.6547 64.1933 67.737Z" fill="#303683"/>
<path d="M10.5459 37.4587C9.79923 37.541 9.26091 38.2127 9.34322 38.9594L15.7429 97.0152C16.0732 100.012 18.7799 102.181 21.7765 101.851L57.9098 97.8676C60.9064 97.5373 63.0754 94.8308 62.7451 91.8342L60.5948 72.3275C60.5125 71.5809 59.8408 71.0425 59.0941 71.1248C58.3474 71.2072 57.8091 71.8789 57.8914 72.6256L60.0417 92.1322C60.2077 93.638 59.1175 94.9982 57.6118 95.1642L21.4785 99.1473C19.9725 99.3133 18.6123 98.2232 18.4463 96.7172L12.0466 38.6614C11.9643 37.9147 11.2926 37.3764 10.5459 37.4587Z" fill="#303683"/>
<path d="M44.7306 22.632L46.4281 19.2524L49.21 18.9457C50.716 18.7797 52.0763 19.8698 52.2423 21.3758L53.1183 29.3233C53.2006 30.0699 53.8724 30.6083 54.619 30.526C55.3657 30.4436 55.904 29.7719 55.8217 29.0253L54.9457 21.0778C54.6153 18.0812 51.9087 15.912 48.912 16.2423L46.0073 16.5625C45.1642 16.6555 44.4338 17.1636 44.0531 17.9213L42.3002 21.4108C42.2811 21.4489 42.2446 21.4742 42.2027 21.4788L20.4681 23.8747C20.4261 23.8793 20.385 23.8625 20.3582 23.8297L17.8874 20.8062C17.3509 20.1492 16.527 19.8122 15.6837 19.9052L12.7788 20.2254C9.78216 20.5557 7.61298 23.2624 7.9433 26.259L8.70832 33.199C8.79063 33.9457 9.46234 34.484 10.209 34.4017C10.9557 34.3194 11.494 33.6477 11.4117 32.901L10.6467 25.961C10.4807 24.455 11.5708 23.0948 13.0768 22.9288L15.8588 22.6221L18.252 25.5506C18.8642 26.3002 19.804 26.6842 20.7661 26.5781L42.5007 24.1822C43.4622 24.0763 44.2956 23.4968 44.7306 22.632Z" fill="#303683"/>
<path d="M37.6822 19.8516C38.4289 19.7693 38.9672 19.0976 38.8849 18.3509C38.8026 17.6043 38.1309 17.0659 37.3842 17.1482L24.0889 18.6138C23.3422 18.6961 22.8039 19.3678 22.8862 20.1145C22.9685 20.8612 23.6402 21.3995 24.3869 21.3172L37.6822 19.8516Z" fill="#303683"/>
<path d="M89.9417 36.5491L88.94 36.3216C88.2075 36.1553 87.4791 36.614 87.3127 37.3466C87.1463 38.0791 87.6051 38.8075 88.3376 38.9739L89.3393 39.2014C91.0489 39.5896 92.1239 41.2963 91.7356 43.006L87.1773 63.0768C86.7891 64.7863 85.0824 65.8612 83.3727 65.473L56.7024 59.4158C56.2121 59.3045 55.7003 59.4727 55.3717 59.8535L53.8104 61.6628L53.2352 59.39C53.1098 58.8941 52.7168 58.5107 52.218 58.3974L46.6059 57.1228C44.8963 56.7345 43.8213 55.0278 44.2095 53.3184L46.7199 42.2647C46.8863 41.5322 46.4275 40.8038 45.695 40.6374C44.9624 40.4711 44.2341 40.9298 44.0677 41.6624L41.5573 52.716C40.8369 55.8879 42.8315 59.0546 46.0035 59.775L50.803 60.865L51.2522 62.6401C51.4869 63.5666 52.2102 64.2788 53.1406 64.4985C53.148 64.5001 53.1552 64.502 53.1626 64.5036C54.0858 64.7131 55.0413 64.3997 55.6607 63.6817L56.897 62.2489L82.7704 68.125C85.9423 68.8454 89.1092 66.8509 89.8296 63.679L94.3878 43.6083C95.1082 40.4364 93.1137 37.2695 89.9417 36.5491Z" fill="#303683"/>
<path d="M46.1157 32.645L45.3512 36.0108C45.1849 36.7434 45.6436 37.4718 46.3762 37.6381C47.1087 37.8045 47.8371 37.3457 48.0035 36.6132L48.7679 33.2473C49.1561 31.5379 50.8628 30.4629 52.5725 30.8512L82.6861 37.6903C83.4186 37.8567 84.147 37.3979 84.3134 36.6654C84.4797 35.9329 84.021 35.2045 83.2884 35.0381L53.175 28.199C50.0029 27.4786 46.836 29.4731 46.1157 32.645Z" fill="#303683"/>
<path d="M77.9201 48.444C78.6668 48.3617 79.2051 47.69 79.1228 46.9433C79.0405 46.1967 78.3688 45.6583 77.6221 45.7406L76.617 45.8514C76.2388 44.4446 75.5274 43.1886 74.5823 42.1596L75.2182 41.3662C75.6879 40.7802 75.5935 39.9243 75.0073 39.4548C74.4214 38.9852 73.5655 39.0794 73.0958 39.6657L72.4602 40.459C71.25 39.7606 69.8693 39.34 68.4136 39.2774L68.3028 38.2723C68.2205 37.5256 67.5488 36.9873 66.8021 37.0696C66.0554 37.1519 65.5171 37.8236 65.5994 38.5703L65.7102 39.5754C64.3033 39.9536 63.0473 40.6648 62.0184 41.6099L61.225 40.974C60.6388 40.5045 59.783 40.5989 59.3133 41.1848C58.8436 41.771 58.938 42.6267 59.524 43.0964L60.3174 43.7323C59.6192 44.9422 59.1984 46.323 59.1358 47.7786L58.1308 47.8894C57.3841 47.9717 56.8458 48.6434 56.9281 49.3901C57.0104 50.1368 57.6821 50.6751 58.4288 50.5928L59.4338 50.482C59.812 51.8891 60.5234 53.1451 61.4685 54.174L60.8326 54.9674C60.3629 55.5537 60.4573 56.4094 61.0433 56.8791C61.3365 57.1138 61.697 57.2076 62.0429 57.1695C62.3888 57.1314 62.7202 56.9613 62.9552 56.6683L63.591 55.875C64.801 56.5732 66.1817 56.9938 67.6372 57.0565L67.748 58.0616C67.8303 58.8083 68.502 59.3466 69.2487 59.2643C69.9954 59.182 70.5337 58.5103 70.4514 57.7636L70.3406 56.7585C71.7477 56.3803 73.0035 55.669 74.0324 54.7238L74.8256 55.3596C75.1187 55.5946 75.4791 55.6884 75.8252 55.6502C76.171 55.6121 76.5025 55.442 76.7373 55.1491C77.2072 54.563 77.1128 53.7071 76.5268 53.2376L75.7334 52.6016C76.4318 51.3914 76.8524 50.0107 76.915 48.555L77.9201 48.4442L77.9201 48.444ZM68.7023 54.3071C65.3163 54.6804 62.2581 52.2295 61.8849 48.8435C61.5117 45.4578 63.9626 42.3996 67.3485 42.0263C70.7344 41.6531 73.7927 44.104 74.1659 47.4898C74.5391 50.8757 72.0882 53.9339 68.7023 54.3071Z" fill="#303683"/>
<path d="M65.5777 45.1243L65.0032 45.1877C64.2565 45.27 63.7182 45.9417 63.8005 46.6884C63.8828 47.435 64.5545 47.9734 65.3012 47.8911L65.8758 47.8277C66.6224 47.7454 67.1608 47.0737 67.0784 46.327C66.9961 45.5804 66.3242 45.042 65.5777 45.1243Z" fill="#303683"/>
<path d="M70.1958 48.5891L69.577 48.6573C68.8304 48.7396 68.292 49.4113 68.3743 50.158C68.4567 50.9047 69.1284 51.443 69.875 51.3607L70.4938 51.2925C71.2404 51.2102 71.7788 50.5384 71.6965 49.7918C71.6142 49.0451 70.9423 48.5068 70.1958 48.5891Z" fill="#303683"/>
<path d="M49.6207 83.705L48.2463 78.1903C47.0962 73.5775 42.6658 70.4916 37.9402 71.0126C33.2149 71.5334 29.5627 75.5103 29.4452 80.2628L29.305 85.9445L28.9615 86.7571C28.5984 87.6161 28.7144 88.5758 29.2717 89.3239C29.829 90.0721 30.7153 90.4576 31.6426 90.3554L35.6339 89.9154L35.6974 90.4918C35.9611 92.8836 38.1213 94.6146 40.5129 94.351C42.9045 94.0874 44.6357 91.9271 44.3721 89.5355L44.3086 88.9592L48.2999 88.5192C49.2271 88.417 50.0082 87.8477 50.3892 86.9961C50.7701 86.1445 50.6743 85.1826 50.1328 84.4233L49.6207 83.705ZM41.6689 89.8335C41.7682 90.7345 41.116 91.5483 40.2151 91.6476C39.3141 91.7469 38.5003 91.0947 38.401 90.1937L38.3375 89.6174L41.6055 89.2571L41.6691 89.8335L41.6689 89.8335ZM42.659 86.4048L36.6876 87.063L31.5454 87.6298L31.9105 86.7654C31.9769 86.6084 32.0131 86.44 32.0175 86.2697L32.1643 80.3301C32.2483 76.9319 34.8597 74.0884 38.2384 73.7159C41.6171 73.3435 44.785 75.5499 45.6072 78.8482L47.0442 84.6133C47.0855 84.7787 47.1576 84.9349 47.2566 85.0738L47.8013 85.8379L42.659 86.4048Z" fill="#303683"/>
<path d="M28.7484 69.4348C26.2331 69.712 24.4122 71.9839 24.6895 74.4993C24.7718 75.246 25.4435 75.7843 26.1902 75.702C26.9369 75.6197 27.4752 74.948 27.3929 74.2013C27.2799 73.1766 28.0216 72.2511 29.0464 72.1382C29.793 72.0559 30.3314 71.3841 30.2491 70.6375C30.1668 69.8908 29.495 69.3525 28.7484 69.4348Z" fill="#303683"/>
<path d="M28.1047 63.5954C22.3693 64.2276 18.2176 69.408 18.8498 75.1432C18.9321 75.8899 19.6038 76.4282 20.3505 76.3459C21.0972 76.2636 21.6355 75.5919 21.5532 74.8452C21.0853 70.6005 24.158 66.7667 28.4027 66.2988C29.1493 66.2165 29.6877 65.5447 29.6054 64.7981C29.5231 64.0514 28.8513 63.5131 28.1047 63.5954Z" fill="#303683"/>
</svg>
