<svg width="60" height="60" viewBox="0 0 60 60" fill="none" xmlns="http://www.w3.org/2000/svg">
<path d="M44.5104 21.1223C50.9038 32.1959 54.293 47.2212 43.2192 53.6146C32.1456 60.0081 27.9646 53.232 12.3175 46.3923C-3.32957 39.5528 -0.0700305 20.1265 11.0036 13.7331C22.0774 7.33967 38.117 10.0485 44.5104 21.1223Z" fill="#F7F9FC"/>
<path d="M19.2857 24.8586L31.0714 32.7157V49.2852H7.5V32.7157L19.2857 24.8586Z" fill="#F7F9FC" stroke="#2F2F2F" stroke-width="2"/>
<path d="M38.3801 6.2778C39.1324 5.72893 40.1533 5.72893 40.9056 6.2778L44.1424 8.63882C44.5103 8.90714 44.954 9.05133 45.4093 9.05046L49.4156 9.04283C50.347 9.04106 51.1728 9.64107 51.4589 10.5274L52.6896 14.34C52.8296 14.7733 53.1039 15.1507 53.4726 15.4176L56.7183 17.7663C57.4728 18.3123 57.7883 19.2831 57.4988 20.1685L56.2535 23.9763C56.112 24.4091 56.112 24.8757 56.2535 25.3084L57.4988 29.1163C57.7883 30.0015 57.4728 30.9723 56.7183 31.5183L53.4726 33.867C53.1039 34.1339 52.8296 34.5114 52.6896 34.9446L51.4589 38.7573C51.1728 39.6436 50.347 40.2436 49.4156 40.2418L45.4093 40.2342C44.954 40.2333 44.5103 40.3775 44.1424 40.6458L40.9056 43.0068C40.1533 43.5557 39.1324 43.5557 38.3801 43.0068L35.1433 40.6458C34.7755 40.3775 34.3317 40.2333 33.8764 40.2342L29.8701 40.2418C28.9388 40.2436 28.1129 39.6436 27.8268 38.7573L26.5961 34.9446C26.4561 34.5114 26.1819 34.1339 25.8131 33.867L22.5674 31.5183C21.8129 30.9723 21.4975 30.0015 21.787 29.1163L23.0322 25.3084C23.1737 24.8757 23.1737 24.4091 23.0322 23.9763L21.787 20.1685C21.4975 19.2831 21.8129 18.3123 22.5674 17.7663L25.8131 15.4176C26.1819 15.1507 26.4561 14.7733 26.5961 14.34L27.8268 10.5274C28.1129 9.64107 28.9388 9.04106 29.8701 9.04283L33.8764 9.05046C34.3317 9.05133 34.7755 8.90714 35.1433 8.63882L38.3801 6.2778Z" fill="#303F83"/>
<path d="M39.6429 35.3566C45.5602 35.3566 50.3572 30.5597 50.3572 24.6423C50.3572 18.725 45.5602 13.928 39.6429 13.928C33.7255 13.928 28.9286 18.725 28.9286 24.6423C28.9286 30.5597 33.7255 35.3566 39.6429 35.3566Z" fill="#FCFAF8"/>
<path d="M33.2142 24.6423L37.4999 28.9281L46.0714 20.3566" stroke="#2F2F2F" stroke-width="2"/>
<path d="M22.5 41.7852H16.0714V50.3566H22.5V41.7852Z" fill="#2F2F2F"/>
</svg>
